<?xml version="1.0" encoding="utf-8"?>
<!-- Generator: Adobe Illustrator 16.0.0, SVG Export Plug-In . SVG Version: 6.00 Build 0)  -->
<!DOCTYPE svg PUBLIC "-//W3C//DTD SVG 1.1//EN" "http://www.w3.org/Graphics/SVG/1.1/DTD/svg11.dtd">
<svg version="1.1" id="Layer_1" xmlns="http://www.w3.org/2000/svg" xmlns:xlink="http://www.w3.org/1999/xlink" x="0px" y="0px"
	 width="2200px" height="1200px" viewBox="0 0 2200 1200" enable-background="new 0 0 2200 1200" xml:space="preserve">
<text transform="matrix(1 0 0 1 441.4424 959.2324)" fill="#FFFFFF" font-family="'BookAntiqua-Bold'" font-size="281.8571">PMB</text>
<g>
	<defs>
		<rect id="SVGID_1_" width="2200" height="1200"/>
	</defs>
	<clipPath id="SVGID_2_">
		<use xlink:href="#SVGID_1_"  overflow="visible"/>
	</clipPath>
</g>
<g>
	<defs>
		<rect id="SVGID_3_" width="2200" height="1200"/>
	</defs>
	<clipPath id="SVGID_4_">
		<use xlink:href="#SVGID_3_"  overflow="visible"/>
	</clipPath>
</g>
<g>
	<path d="M200.017,512.537l68.02-146.253c0.652-1.304,2.173-2.39,3.694-2.39h2.173c1.521,0,3.042,1.086,3.694,2.39l68.02,146.253
		c1.304,2.825-0.435,5.65-3.694,5.65h-24.122c-3.912,0-5.65-1.304-7.606-5.433l-7.823-17.168h-59.11l-7.823,17.386
		c-1.086,2.607-3.477,5.215-7.823,5.215h-23.905C200.451,518.187,198.712,515.362,200.017,512.537z M289.333,466.031l-16.516-35.857
		H272.6l-16.299,35.857H289.333z"/>
	<path d="M361.48,370.195c0-2.173,1.739-4.129,4.129-4.129h64.977c26.078,0,47.375,21.08,47.375,46.94
		c0,19.993-13.256,36.074-32.163,43.68l29.772,55.198c1.521,2.825,0,6.302-3.694,6.302h-28.903c-1.739,0-3.042-1.086-3.477-1.956
		l-28.903-57.588h-14.995v55.416c0,2.173-1.956,4.129-4.129,4.129h-25.86c-2.391,0-4.129-1.956-4.129-4.129V370.195z
		 M427.761,431.043c8.91,0,16.516-8.258,16.516-17.385s-7.606-16.516-16.516-16.516h-32.163v33.901H427.761z"/>
	<path d="M524.685,398.011h-31.076c-2.391,0-4.129-1.956-4.129-4.129v-23.688c0-2.173,1.738-4.129,4.129-4.129h96.488
		c2.391,0,4.129,1.956,4.129,4.129v23.688c0,2.173-1.738,4.129-4.129,4.129h-31.076v116.047c0,2.173-1.956,4.129-4.129,4.129
		h-26.078c-2.173,0-4.129-1.956-4.129-4.129V398.011z"/>
	<path d="M614,370.195c0-2.173,1.956-4.129,4.129-4.129h25.86c2.391,0,4.129,1.956,4.129,4.129v54.764h62.152v-54.764
		c0-2.173,1.739-4.129,4.129-4.129h25.861c2.173,0,4.129,1.956,4.129,4.129v143.863c0,2.173-1.956,4.129-4.129,4.129H714.4
		c-2.39,0-4.129-1.956-4.129-4.129v-57.154h-62.152v57.154c0,2.173-1.738,4.129-4.129,4.129h-25.86
		c-2.173,0-4.129-1.956-4.129-4.129V370.195z"/>
	<path d="M777.638,370.195c0-2.173,1.956-4.129,4.129-4.129h26.73c2.39,0,4.129,1.956,4.129,4.129v88.013
		c0,15.212,11.3,27.382,26.729,27.382c15.647,0,27.165-12.17,27.165-27.382v-88.013c0-2.173,1.739-4.129,4.129-4.129h26.729
		c2.173,0,4.129,1.956,4.129,4.129v89.751c0,33.032-27.816,60.414-62.152,60.414c-34.118,0-61.717-27.382-61.717-60.414V370.195z"/>
	<path d="M934.539,370.195c0-2.173,1.739-4.129,4.129-4.129h64.977c26.078,0,47.375,21.08,47.375,46.94
		c0,19.993-13.256,36.074-32.163,43.68l29.772,55.198c1.521,2.825,0,6.302-3.694,6.302h-28.903c-1.739,0-3.042-1.086-3.477-1.956
		l-28.903-57.588h-14.995v55.416c0,2.173-1.956,4.129-4.129,4.129h-25.86c-2.391,0-4.129-1.956-4.129-4.129V370.195z
		 M1000.82,431.043c8.91,0,16.516-8.258,16.516-17.385s-7.606-16.516-16.516-16.516h-32.163v33.901H1000.82z"/>
</g>
<g>
	<path d="M210.882,691.39l10.214-18.038c1.738-2.824,5.868-2.39,7.389-1.304c0.869,0.435,16.516,11.952,30.859,11.952
		c8.692,0,14.995-5.433,14.995-13.038c0-9.128-7.606-16.082-22.383-21.949c-18.689-7.389-42.159-21.949-42.159-48.027
		c0-21.514,16.733-43.246,50.2-43.246c22.601,0,39.986,11.518,46.505,16.298c2.608,1.521,2.173,5.433,1.304,6.954l-11.083,16.733
		c-1.521,2.391-5.433,4.346-7.389,2.825c-1.956-1.086-17.82-13.039-31.076-13.039c-7.823,0-13.69,5.216-13.69,11.083
		c0,8.041,6.519,14.125,23.687,21.08c16.951,6.737,43.898,19.993,43.898,49.548c0,22.384-19.341,44.984-51.287,44.984
		c-28.251,0-43.897-11.734-48.896-16.733C209.796,695.301,209.144,694.432,210.882,691.39z"/>
	<path d="M404.074,557.74c21.731,0,37.813,6.737,52.59,20.21c1.956,1.739,1.956,4.347,0.217,6.085l-16.951,17.603
		c-1.521,1.521-3.912,1.521-5.433,0c-8.041-7.171-18.689-11.083-29.337-11.083c-24.557,0-42.594,20.428-42.594,44.767
		c0,24.122,18.254,44.115,42.811,44.115c10.214,0,21.297-3.694,29.12-10.431c1.521-1.304,4.347-1.304,5.65,0.217l16.951,18.037
		c1.521,1.521,1.304,4.347-0.217,5.868c-14.777,14.343-33.467,21.079-52.808,21.079c-43.463,0-78.451-34.553-78.451-78.016
		C325.623,592.728,360.611,557.74,404.074,557.74z"/>
	<path d="M481.002,564.042c0-2.173,1.956-4.129,4.129-4.129h25.86c2.391,0,4.129,1.956,4.129,4.129v54.764h62.152v-54.764
		c0-2.173,1.739-4.129,4.129-4.129h25.861c2.173,0,4.129,1.956,4.129,4.129v143.863c0,2.173-1.956,4.129-4.129,4.129h-25.861
		c-2.39,0-4.129-1.956-4.129-4.129v-57.154h-62.152v57.154c0,2.173-1.738,4.129-4.129,4.129h-25.86
		c-2.173,0-4.129-1.956-4.129-4.129V564.042z"/>
	<path d="M646.595,561.652c0-2.173,1.956-3.912,4.129-3.912h5.433l86.709,83.449h0.217v-77.147c0-2.173,1.739-4.129,4.129-4.129
		h26.078c2.173,0,4.129,1.956,4.129,4.129v146.254c0,2.173-1.956,3.911-4.129,3.911h-3.477c-0.652,0-2.391-0.651-2.825-1.086
		l-85.84-86.274h-0.217v81.059c0,2.173-1.738,4.129-4.129,4.129h-25.86c-2.173,0-4.129-1.956-4.129-4.129L646.595,561.652z"/>
	<path d="M812.842,564.042c0-2.173,1.956-4.129,4.129-4.129h26.078c2.173,0,4.129,1.956,4.129,4.129v143.863
		c0,2.173-1.956,4.129-4.129,4.129h-26.078c-2.173,0-4.129-1.956-4.129-4.129V564.042z"/>
	<path d="M902.156,591.858H871.08c-2.391,0-4.129-1.956-4.129-4.129v-23.688c0-2.173,1.738-4.129,4.129-4.129h96.488
		c2.39,0,4.129,1.956,4.129,4.129v23.688c0,2.173-1.739,4.129-4.129,4.129h-31.076v116.047c0,2.173-1.956,4.129-4.129,4.129h-26.078
		c-2.173,0-4.129-1.956-4.129-4.129V591.858z"/>
	<path d="M977.781,703.993l57.806-111.7v-0.435h-47.375c-2.173,0-4.129-1.956-4.129-4.129v-23.688c0-2.173,1.956-4.129,4.129-4.129
		h92.359c2.173,0,4.129,1.956,4.129,4.129v2.825l-55.85,112.787v0.435h47.375c2.39,0,4.129,1.956,4.129,4.129v23.688
		c0,2.173-1.739,4.129-4.129,4.129h-94.315c-2.173,0-4.129-1.956-4.129-4.129V703.993z"/>
	<path d="M1107.301,564.042c0-2.173,1.738-4.129,4.129-4.129h25.86c2.173,0,4.129,1.956,4.129,4.129v116.047h51.722
		c2.39,0,4.129,1.956,4.129,4.129v23.688c0,2.173-1.739,4.129-4.129,4.129h-81.711c-2.391,0-4.129-1.956-4.129-4.129V564.042z"/>
	<path d="M1216.391,564.042c0-2.173,1.738-4.129,4.129-4.129h89.969c2.391,0,4.129,1.956,4.129,4.129v23.688
		c0,2.173-1.738,4.129-4.129,4.129h-60.196v26.947h49.548c2.173,0,4.129,1.956,4.129,4.129v23.688c0,2.391-1.956,4.129-4.129,4.129
		h-49.548v29.338h60.196c2.391,0,4.129,1.956,4.129,4.129v23.688c0,2.173-1.738,4.129-4.129,4.129h-89.969
		c-2.391,0-4.129-1.956-4.129-4.129V564.042z"/>
	<path d="M1341.565,564.042c0-2.173,1.738-4.129,4.129-4.129h64.978c26.077,0,47.374,21.08,47.374,46.94
		c0,19.993-13.256,36.074-32.162,43.681l29.772,55.198c1.521,2.824,0,6.302-3.694,6.302h-28.903c-1.738,0-3.043-1.087-3.478-1.956
		l-28.902-57.589h-14.995v55.416c0,2.173-1.956,4.129-4.129,4.129h-25.86c-2.391,0-4.129-1.956-4.129-4.129V564.042z
		 M1407.847,624.891c8.909,0,16.516-8.258,16.516-17.386c0-9.127-7.606-16.516-16.516-16.516h-32.163v33.901H1407.847z"/>
</g>
<path fill="#FFFFFF" d="M1781.965,130.841l-1.115-0.558L1781.965,130.841z"/>
<path fill="none" stroke="#231F20" stroke-miterlimit="10" d="M1780.85,130.283l1.115,0.558L1780.85,130.283z"/>
<g>
	<defs>
		<rect id="SVGID_5_" width="2200" height="1200"/>
	</defs>
	<clipPath id="SVGID_6_">
		<use xlink:href="#SVGID_5_"  overflow="visible"/>
	</clipPath>
	<path clip-path="url(#SVGID_6_)" fill="#231F20" d="M1754.649,132.513c0.187,0.372,0.372,0.743,0.558,1.115
		c0.186-0.372,0.372-0.743,0.558-1.115H1754.649z"/>
	<path clip-path="url(#SVGID_6_)" fill="none" stroke="#FFFFFF" stroke-miterlimit="10" d="M1754.649,132.513
		c0.187,0.372,0.372,0.743,0.558,1.115c0.186-0.372,0.372-0.743,0.558-1.115H1754.649z"/>
	<path clip-path="url(#SVGID_6_)" fill="#231F20" d="M1776.391,134.185c1.437,1.591,0.719,0.877,2.229,0H1776.391z"/>
	<path clip-path="url(#SVGID_6_)" fill="none" stroke="#FFFFFF" stroke-miterlimit="10" d="M1776.391,134.185
		c1.437,1.591,0.719,0.877,2.229,0H1776.391z"/>
	<path clip-path="url(#SVGID_6_)" fill="#231F20" d="M1734.581,137.53l-0.557,1.115h1.114
		C1734.953,138.273,1734.768,137.902,1734.581,137.53"/>
	<path clip-path="url(#SVGID_6_)" fill="none" stroke="#FFFFFF" stroke-miterlimit="10" d="M1734.581,137.53l-0.557,1.115h1.114
		C1734.953,138.273,1734.768,137.902,1734.581,137.53z"/>
	<path clip-path="url(#SVGID_6_)" fill="#231F20" d="M1749.075,140.875c0.776,1.072,0.057,0.333,1.115,1.115
		C1749.818,141.618,1749.447,141.247,1749.075,140.875"/>
	<path clip-path="url(#SVGID_6_)" fill="none" stroke="#FFFFFF" stroke-miterlimit="10" d="M1749.075,140.875
		c0.776,1.072,0.057,0.333,1.115,1.115C1749.818,141.618,1749.447,141.247,1749.075,140.875z"/>
	<path clip-path="url(#SVGID_6_)" fill="#231F20" d="M1793.671,141.432v1.115V141.432z"/>
	<path clip-path="url(#SVGID_6_)" fill="none" stroke="#FFFFFF" stroke-miterlimit="10" d="M1793.671,141.432v1.115V141.432z"/>
	<path clip-path="url(#SVGID_6_)" fill="#231F20" d="M1813.739,159.271v1.115V159.271z"/>
	<path clip-path="url(#SVGID_6_)" fill="none" stroke="#FFFFFF" stroke-miterlimit="10" d="M1813.739,159.271v1.115V159.271z"/>
	<path clip-path="url(#SVGID_6_)" fill="#231F20" d="M1808.723,161.5v1.115V161.5z"/>
	<path clip-path="url(#SVGID_6_)" fill="none" stroke="#FFFFFF" stroke-miterlimit="10" d="M1808.723,161.5v1.115V161.5z"/>
	<path clip-path="url(#SVGID_6_)" fill="#FFFFFF" d="M1721.938,153.437v2.229h1.673c-0.187-0.743-0.372-1.486-0.558-2.229H1721.938z
		"/>
	<path clip-path="url(#SVGID_6_)" fill="#231F20" d="M1715.249,171.832v1.115C1715.794,171.974,1715.758,172.824,1715.249,171.832"
		/>
	<path clip-path="url(#SVGID_6_)" fill="none" stroke="#FFFFFF" stroke-miterlimit="10" d="M1715.249,171.832v1.115
		C1715.794,171.974,1715.758,172.824,1715.249,171.832z"/>
	<path clip-path="url(#SVGID_6_)" fill="#231F20" d="M1828.412,184.096v1.115C1828.956,184.238,1828.921,185.088,1828.412,184.096"
		/>
	<path clip-path="url(#SVGID_6_)" fill="none" stroke="#FFFFFF" stroke-miterlimit="10" d="M1828.412,184.096v1.115
		C1828.956,184.238,1828.921,185.088,1828.412,184.096z"/>
	<path clip-path="url(#SVGID_6_)" fill="#231F20" d="M1714.691,193.573c0.187,0.372,0.372,0.744,0.558,1.115
		c0.187-0.371,0.372-0.743,0.558-1.115H1714.691z"/>
	<path clip-path="url(#SVGID_6_)" fill="none" stroke="#FFFFFF" stroke-miterlimit="10" d="M1714.691,193.573
		c0.187,0.372,0.372,0.744,0.558,1.115c0.187-0.371,0.372-0.743,0.558-1.115H1714.691z"/>
	<path clip-path="url(#SVGID_6_)" fill="#231F20" d="M1711.904,198.59c0.775,1.072,0.057,0.334,1.115,1.115
		C1712.647,199.333,1712.276,198.962,1711.904,198.59"/>
	<path clip-path="url(#SVGID_6_)" fill="none" stroke="#FFFFFF" stroke-miterlimit="10" d="M1711.904,198.59
		c0.775,1.072,0.057,0.334,1.115,1.115C1712.647,199.333,1712.276,198.962,1711.904,198.59z"/>
	<path clip-path="url(#SVGID_6_)" fill="#231F20" d="M1707.445,210.854l0.557,1.115c0.187-0.372,0.372-0.743,0.558-1.115H1707.445z"
		/>
	<path clip-path="url(#SVGID_6_)" fill="none" stroke="#FFFFFF" stroke-miterlimit="10" d="M1707.445,210.854l0.557,1.115
		c0.187-0.372,0.372-0.743,0.558-1.115H1707.445z"/>
	<path clip-path="url(#SVGID_6_)" fill="#231F20" d="M1806.114,210.854l1.114,0.557L1806.114,210.854z"/>
	<path clip-path="url(#SVGID_6_)" fill="none" stroke="#FFFFFF" stroke-miterlimit="10" d="M1806.114,210.854l1.114,0.557
		L1806.114,210.854z"/>
	<path clip-path="url(#SVGID_6_)" fill="#231F20" d="M1818.378,227.02l1.114,0.557L1818.378,227.02z"/>
	<path clip-path="url(#SVGID_6_)" fill="none" stroke="#FFFFFF" stroke-miterlimit="10" d="M1818.378,227.02l1.114,0.557
		L1818.378,227.02z"/>
	<path clip-path="url(#SVGID_6_)" fill="#FFFFFF" d="M1713.577,228.135c-0.187,1.486-0.372,2.973-0.558,4.459
		c1.504-0.891,0.768-0.188,1.672-1.672C1714.693,228.829,1715.906,229.462,1713.577,228.135"/>
	<path clip-path="url(#SVGID_6_)" fill="#231F20" d="M1716.922,243.744c-0.186,0.372-0.372,0.743-0.559,1.115
		c1.686-0.702,0.668,0.01,1.673-1.115H1716.922z"/>
	<path clip-path="url(#SVGID_6_)" fill="none" stroke="#FFFFFF" stroke-miterlimit="10" d="M1716.922,243.744
		c-0.186,0.372-0.372,0.743-0.559,1.115c1.686-0.702,0.668,0.01,1.673-1.115H1716.922z"/>
	<path clip-path="url(#SVGID_6_)" fill="#231F20" d="M1718.594,244.301l1.115,0.558L1718.594,244.301z"/>
	<path clip-path="url(#SVGID_6_)" fill="none" stroke="#FFFFFF" stroke-miterlimit="10" d="M1718.594,244.301l1.115,0.558
		L1718.594,244.301z"/>
	<path clip-path="url(#SVGID_6_)" fill="#231F20" d="M1736.99,248.203c0.371,0.186,0.743,0.372,1.114,0.558
		C1737.733,248.575,1737.361,248.389,1736.99,248.203"/>
	<path clip-path="url(#SVGID_6_)" fill="none" stroke="#FFFFFF" stroke-miterlimit="10" d="M1736.99,248.203
		c0.371,0.186,0.743,0.372,1.114,0.558C1737.733,248.575,1737.361,248.389,1736.99,248.203z"/>
	<path clip-path="url(#SVGID_6_)" fill="#231F20" d="M1852.382,248.761v1.115V248.761z"/>
	<path clip-path="url(#SVGID_6_)" fill="none" stroke="#FFFFFF" stroke-miterlimit="10" d="M1852.382,248.761v1.115V248.761z"/>
	<path clip-path="url(#SVGID_6_)" fill="#231F20" d="M1856.284,249.875c0.776,1.072,0.057,0.333,1.115,1.115
		C1857.027,250.619,1856.656,250.248,1856.284,249.875"/>
	<path clip-path="url(#SVGID_6_)" fill="none" stroke="#FFFFFF" stroke-miterlimit="10" d="M1856.284,249.875
		c0.776,1.072,0.057,0.333,1.115,1.115C1857.027,250.619,1856.656,250.248,1856.284,249.875z"/>
	<path clip-path="url(#SVGID_6_)" fill="#231F20" d="M1741.449,251.548v1.115V251.548z"/>
	<path clip-path="url(#SVGID_6_)" fill="none" stroke="#FFFFFF" stroke-miterlimit="10" d="M1741.449,251.548v1.115V251.548z"/>
	<path clip-path="url(#SVGID_6_)" fill="#FFFFFF" d="M1707.445,261.582c0.186,1.486,0.371,2.973,0.557,4.459
		c0.372,0.187,0.744,0.372,1.115,0.558C1709.135,263.505,1709.137,262.885,1707.445,261.582"/>
	<path clip-path="url(#SVGID_6_)" fill="#231F20" d="M1777.684,262.697c0.941,1.382,0.335,0.652,1.673,0H1777.684z"/>
	<path clip-path="url(#SVGID_6_)" fill="none" stroke="#FFFFFF" stroke-miterlimit="10" d="M1777.684,262.697
		c0.941,1.382,0.335,0.652,1.673,0H1777.684z"/>
	<path clip-path="url(#SVGID_6_)" fill="#231F20" d="M1747.581,271.616v1.115V271.616z"/>
	<path clip-path="url(#SVGID_6_)" fill="none" stroke="#FFFFFF" stroke-miterlimit="10" d="M1747.581,271.616v1.115V271.616z"/>
	<path clip-path="url(#SVGID_6_)" fill="#231F20" d="M1875.795,279.978c0.187,0.372,0.372,0.744,0.558,1.115
		C1876.116,280.576,1876.8,280.715,1875.795,279.978"/>
	<path clip-path="url(#SVGID_6_)" fill="none" stroke="#FFFFFF" stroke-miterlimit="10" d="M1875.795,279.978
		c0.187,0.372,0.372,0.744,0.558,1.115C1876.116,280.576,1876.8,280.715,1875.795,279.978z"/>
	<path clip-path="url(#SVGID_6_)" fill="#FFFFFF" d="M1891.961,302.276c-1.3,0.743-2.602,1.486-3.901,2.23
		c0.186,0.929,0.371,1.858,0.557,2.787h2.788c0.863-2.35,1.346-1.866,2.787-3.345h-1.115
		C1892.705,303.391,1892.333,302.833,1891.961,302.276"/>
	<path clip-path="url(#SVGID_6_)" fill="#FFFFFF" d="M1730.858,308.965c-0.187,0.743-0.372,1.486-0.558,2.229
		c1.073-0.845,0.986-0.998,1.672-2.229H1730.858z"/>
	<path clip-path="url(#SVGID_6_)" fill="#231F20" d="M1701.87,375.859c1.004,1.138,0.009,0.394,1.673,1.115L1701.87,375.859z"/>
	<path clip-path="url(#SVGID_6_)" fill="none" stroke="#FFFFFF" stroke-miterlimit="10" d="M1701.87,375.859
		c1.004,1.138,0.009,0.394,1.673,1.115L1701.87,375.859z"/>
	<path clip-path="url(#SVGID_6_)" fill="#231F20" d="M1704.101,393.698c-0.187,0.372-0.372,0.743-0.558,1.115h1.115
		C1704.472,394.441,1704.286,394.07,1704.101,393.698"/>
	<path clip-path="url(#SVGID_6_)" fill="none" stroke="#FFFFFF" stroke-miterlimit="10" d="M1704.101,393.698
		c-0.187,0.372-0.372,0.743-0.558,1.115h1.115C1704.472,394.441,1704.286,394.07,1704.101,393.698z"/>
	<path clip-path="url(#SVGID_6_)" fill="#231F20" d="M1682.359,422.128c-0.186,0.372-0.371,0.743-0.559,1.115h1.116
		C1682.731,422.871,1682.546,422.5,1682.359,422.128"/>
	<path clip-path="url(#SVGID_6_)" fill="none" stroke="#FFFFFF" stroke-miterlimit="10" d="M1682.359,422.128
		c-0.186,0.372-0.371,0.743-0.559,1.115h1.116C1682.731,422.871,1682.546,422.5,1682.359,422.128z"/>
	<path clip-path="url(#SVGID_6_)" fill="#231F20" d="M1524.601,541.422c0.187,0.372,0.372,0.743,0.558,1.115
		c0.187-0.372,0.372-0.743,0.558-1.115H1524.601z"/>
	<path clip-path="url(#SVGID_6_)" fill="none" stroke="#FFFFFF" stroke-miterlimit="10" d="M1524.601,541.422
		c0.187,0.372,0.372,0.743,0.558,1.115c0.187-0.372,0.372-0.743,0.558-1.115H1524.601z"/>
	<path clip-path="url(#SVGID_6_)" fill="#231F20" d="M1536.865,544.767c0.371,0.186,0.743,0.372,1.114,0.558
		C1537.608,545.139,1537.236,544.953,1536.865,544.767"/>
	<path clip-path="url(#SVGID_6_)" fill="none" stroke="#FFFFFF" stroke-miterlimit="10" d="M1536.865,544.767
		c0.371,0.186,0.743,0.372,1.114,0.558C1537.608,545.139,1537.236,544.953,1536.865,544.767z"/>
	<path clip-path="url(#SVGID_6_)" fill="#231F20" d="M1539.652,547.554c-0.186,0.372-0.372,0.743-0.559,1.115
		C1540.13,547.974,1539.399,548.171,1539.652,547.554"/>
	<path clip-path="url(#SVGID_6_)" fill="none" stroke="#FFFFFF" stroke-miterlimit="10" d="M1539.652,547.554
		c-0.186,0.372-0.372,0.743-0.559,1.115C1540.13,547.974,1539.399,548.171,1539.652,547.554z"/>
	<path clip-path="url(#SVGID_6_)" fill="#231F20" d="M1522.371,557.588v1.115C1522.916,557.73,1522.88,558.581,1522.371,557.588"/>
	<path clip-path="url(#SVGID_6_)" fill="none" stroke="#FFFFFF" stroke-miterlimit="10" d="M1522.371,557.588v1.115
		C1522.916,557.73,1522.88,558.581,1522.371,557.588z"/>
	<path clip-path="url(#SVGID_6_)" fill="#231F20" d="M1533.521,561.491l1.114,0.557L1533.521,561.491z"/>
	<path clip-path="url(#SVGID_6_)" fill="none" stroke="#FFFFFF" stroke-miterlimit="10" d="M1533.521,561.491l1.114,0.557
		L1533.521,561.491z"/>
	<path clip-path="url(#SVGID_6_)" fill="#231F20" d="M1536.308,587.691c-0.187,0.372-0.372,0.743-0.558,1.115
		C1536.785,588.111,1536.055,588.308,1536.308,587.691"/>
	<path clip-path="url(#SVGID_6_)" fill="none" stroke="#FFFFFF" stroke-miterlimit="10" d="M1536.308,587.691
		c-0.187,0.372-0.372,0.743-0.558,1.115C1536.785,588.111,1536.055,588.308,1536.308,587.691z"/>
	<path clip-path="url(#SVGID_6_)" fill="#231F20" d="M1545.227,599.955c0.186,0.372,0.372,0.744,0.558,1.115
		c0.186-0.371,0.372-0.743,0.558-1.115H1545.227z"/>
	<path clip-path="url(#SVGID_6_)" fill="none" stroke="#FFFFFF" stroke-miterlimit="10" d="M1545.227,599.955
		c0.186,0.372,0.372,0.744,0.558,1.115c0.186-0.371,0.372-0.743,0.558-1.115H1545.227z"/>
	<path clip-path="url(#SVGID_6_)" fill="#231F20" d="M1554.146,659.602c0.776,1.072,0.057,0.334,1.115,1.115L1554.146,659.602z"/>
	<path clip-path="url(#SVGID_6_)" fill="none" stroke="#FFFFFF" stroke-miterlimit="10" d="M1554.146,659.602
		c0.776,1.072,0.057,0.334,1.115,1.115L1554.146,659.602z"/>
	<path clip-path="url(#SVGID_6_)" fill="#231F20" d="M1557.49,704.198v1.672c0.187-0.557,0.372-1.114,0.558-1.672H1557.49z"/>
	<path clip-path="url(#SVGID_6_)" fill="none" stroke="#FFFFFF" stroke-miterlimit="10" d="M1557.49,704.198v1.672
		c0.187-0.557,0.372-1.114,0.558-1.672H1557.49z"/>
	<path clip-path="url(#SVGID_6_)" fill="#231F20" d="M1561.95,733.743c0.186,0.558,0.372,1.115,0.558,1.672
		c1.139-1.003,0.394-0.008,1.115-1.672H1561.95z"/>
	<path clip-path="url(#SVGID_6_)" fill="none" stroke="#FFFFFF" stroke-miterlimit="10" d="M1561.95,733.743
		c0.186,0.558,0.372,1.115,0.558,1.672c1.139-1.003,0.394-0.008,1.115-1.672H1561.95z"/>
	<path clip-path="url(#SVGID_6_)" fill="#231F20" d="M1555.261,743.22v1.115V743.22z"/>
	<path clip-path="url(#SVGID_6_)" fill="none" stroke="#FFFFFF" stroke-miterlimit="10" d="M1555.261,743.22v1.115V743.22z"/>
	<path clip-path="url(#SVGID_6_)" fill="#231F20" d="M1555.818,757.156v1.672h1.115
		C1556.562,758.271,1556.189,757.713,1555.818,757.156"/>
	<path clip-path="url(#SVGID_6_)" fill="none" stroke="#FFFFFF" stroke-miterlimit="10" d="M1555.818,757.156v1.672h1.115
		C1556.562,758.271,1556.189,757.713,1555.818,757.156z"/>
	<path clip-path="url(#SVGID_6_)" fill="#231F20" d="M1561.393,780.569c0.941,1.382,0.335,0.651,1.673,0H1561.393z"/>
	<path clip-path="url(#SVGID_6_)" fill="none" stroke="#FFFFFF" stroke-miterlimit="10" d="M1561.393,780.569
		c0.941,1.382,0.335,0.651,1.673,0H1561.393z"/>
	<path clip-path="url(#SVGID_6_)" fill="#231F20" d="M1548.014,781.684v1.115V781.684z"/>
	<path clip-path="url(#SVGID_6_)" fill="none" stroke="#FFFFFF" stroke-miterlimit="10" d="M1548.014,781.684v1.115V781.684z"/>
	<path clip-path="url(#SVGID_6_)" fill="#231F20" d="M1556.934,783.356c0.371,0.186,0.743,0.371,1.114,0.557
		C1557.677,783.728,1557.305,783.542,1556.934,783.356"/>
	<path clip-path="url(#SVGID_6_)" fill="none" stroke="#FFFFFF" stroke-miterlimit="10" d="M1556.934,783.356
		c0.371,0.186,0.743,0.371,1.114,0.557C1557.677,783.728,1557.305,783.542,1556.934,783.356z"/>
	<path clip-path="url(#SVGID_6_)" fill="#231F20" d="M1546.342,796.178c0.371,0.558,0.743,1.114,1.114,1.672
		C1546.755,796.165,1547.467,797.183,1546.342,796.178"/>
	<path clip-path="url(#SVGID_6_)" fill="none" stroke="#FFFFFF" stroke-miterlimit="10" d="M1546.342,796.178
		c0.371,0.558,0.743,1.114,1.114,1.672C1546.755,796.165,1547.467,797.183,1546.342,796.178z"/>
	<path clip-path="url(#SVGID_6_)" fill="#231F20" d="M1560.835,802.867c-0.187,0.371-0.371,0.743-0.557,1.114
		c0.557-0.371,1.114-0.743,1.672-1.114H1560.835z"/>
	<path clip-path="url(#SVGID_6_)" fill="none" stroke="#FFFFFF" stroke-miterlimit="10" d="M1560.835,802.867
		c-0.187,0.371-0.371,0.743-0.557,1.114c0.557-0.371,1.114-0.743,1.672-1.114H1560.835z"/>
	<path clip-path="url(#SVGID_6_)" fill="#231F20" d="M1558.605,803.981c0.372,0.372,0.743,0.744,1.115,1.115
		C1559.349,804.726,1558.978,804.354,1558.605,803.981"/>
	<path clip-path="url(#SVGID_6_)" fill="none" stroke="#FFFFFF" stroke-miterlimit="10" d="M1558.605,803.981
		c0.372,0.372,0.743,0.744,1.115,1.115C1559.349,804.726,1558.978,804.354,1558.605,803.981z"/>
	<path clip-path="url(#SVGID_6_)" fill="#231F20" d="M1561.393,804.539v1.115V804.539z"/>
	<path clip-path="url(#SVGID_6_)" fill="none" stroke="#FFFFFF" stroke-miterlimit="10" d="M1561.393,804.539v1.115V804.539z"/>
	<path clip-path="url(#SVGID_6_)" fill="#231F20" d="M1559.721,807.326c0.508,2.035-0.021,1.141,1.114,2.23
		C1560.464,808.813,1560.092,808.069,1559.721,807.326"/>
	<path clip-path="url(#SVGID_6_)" fill="none" stroke="#FFFFFF" stroke-miterlimit="10" d="M1559.721,807.326
		c0.508,2.035-0.021,1.141,1.114,2.23C1560.464,808.813,1560.092,808.069,1559.721,807.326z"/>
	<path clip-path="url(#SVGID_6_)" fill="#231F20" d="M1556.376,817.918c0.371,0.743,0.743,1.486,1.114,2.229
		C1557.119,819.404,1556.747,818.661,1556.376,817.918"/>
	<path clip-path="url(#SVGID_6_)" fill="none" stroke="#FFFFFF" stroke-miterlimit="10" d="M1556.376,817.918
		c0.371,0.743,0.743,1.486,1.114,2.229C1557.119,819.404,1556.747,818.661,1556.376,817.918z"/>
	<path clip-path="url(#SVGID_6_)" fill="#231F20" d="M1549.687,820.705c0.371,0.743,0.743,1.487,1.114,2.23l0.558-0.558v-0.558
		C1550.802,821.448,1550.244,821.077,1549.687,820.705"/>
	<path clip-path="url(#SVGID_6_)" fill="none" stroke="#FFFFFF" stroke-miterlimit="10" d="M1549.687,820.705
		c0.371,0.743,0.743,1.487,1.114,2.23l0.558-0.558v-0.558C1550.802,821.448,1550.244,821.077,1549.687,820.705z"/>
	<path clip-path="url(#SVGID_6_)" fill="#231F20" d="M1574.214,824.607c0.372,0.186,0.743,0.372,1.115,0.558
		C1574.957,824.979,1574.586,824.793,1574.214,824.607"/>
	<path clip-path="url(#SVGID_6_)" fill="none" stroke="#FFFFFF" stroke-miterlimit="10" d="M1574.214,824.607
		c0.372,0.186,0.743,0.372,1.115,0.558C1574.957,824.979,1574.586,824.793,1574.214,824.607z"/>
	<path clip-path="url(#SVGID_6_)" fill="#231F20" d="M1566.41,836.871c0.371,0.188,0.743,0.372,1.114,0.558
		C1567.153,837.243,1566.781,837.059,1566.41,836.871"/>
	<path clip-path="url(#SVGID_6_)" fill="none" stroke="#FFFFFF" stroke-miterlimit="10" d="M1566.41,836.871
		c0.371,0.188,0.743,0.372,1.114,0.558C1567.153,837.243,1566.781,837.059,1566.41,836.871z"/>
	<path clip-path="url(#SVGID_6_)" fill="#231F20" d="M1566.968,840.216c0.186,0.372,0.371,0.743,0.557,1.115
		C1567.288,840.813,1567.972,840.954,1566.968,840.216"/>
	<path clip-path="url(#SVGID_6_)" fill="none" stroke="#FFFFFF" stroke-miterlimit="10" d="M1566.968,840.216
		c0.186,0.372,0.371,0.743,0.557,1.115C1567.288,840.813,1567.972,840.954,1566.968,840.216z"/>
	<path clip-path="url(#SVGID_6_)" fill="#231F20" d="M1556.376,841.889c0.371,0.186,0.743,0.371,1.114,0.558
		C1557.119,842.26,1556.747,842.074,1556.376,841.889"/>
	<path clip-path="url(#SVGID_6_)" fill="none" stroke="#FFFFFF" stroke-miterlimit="10" d="M1556.376,841.889
		c0.371,0.186,0.743,0.371,1.114,0.558C1557.119,842.26,1556.747,842.074,1556.376,841.889z"/>
	<path clip-path="url(#SVGID_6_)" fill="#231F20" d="M1569.197,843.561c0.371,0.187,0.743,0.372,1.115,0.558
		C1569.94,843.933,1569.568,843.747,1569.197,843.561"/>
	<path clip-path="url(#SVGID_6_)" fill="none" stroke="#FFFFFF" stroke-miterlimit="10" d="M1569.197,843.561
		c0.371,0.187,0.743,0.372,1.115,0.558C1569.94,843.933,1569.568,843.747,1569.197,843.561z"/>
	<path clip-path="url(#SVGID_6_)" fill="#231F20" d="M1553.031,848.021v1.115V848.021z"/>
	<path clip-path="url(#SVGID_6_)" fill="none" stroke="#FFFFFF" stroke-miterlimit="10" d="M1553.031,848.021v1.115V848.021z"/>
	<path clip-path="url(#SVGID_6_)" fill="#231F20" d="M1559.721,858.055c0.371,0.186,0.743,0.371,1.114,0.558
		C1560.464,858.426,1560.092,858.24,1559.721,858.055"/>
	<path clip-path="url(#SVGID_6_)" fill="none" stroke="#FFFFFF" stroke-miterlimit="10" d="M1559.721,858.055
		c0.371,0.186,0.743,0.371,1.114,0.558C1560.464,858.426,1560.092,858.24,1559.721,858.055z"/>
	<path clip-path="url(#SVGID_6_)" fill="#231F20" d="M1556.934,863.071v1.115V863.071z"/>
	<path clip-path="url(#SVGID_6_)" fill="none" stroke="#FFFFFF" stroke-miterlimit="10" d="M1556.934,863.071v1.115V863.071z"/>
	<path clip-path="url(#SVGID_6_)" fill="#231F20" d="M1568.64,868.089c1.004,1.138,0.009,0.394,1.673,1.114
		C1569.309,868.066,1570.304,868.81,1568.64,868.089"/>
	<path clip-path="url(#SVGID_6_)" fill="none" stroke="#FFFFFF" stroke-miterlimit="10" d="M1568.64,868.089
		c1.004,1.138,0.009,0.394,1.673,1.114C1569.309,868.066,1570.304,868.81,1568.64,868.089z"/>
	<path clip-path="url(#SVGID_6_)" fill="#231F20" d="M1553.031,881.468v1.114C1553.575,881.609,1553.54,882.46,1553.031,881.468"/>
	<path clip-path="url(#SVGID_6_)" fill="none" stroke="#FFFFFF" stroke-miterlimit="10" d="M1553.031,881.468v1.114
		C1553.575,881.609,1553.54,882.46,1553.031,881.468z"/>
	<path clip-path="url(#SVGID_6_)" fill="#231F20" d="M1559.163,895.403c-0.187,0.372-0.372,0.744-0.558,1.115h1.673
		c-0.187-0.371-0.372-0.743-0.558-1.115H1559.163z"/>
	<path clip-path="url(#SVGID_6_)" fill="none" stroke="#FFFFFF" stroke-miterlimit="10" d="M1559.163,895.403
		c-0.187,0.372-0.372,0.744-0.558,1.115h1.673c-0.187-0.371-0.372-0.743-0.558-1.115H1559.163z"/>
	<path clip-path="url(#SVGID_6_)" fill="#231F20" d="M1563.065,904.881v1.672h1.114
		C1563.809,905.995,1563.437,905.438,1563.065,904.881"/>
	<path clip-path="url(#SVGID_6_)" fill="none" stroke="#FFFFFF" stroke-miterlimit="10" d="M1563.065,904.881v1.672h1.114
		C1563.809,905.995,1563.437,905.438,1563.065,904.881z"/>
	<path clip-path="url(#SVGID_6_)" fill="#231F20" d="M1561.393,918.259v1.115C1561.938,918.401,1561.901,919.251,1561.393,918.259"
		/>
	<path clip-path="url(#SVGID_6_)" fill="none" stroke="#FFFFFF" stroke-miterlimit="10" d="M1561.393,918.259v1.115
		C1561.938,918.401,1561.901,919.251,1561.393,918.259z"/>
	<path clip-path="url(#SVGID_6_)" fill="#231F20" d="M1558.605,941.672c1.405,0.907,0.093,0.55,1.673,0H1558.605z"/>
	<path clip-path="url(#SVGID_6_)" fill="none" stroke="#FFFFFF" stroke-miterlimit="10" d="M1558.605,941.672
		c1.405,0.907,0.093,0.55,1.673,0H1558.605z"/>
	<path clip-path="url(#SVGID_6_)" fill="#231F20" d="M1561.95,955.608c0.372,0.186,0.743,0.372,1.115,0.558
		C1562.693,955.98,1562.322,955.794,1561.95,955.608"/>
	<path clip-path="url(#SVGID_6_)" fill="none" stroke="#FFFFFF" stroke-miterlimit="10" d="M1561.95,955.608
		c0.372,0.186,0.743,0.372,1.115,0.558C1562.693,955.98,1562.322,955.794,1561.95,955.608z"/>
	<path clip-path="url(#SVGID_6_)" fill="#231F20" d="M1558.605,979.579v1.114C1559.15,979.721,1559.114,980.571,1558.605,979.579"/>
	<path clip-path="url(#SVGID_6_)" fill="none" stroke="#FFFFFF" stroke-miterlimit="10" d="M1558.605,979.579v1.114
		C1559.15,979.721,1559.114,980.571,1558.605,979.579z"/>
	<path clip-path="url(#SVGID_6_)" fill="#231F20" d="M1545.227,1029.192c0.775,1.071,0.057,0.333,1.115,1.114
		C1545.97,1029.936,1545.599,1029.563,1545.227,1029.192"/>
	<path clip-path="url(#SVGID_6_)" fill="none" stroke="#FFFFFF" stroke-miterlimit="10" d="M1545.227,1029.192
		c0.775,1.071,0.057,0.333,1.115,1.114C1545.97,1029.936,1545.599,1029.563,1545.227,1029.192z"/>
	<path clip-path="url(#SVGID_6_)" fill="#231F20" d="M1546.899,1029.192c0.557,0.371,1.114,0.743,1.672,1.114
		C1547.567,1029.169,1548.563,1029.913,1546.899,1029.192"/>
	<path clip-path="url(#SVGID_6_)" fill="none" stroke="#FFFFFF" stroke-miterlimit="10" d="M1546.899,1029.192
		c0.557,0.371,1.114,0.743,1.672,1.114C1547.567,1029.169,1548.563,1029.913,1546.899,1029.192z"/>
	<path clip-path="url(#SVGID_6_)" fill="#A63437" d="M1988.4,795.718c2.038-3.612,4.845-14.165,2.229-20.068
		c-2.013-4.23-15.328-7.772-18.396-7.804v-7.247v-1.115c5.002,2.636,8.935,6.309,15.608,7.247c0.372-0.186,0.743-0.372,1.115-0.557
		c0.186-1.115,0.371-2.23,0.558-3.346c-4.424-2.882-13.725-9.371-17.839-6.689l-2.788-5.574c-4.328-2.497-6.919-0.011-13.378-1.115
		c-16.954-2.898-34.267-5.465-49.613-7.804c0.743-3.53,1.486-7.062,2.229-10.592c-1.115-8.175-2.229-16.353-3.344-24.528v-1.114
		c2.109-3.974,6.373-5.339,5.017-11.149s-8.959-16.188-6.689-24.527c1.096-4.024,4.237-3.82,4.46-10.034
		c-5.946,0.371-11.894,0.743-17.839,1.114c-0.372-0.556-0.743-1.114-1.115-1.672c19.589-2.358,37.558-0.616,55.745-4.46
		c0.372-0.371,0.744-0.743,1.115-1.115c-0.902-13.146-5.797-23.549-8.361-34.004c-5.326-21.709-3.395-43.06-10.592-64.664
		c-6.358-19.084-14.551-41.076-18.396-62.435c-0.186-9.662-0.371-19.326-0.557-28.987c-0.889-4.988-3.9-12.39-2.23-18.954
		c1.679-6.597,5.696-13.871,4.46-23.412c-1.161-8.959-9.36-22.61-6.689-34.562c1.485-3.345,2.974-6.69,4.46-10.035
		c2.121-10.566-0.758-20.118-2.23-28.987c-0.744-9.104-1.486-18.211-2.229-27.315c-4.043-19.983-12.226-34.756-22.298-48.498
		c-4.977-6.789-13.523-9.285-19.511-15.052c-5.292-5.097-6.443-11.264-16.166-12.263c-1.919-3.216-1.079-3.472,0-7.247
		c-3.827-5.472-8.528-14.061-15.052-16.724c-14.348,7.075-29.488,17.352-40.137,28.43h1.115
		c-5.547,3.387-22.053,20.185-28.43,20.626c2.242-17.17,36.77-41.961,50.728-49.613c4.569-2.505,12.629-1.812,17.28-5.017
		c6.08-4.189,1.878-9.143,5.018-15.609c0.912-1.877,4.312-3.456,5.018-6.132c1.399-5.302-2.126-9.042-0.558-14.494
		c-0.929-0.186-1.858-0.371-2.787-0.557c0.929-0.186,1.858-0.372,2.787-0.558c-1.121-8.963-3.381-30.903-7.247-37.907
		c-2.005-3.632-12.562-7.773-8.919-12.821c0.372-0.371,0.743-0.743,1.115-1.115c-1.804-2.047-2.588-4.062-5.018-5.574
		c-2.786,0.929-5.575,1.858-8.361,2.787c-1.126-4.382-2.358-7.114-7.805-8.362c0.743-1.114,1.487-2.23,2.229-3.344l-0.557-1.115
		c-8.586-1.167-15.548,0.78-22.855,1.115c-2.416-1.115-4.832-2.23-7.247-3.345c-5.255-1.61-13.339,2.445-17.281,3.902h-0.558
		c1.288-1.777,1.958-1.357,2.787-3.902c-11.82,0.007-14.236,8.581-20.067,14.494c-2.896-2.025-3.442-1.969-8.362-1.673
		c-2.561,3.395-7.142,10.591-7.805,15.052c-1.113,0.186-2.229,0.371-3.344,0.557c0.617,3.625,1.711,5.457,3.344,7.804
		c-2.332,8.973-7.376,22.638-11.706,31.218c-2.078,4.118,2.907,4.966,1.115,9.476c-2.659,6.691-8.729,10.92-11.707,18.396
		c2.316,3.939,3.291,6.562,8.92,7.247c0.371,0.557,0.743,1.115,1.114,1.672c-1.857,0.743-3.717,1.487-5.574,2.23
		c-3.259,2.338-4.193,8.075-3.902,13.936c2.229,2.973,4.459,5.947,6.689,8.92c0.762,1.489,0.066,0.338,1.673,0
		c1.051,3.123,0.651,4.013,0,7.247c1.114,0.185,2.229,0.371,3.345,0.557c-1.137,5.823-18.924,23.326-5.575,27.872
		c1.11-2.041-0.263-0.943,2.23-1.672c0.591,4.572,3.798,9.532,6.132,13.936c0.557,0.186,1.115,0.372,1.672,0.558
		c5.466-3.995,12.774-5.694,16.724-11.149c0.743-2.601,1.487-5.203,2.229-7.805c1.859-2.914,6.508-3.256,8.362-6.689
		c4.459,0.372,8.92,0.743,13.379,1.115v1.115c0.371,1.115,0.743,2.23,1.114,3.345c-0.186,0.557-0.371,1.114-0.557,1.672
		c-3.94,2.58-8.287,0.461-13.379,1.672c-3.53,3.159-7.062,6.318-10.592,9.477c0.582,7.147,0.096,6.07-3.345,10.591
		c0.997,3.792,3.026,5.694,5.017,8.362c-3.511,6.008-10.685,7.696-15.608,12.264c0.491,3.322,1.575,4.759,3.345,6.69
		c-2.044,11.559-14.681,19.556-18.953,29.545c-8.826,20.636-6.188,48.176-15.609,66.336c-2.491,4.803-7.637,4.068-11.707,7.247
		c-2.785,4.645-5.573,9.291-8.36,13.936c-3.698,4.757-9.714,7.854-15.052,11.149c-2.973,4.831-5.946,9.663-8.92,14.494
		c-2.826,3.943-6.826,5.553-10.033,8.919c-2.043,4.274-4.088,8.548-6.133,12.822c-2.16,3.177-3.555,0.363-6.688,1.672
		c-3.147,1.315-18.741,20.235-18.953,25.085c4.054,5.683,25.015,25.684,23.972,29.545l4.459,1.115v0.558
		c-1.301,0.743-2.603,1.486-3.902,2.23c-4.226-0.361-7.128-1.927-9.481-4.006c0.002,0.002,0.003,0.003,0.004,0.006
		c-0.006-0.007-0.013-0.014-0.019-0.02c-1.919-1.699-3.475-3.737-5.076-5.747c0.025,0.062,0.049,0.121,0.078,0.192h-1.115v-1.471
		c-1.598-1.927-3.328-3.749-5.574-5.12c-0.186,0.185-0.373,0.371-0.558,0.557c1.991,2.532,5.894,5.307,3.902,10.034
		c-1.406,2.017-1.841,0.581-4.46,1.672c-2.408,1.319-2.793,2.84-2.787,5.017c-2.518-0.21-2.398-0.031-4.459,1.115
		c-0.744-1.3-1.487-2.601-2.23-3.902c-2.111,1.344-1.383,1.557-1.115,5.017c-2.596-0.196-1.467-1.096-2.787,1.115
		c-2.714-1.108-4.464-3.338-5.574-6.132h-1.672c0.186,1.487,0.371,2.973,0.557,4.46c-1.994-0.017-1.41-0.419-4.459,0
		c-0.186-1.487-0.372-2.973-0.558-4.46c-2.742,1.239-2.277,0.989-1.115,3.345c-0.929,0.557-1.858,1.115-2.787,1.672l-2.229-2.787
		l-1.673,2.787c0.93,0.929,1.858,1.858,2.788,2.787c3.901-0.557,7.805-1.115,11.706-1.672c0.186,0.186,0.372,0.372,0.558,0.557
		v1.673c-5.767,1.825-10.238-0.627-17.281,1.115c-7.602,1.88-10.107,8.129-18.953,8.362c-2.465-3.136-4.069-4.303-3.345-9.477
		c3.208-1.419,3.419-4.495,6.689-6.132c1.1-0.89,0.761-0.756,2.787-1.115c0.929,1.672,1.858,3.345,2.787,5.017
		c0.743,0.186,1.486,0.372,2.229,0.557c-0.743-2.415-1.486-4.831-2.229-7.246c2.821-0.178,6.496-2.554,11.706-2.787
		c0.744-1.858,1.487-3.717,2.23-5.575v-0.558h-3.345c-0.372-1.486-0.743-2.973-1.115-4.459l-1.114-0.557h-0.558
		c-0.015,4.344,0.675,6.464,2.229,8.919c-5.202,0.371-10.406,0.743-15.608,1.114c-0.187-0.371-0.372-0.743-0.558-1.114
		c0.816-5.361,4.115-8.424,5.574-14.494c10.96-3.111,24.33-4.646,36.792-5.017c3.138,3.146,4.615,6.829,8.362,9.476h0.557
		c-2.229-3.715-4.459-7.433-6.689-11.149c1.486-0.929,2.973-1.858,4.46-2.787v-1.672c-4.878,0.925-10.12,3.859-13.937,5.017
		c-3.344-0.186-6.689-0.372-10.034-0.558c-7.899,1.042-15.278,3.142-21.74,5.018c-1.928,6.271-7.406,12.86-4.46,17.838
		c-12.353,3.076-33.37,5.666-42.924,15.051c-0.41,4.092,19.905,41.601,23.413,48.498c7.821,15.381,9.927,55.952,12.821,79.716
		c2.765,22.688,1.873,56.227-3.345,79.716c-1.925,8.668-5.579,20.761-3.901,30.659c1.612,9.521,3.67,17.115,7.246,23.971
		c-1.293,1.499-1.82,25.627-1.114,29.545c1.446,8.042,6.843,14.522,6.132,24.527c-2.061,28.98-2.023,55.64-6.689,83.618
		c-2.841,17.032-0.584,30.195-3.902,46.269c-2.415,11.147-4.832,22.299-7.247,33.446c-0.558,0.372-1.114,0.744-1.672,1.115
		c-5.76-7.246-11.521-14.494-17.281-21.74c-0.372,1.301-0.743,2.602-1.115,3.902l-4.459-3.902c-0.558,0.557-1.115,1.115-1.673,1.672
		c4.831,6.689,9.663,13.38,14.494,20.068c3.967,1.849,7.636,0.962,9.477,4.46v5.017c3.596,2.038,11.594,0.684,16.724,1.673
		c0.159-22.001,11.066-52.86,16.724-73.026c1.938-6.907-0.192-11.87,1.672-18.953c5.794-22.012,8.569-59.668,10.034-84.176
		c18.825-3.782,20.444,32.261,17.281,50.729c-8.361,48.809-11.764,121.154-0.558,170.58c2.021,8.912,1.037,20.186,3.902,27.873
		c5.718,0.962,11.503-1.777,15.608-2.23c4.698-4.945-1.056-34.692-1.114-45.711c-0.191-35.447-0.168-64.559,3.9-94.209
		c0.668-4.854-1.564-11.136,1.116-16.166c2.317-3.351,57.895-7.41,68.566-3.902c3.769,4.184,1.157,14.958,2.229,21.741
		c2.162,13.666,1.014,31.682,6.133,44.596c2.83,0.721,9.379,1.442,12.264,0.558c5.588-6.247,2.416-60.72,3.345-68.567
		c25.633-1.746,45.985-7.836,69.124-13.378c10.432-2.499,19.922-1.799,27.872-5.575l1.115,1.116
		c0.186,8.174,0.371,16.352,0.558,24.526c-0.187,5.017-0.372,10.035-0.558,15.052c1.114,13.377,2.229,26.759,3.345,40.137v26.758
		c-5.166,3.821-13.109,2.975-15.609,9.477c6.817-1.541,7.988-2.461,15.609-3.902c0.781,1.059,0.043,0.339,1.114,1.114
		c-5.265,17.928-40.474,33.772-39.021,50.171c-2.601,0.371-5.203,0.743-7.804,1.115c-0.743,1.114-1.487,2.229-2.23,3.346
		c0.558,0.928,1.115,1.857,1.673,2.786c16.823,6.269,70.565,2.264,81.388-4.46c6.007-3.731,6.877-8.246,10.592-14.493
		c5.502-9.256,17.968-6.544,28.987-7.247c3.06-4.637,5.536-10.355,6.689-15.608c-0.187-1.487-0.372-2.974-0.558-4.46
		c1.192-2.835,5.972-4.18,7.247-7.805c4.188-11.903,0.538-30.263,2.229-41.809c5.834-39.827,14.269-94.732,4.459-136.018
		c-2.837-11.942,0.041-23.476-2.787-34.005c0.371-0.372,0.744-0.743,1.115-1.115c1.374,4.772,6.227,9.942,11.707,10.592
		c3.488-5.254,7.959-11.873,12.264-16.724c8.518,7.389,13.61,19.448,20.626,28.43c-0.187,0.93-0.372,1.858-0.558,2.788
		c1.988,8.197-1.874,16.585,0.558,25.085c1.3,3.901,2.602,7.805,3.901,11.706c3.409,2.042,3.797,1.065,7.247-0.557
		c-0.558,1.114-1.115,2.229-1.672,3.345c0.557,0.743,1.114,1.486,1.672,2.229c0.929-0.186,1.858-0.372,2.788-0.558
		c7.209-6.942,23.479-59.608,20.625-75.256c-1.954-10.72-4.506-21.231-3.345-32.332
		C1983.568,796.09,1985.985,795.903,1988.4,795.718 M1933.213,613.334c-1.13-0.761-0.908-0.615-1.673-1.673
		C1932.588,612.437,1932.457,612.188,1933.213,613.334 M1929.868,629.5c0.371,0.186,0.743,0.371,1.114,0.557v0.558
		c-0.371,0.188-0.743,0.372-1.114,0.558c-0.187-0.37-0.372-0.743-0.558-1.115C1929.496,629.871,1929.682,629.686,1929.868,629.5
		 M1925.966,625.04h1.673C1926.059,625.59,1927.371,625.947,1925.966,625.04 M1927.081,587.133
		c-1.664-0.721-0.669,0.023-1.673-1.115C1927.072,586.739,1926.077,585.995,1927.081,587.133 M1925.966,594.38h1.115l-1.673,1.115
		C1925.594,595.124,1925.78,594.752,1925.966,594.38 M1918.719,537.521c-1.664-0.721-0.668,0.023-1.672-1.115
		C1918.711,537.126,1917.715,536.382,1918.719,537.521 M1905.897,507.418c-0.372-0.372-0.743-0.744-1.114-1.116
		C1905.841,507.084,1905.121,506.346,1905.897,507.418 M1904.783,465.609c-0.188,0.371-0.372,0.743-0.559,1.114
		c-0.186-0.371-0.371-0.743-0.557-1.114H1904.783z M1612.121,507.976v-1.115C1612.629,507.853,1612.665,507.002,1612.121,507.976
		 M1694.623,556.473c-0.186-0.371-0.371-0.743-0.557-1.115C1695.07,556.096,1694.387,555.957,1694.623,556.473 M1695.738,846.348
		c-1.337,0.652-0.73,1.383-1.672,0H1695.738z M1694.623,894.847c-1.337,0.651-0.73,1.382-1.672,0H1694.623z M1684.59,495.711
		c0.508,0.992,0.544,0.142,0,1.115V495.711z M1657.832,515.779c-1.13-0.76-0.907-0.615-1.673-1.672
		C1656.717,514.664,1657.274,515.222,1657.832,515.779 M1647.798,461.149c0.371,0.557,0.743,1.115,1.114,1.672h-1.114V461.149z
		 M1644.453,529.158c11.008-12.595,29.796-17.033,39.579-31.217h2.229c1.115,12.82,2.23,25.644,3.345,38.464
		c-0.186,0.186-0.372,0.372-0.558,0.558c-13.564-1.518-31.852-7.123-44.596-7.247V529.158z M1686.819,756.599
		c-0.186-0.372-0.372-0.743-0.558-1.115C1687.266,756.222,1686.583,756.081,1686.819,756.599 M1686.262,567.622
		c-0.371-0.371-0.743-0.743-1.115-1.114c0.187-0.187,0.372-0.373,0.558-0.558c0.558,0.185,1.115,0.371,1.673,0.558
		C1687.005,566.879,1686.634,567.251,1686.262,567.622 M1683.475,701.969c-0.186-0.372-0.371-0.744-0.558-1.115
		C1683.922,701.593,1683.238,701.451,1683.475,701.969 M1681.245,869.761h-0.558c-0.186-0.743-0.372-1.486-0.558-2.229
		C1681.266,868.621,1680.736,867.726,1681.245,869.761 M1679.572,749.909c-0.186-0.372-0.371-0.743-0.559-1.115
		C1680.02,749.532,1679.336,749.392,1679.572,749.909 M1676.228,539.75c0.187-0.372,0.372-0.743,0.558-1.115
		C1676.533,539.252,1677.262,539.055,1676.228,539.75 M1672.325,584.346c-1.058-0.781-0.339-0.044-1.114-1.115
		C1671.582,583.603,1671.954,583.974,1672.325,584.346 M1645.011,711.445c0.558,0.371,1.114,0.743,1.671,1.114v0.558
		c-0.742-0.186-1.485-0.371-2.229-0.558C1644.639,712.188,1644.824,711.816,1645.011,711.445 M1643.896,535.847
		c-0.186,0.372-0.372,0.744-0.558,1.116c-0.186-0.372-0.371-0.744-0.558-1.116H1643.896z M1636.092,473.413
		c-0.187-0.372-0.371-0.743-0.558-1.115C1636.538,473.036,1635.855,472.896,1636.092,473.413 M1626.057,549.784h1.115v1.672h-0.558
		c-0.371-0.371-0.743-0.743-1.114-1.114C1625.686,550.155,1625.871,549.969,1626.057,549.784 M1612.121,549.784l0.557,2.229h-0.557
		V549.784z M1603.759,543.652c-0.186-0.372-0.372-0.744-0.558-1.115C1604.206,543.275,1603.522,543.134,1603.759,543.652
		 M1577.559,827.395c0.371,0.372,0.744,0.743,1.115,1.115C1577.615,827.729,1578.335,828.468,1577.559,827.395 M1582.019,853.595
		l-1.115,1.115c-0.186-0.186-0.371-0.372-0.558-0.558c0.187-0.371,0.372-0.743,0.558-1.115h1.115V853.595z M1581.461,781.684
		c0.186-0.371,0.372-0.743,0.558-1.115h1.115C1582.128,781.694,1583.146,780.981,1581.461,781.684 M1585.363,862.514
		c1.059,0.781,0.339,0.044,1.115,1.115C1586.106,863.259,1585.734,862.886,1585.363,862.514 M1567.524,790.603
		c-0.558,0.372-1.114,0.744-1.672,1.115c-4.183-16.671,0.325-39.44,1.672-56.86c8.929-2.521,59.415-10.818,63.55-15.051
		c0.371,0.372,0.743,0.744,1.115,1.115c-0.461,1.553-0.293,0.955,0.557,2.229c5.975-2.476,38.559-1.299,44.039,1.673h1.115
		c1.19,8.104-6.465,20.381-8.362,28.987c0.187,4.645,0.372,9.291,0.558,13.936C1644.812,761.513,1579.997,770.709,1567.524,790.603
		 M1672.883,845.233c-1.337,0.651-0.73,1.382-1.672,0H1672.883z M1661.734,841.331c-1.664-0.721-0.669,0.023-1.673-1.114
		C1660.619,840.588,1661.177,840.959,1661.734,841.331 M1653.372,774.437c-0.77,0.932-1.27,0.987-2.229,1.673l-1.115-1.115
		c0.186-0.186,0.372-0.371,0.558-0.558H1653.372z M1631.632,786.144c-0.187-0.372-0.372-0.743-0.558-1.115
		C1632.078,785.767,1631.396,785.626,1631.632,786.144 M1626.057,868.646c-0.186-0.372-0.371-0.744-0.557-1.115
		C1626.504,868.27,1625.82,868.129,1626.057,868.646 M1621.598,910.455c-0.558,0.558-1.115,1.115-1.673,1.672
		c0.187-1.114,0.372-2.229,0.558-3.345C1620.854,909.34,1621.226,909.897,1621.598,910.455 M1606.547,776.109
		c0.557,0.371,1.114,0.743,1.672,1.115C1606.214,777.369,1607.586,777.83,1606.547,776.109 M1607.104,780.568
		c-0.371,0.744-0.743,1.487-1.114,2.23c0.186-0.743,0.371-1.486,0.558-2.23H1607.104z M1599.3,946.132
		c-0.187-0.372-0.372-0.743-0.558-1.115C1599.746,945.755,1599.063,945.614,1599.3,946.132 M1598.185,926.621
		c-0.186-0.372-0.372-0.743-0.558-1.115C1598.632,926.244,1597.948,926.104,1598.185,926.621 M1598.185,830.739
		c1.005,0.738,0.321,0.598,0.558,1.115C1598.557,831.482,1598.37,831.111,1598.185,830.739 M1596.512,936.098
		c1.125,1.006,0.413-0.013,1.115,1.672h-1.115V936.098z M1597.069,1016.928c-0.186-0.371-0.371-0.743-0.558-1.114
		c1.059-0.781,0.34-0.044,1.115-1.115c0.558,0.372,1.115,0.743,1.673,1.115c-0.187,0.371-0.372,0.743-0.558,1.114H1597.069z
		 M1599.3,1060.409v-1.114C1599.809,1060.286,1599.844,1059.437,1599.3,1060.409 M1603.201,1025.29
		c0.372,0.371,0.744,0.743,1.115,1.114C1603.258,1025.623,1603.978,1026.361,1603.201,1025.29 M1604.874,908.782v-2.229
		c0.186,0.743,0.372,1.486,0.558,2.229H1604.874z M1604.874,900.421c-0.186-0.372-0.372-0.743-0.558-1.115
		C1605.321,900.044,1604.637,899.903,1604.874,900.421 M1605.989,996.859c0.186-0.557,0.371-1.114,0.558-1.672
		C1607.005,996.56,1606.753,995.664,1605.989,996.859 M1607.104,967.872c-0.186-0.371-0.371-0.743-0.557-1.113
		C1607.551,967.496,1606.867,967.354,1607.104,967.872 M1609.891,1061.524c0.187-0.557,0.371-1.115,0.558-1.673
		C1610.537,1061.312,1611.055,1060.25,1609.891,1061.524 M1612.121,873.105c-0.186-0.371-0.372-0.743-0.558-1.114
		C1612.568,872.729,1611.885,872.588,1612.121,873.105 M1613.793,917.145v-1.115
		C1614.302,917.021,1614.338,916.172,1613.793,917.145 M1612.678,865.858c-0.371,0.372-0.742,0.744-1.114,1.115
		c-2.42-2.486-8.078-11.307-7.805-13.937c4.071,0.951,9.15,4.657,11.149,7.806C1616.185,863.565,1614.932,864.908,1612.678,865.858
		 M1616.023,840.773c0.371,0.186,0.742,0.372,1.113,0.558c-0.371,0.371-0.742,0.743-1.113,1.115V840.773z M1616.58,912.127
		c0.186-0.371,0.372-0.742,0.557-1.114h1.116C1619.311,912.569,1618.196,911.831,1616.58,912.127 M1617.137,915.472
		c1.665,0.722,0.67-0.023,1.674,1.115C1618.253,916.215,1617.695,915.844,1617.137,915.472 M1629.959,946.132
		c-0.186-0.372-0.371-0.743-0.557-1.115h1.113C1630.331,945.389,1630.145,945.76,1629.959,946.132 M1636.092,941.672
		c0.371-0.186,0.742-0.371,1.114-0.557C1638.41,941.438,1636.092,941.672,1636.092,941.672 M1690.164,886.484
		c-3.885,14.614-1.169,30.423-1.672,46.826c-19.05,9.698-47.817,3.027-66.895,10.034h-1.673c1.487-16.908,2.974-33.82,4.46-50.729
		c-0.186-7.06-0.371-14.122-0.558-21.183c0.891,1.1,0.757,0.761,1.115,2.787c5.778,3.266,55.845-1.14,65.778-2.229v1.114
		C1690.721,873.105,1691.132,882.844,1690.164,886.484 M1693.509,773.879c-1.663-0.721-0.669,0.024-1.673-1.114
		C1693.5,773.485,1692.505,772.741,1693.509,773.879 M1694.066,899.863c0.743,0.186,1.486,0.372,2.229,0.558v1.115
		c-0.372,0.557-0.743,1.114-1.114,1.672h-2.23c-0.186-0.558-0.371-1.115-0.558-1.672L1694.066,899.863z M1694.066,919.374v-1.114
		C1694.574,919.251,1694.61,918.401,1694.066,919.374 M1693.509,987.94c0.372,0.372,0.743,0.743,1.114,1.115v1.672h-1.672
		C1693.137,989.799,1693.323,988.869,1693.509,987.94 M1695.738,926.063c-0.186-0.371-0.371-0.743-0.557-1.115
		C1696.186,925.687,1695.502,925.546,1695.738,926.063 M1696.296,1007.451h1.673
		C1696.631,1008.104,1697.237,1008.834,1696.296,1007.451 M1697.969,971.774c1.125,1.006,0.412-0.013,1.114,1.673
		C1698.712,972.89,1698.34,972.332,1697.969,971.774 M1699.641,934.982c-0.186-0.371-0.371-0.743-0.558-1.114
		C1700.088,934.606,1699.404,934.465,1699.641,934.982 M1701.87,998.532c-0.186-0.372-0.371-0.743-0.558-1.115
		C1702.317,998.155,1701.634,998.015,1701.87,998.532 M1707.445,725.381c0.186-0.371,0.371-0.743,0.557-1.114
		c0.372,0.371,0.744,0.743,1.115,1.114H1707.445z M1706.887,543.094v-0.557c0.559-0.186,1.115-0.372,1.673-0.558
		C1710.516,541.514,1708.553,542.868,1706.887,543.094 M1816.148,573.197c-0.187,0.371-0.372,0.743-0.558,1.115
		c-0.187-0.372-0.372-0.744-0.558-1.115H1816.148z M1813.918,934.982v-1.672h0.557
		C1814.29,933.868,1814.104,934.427,1813.918,934.982 M1814.475,896.519h1.116v2.787h-0.558
		C1814.848,898.377,1814.661,897.447,1814.475,896.519 M1802.77,730.398c-0.187,0.371-0.372,0.743-0.558,1.114
		c-0.187-0.371-0.372-0.743-0.558-1.114H1802.77z M1798.31,700.854c0.186,0.371,0.372,0.743,0.558,1.115h-1.115
		C1797.938,701.597,1798.124,701.225,1798.31,700.854 M1798.31,715.347c-0.372-0.371-0.743-0.743-1.115-1.114
		C1798.253,715.014,1797.533,714.275,1798.31,715.347 M1796.637,555.917l-0.557-1.115
		C1797.084,555.539,1796.4,555.398,1796.637,555.917 M1794.965,723.709c0.558,0.186,1.115,0.371,1.672,0.558
		c2.366,1.54,2.894,3.379,1.673,5.575c-1.61,1.794-5.735,1.931-8.362,0.557h-1.114v-0.557
		C1790.519,727.145,1793.036,726.109,1794.965,723.709 M1788.275,563.72h1.115c-0.187,0.372-0.372,0.744-0.558,1.115
		C1788.646,564.464,1788.461,564.092,1788.275,563.72 M1791.62,709.772c-0.186,0.372-0.372,0.743-0.558,1.115
		c-0.186-0.372-0.371-0.743-0.558-1.115H1791.62z M1767.092,536.963c3.783,1.672,24.636,20.512,25.644,23.97
		c-16.384-0.768-16.987-17.848-32.89-20.069C1763.012,539.369,1764.823,539.081,1767.092,536.963 M1787.718,842.446v0.557
		c-0.372,0.187-0.743,0.372-1.114,0.558c-0.187-0.371-0.372-0.743-0.558-1.114c0.186-0.187,0.371-0.372,0.558-0.558
		C1786.975,842.074,1787.346,842.26,1787.718,842.446 M1782.701,559.26c-0.743,0.372-1.486,0.744-2.23,1.115
		c0.187-0.371,0.372-0.743,0.558-1.115H1782.701z M1757.059,533.618c-2.014-0.392-1.682-0.222-2.788-1.115
		C1756.283,532.895,1755.952,532.726,1757.059,533.618 M1744.236,539.75c11.359,0.746,17.846,1.735,25.086,7.247
		c3.989,3.036,4.339,7.145,10.034,8.919c0.371,0.557,0.743,1.115,1.114,1.672c-0.186,0.743-0.371,1.487-0.557,2.23
		c-8.686,1.342-19.527,0.956-29.545-1.115c-2.416-0.557-4.832-1.115-7.247-1.673c-4.496,1.083-10.024,5.744-14.494,5.575
		c-0.371,0.558-0.743,1.115-1.114,1.673c0.742,1.486,1.486,2.973,2.229,4.459c-2.155,1.869-3.493,1.146-4.46,4.46h-3.345
		c-0.186-0.372-0.371-0.744-0.558-1.115c1.657-4.815,0.979-10.378-0.557-15.609C1727.596,549.686,1738.06,547.197,1744.236,539.75
		 M1777.126,563.163c0.187-0.372,0.372-0.744,0.558-1.115c0.186,0.371,0.371,0.743,0.558,1.115H1777.126z M1770.994,855.824
		l-1.114-1.114C1770.938,855.491,1770.219,854.753,1770.994,855.824 M1764.305,745.449c-1.058-0.781-0.338-0.043-1.114-1.114
		L1764.305,745.449z M1760.96,727.611c-0.371-0.372-0.743-0.744-1.114-1.115C1760.903,727.277,1760.184,726.539,1760.96,727.611
		 M1749.812,575.984c-1.664-0.721-0.669,0.024-1.673-1.115C1749.803,575.59,1748.807,574.845,1749.812,575.984 M1743.122,788.373
		c-1.664-0.721-0.669,0.023-1.673-1.114C1743.113,787.979,1742.118,787.234,1743.122,788.373 M1733.646,581.559h-1.673
		c0.186-0.371,0.373-0.743,0.558-1.114h0.558C1733.273,580.815,1733.459,581.188,1733.646,581.559 M1721.381,531.946
		c-1.062-0.844-1.006-0.987-1.672-2.23C1720.266,530.459,1720.824,531.202,1721.381,531.946 M1721.381,852.48
		c-1.337,0.652-0.73,1.382-1.672,0H1721.381z M1716.364,540.864c-0.185,0.372-0.372,0.744-0.558,1.115
		c-0.186-0.371-0.371-0.743-0.558-1.115H1716.364z M1713.577,549.784c0.371,0.185,0.743,0.371,1.114,0.558
		c-0.371,0.371-0.743,0.743-1.114,1.114V549.784z M1716.922,567.065c0.743,0.186,1.486,0.371,2.229,0.557v6.132
		c-1.858,0.558-3.717,1.115-5.574,1.672c-0.187-0.743-0.372-1.486-0.558-2.229C1714.32,571.153,1715.621,569.109,1716.922,567.065
		 M1713.02,861.957c1.136,1.09,0.606,0.194,1.115,2.229h-1.115V861.957z M1712.462,936.098c0.558,0.372,1.115,0.744,1.673,1.115
		C1712.471,936.491,1713.466,937.236,1712.462,936.098 M1762.075,934.427c0.186-0.373,0.372-0.745,0.558-1.116
		C1762.693,934.437,1763.223,933.939,1762.075,934.427 M1765.978,933.868h-0.558c-0.371-0.372-0.743-0.743-1.115-1.115
		c0.372-0.37,0.744-0.743,1.115-1.115h1.115C1766.348,932.381,1766.163,933.125,1765.978,933.868 M1811.688,923.834
		c0.186-0.372,0.372-0.742,0.558-1.115C1812.535,923.932,1812.688,923.088,1811.688,923.834 M1810.016,917.145
		c-9.404,1.121-24.199,5.235-34.004,7.247c-21.182,2.043-42.369,4.088-63.55,6.132h-0.558c-2.902-10.514,1.504-60.06,5.018-62.435
		c4.297-2.117,12.158,0.453,16.724-0.558c12.291-2.723,67.895-1.772,75.256-8.361c2.044,0.557,4.088,1.114,6.132,1.673
		C1813.361,879.607,1811.688,898.379,1810.016,917.145 M1813.918,1028.077v-1.673h2.23l0.557,1.673v0.558h-1.672
		C1814.661,1028.449,1814.29,1028.263,1813.918,1028.077 M1820.05,1042.014h-2.229c-0.371-0.186-0.743-0.372-1.115-0.558
		c0.186-0.372,0.372-0.743,0.557-1.114c2.014,0.391,1.682,0.222,2.788,1.114V1042.014z M1820.05,957.838v-1.672
		c0.372,0.371,0.743,0.743,1.115,1.115C1820.793,957.468,1820.422,957.652,1820.05,957.838 M1822.28,853.595
		c-0.187-0.929-0.372-1.858-0.558-2.787c0.371,0.929,0.743,1.858,1.115,2.787H1822.28z M1825.625,921.047
		c-0.187-0.371-0.372-0.744-0.558-1.115C1826.071,920.67,1825.389,920.529,1825.625,921.047 M1826.739,920.489
		c1.664,0.721,0.669-0.022,1.673,1.114C1827.854,921.232,1827.297,920.86,1826.739,920.489 M1839.004,737.646
		c-0.372-0.558-0.744-1.115-1.115-1.673C1839.014,736.979,1838.302,735.96,1839.004,737.646 M1830.641,1065.983
		c1.715-2.923,3.284-3.942,5.575-6.132l-2.229-3.902c2.973,0.558,5.945,1.115,8.919,1.673
		C1841.508,1060.719,1833.747,1064.701,1830.641,1065.983 M1854.055,1059.852c-0.186-0.371-0.373-0.743-0.558-1.114
		C1854.502,1059.475,1853.818,1059.334,1854.055,1059.852 M1861.302,641.206c-0.187-0.372-0.372-0.743-0.558-1.114
		C1861.748,640.829,1861.065,640.688,1861.302,641.206 M1872.45,1072.115c0.187-0.557,0.372-1.114,0.558-1.672h0.558
		C1872.845,1072.107,1873.589,1071.112,1872.45,1072.115 M1878.582,733.186c0.557,0.186,1.115,0.371,1.673,0.558v0.558h-2.229
		C1878.211,733.929,1878.396,733.557,1878.582,733.186 M1878.025,1058.18v-0.558c0.743-0.372,1.486-0.743,2.229-1.115
		c0.558,0.187,1.115,0.372,1.673,0.558C1880.716,1058.033,1880.43,1058.063,1878.025,1058.18 M1898.65,708.657l-1.114-1.114
		C1898.594,708.324,1897.875,707.586,1898.65,708.657 M1900.881,707.543c-0.372,0.186-0.744,0.371-1.115,0.558
		c-0.186-0.558-0.371-1.115-0.558-1.673C1899.766,706.801,1900.323,707.171,1900.881,707.543 M1896.421,694.164h1.673
		c0.371,1.857,0.743,3.717,1.114,5.574c-1.301-0.371-2.602-0.743-3.903-1.115C1895.678,697.137,1896.049,695.65,1896.421,694.164
		 M1893.076,694.722c0.371,0.371,0.743,0.743,1.115,1.114C1893.133,695.055,1893.853,695.793,1893.076,694.722 M1889.731,698.066
		c-1.664-0.722-0.669,0.023-1.673-1.115C1888.616,697.322,1889.174,697.694,1889.731,698.066 M1886.944,1006.337
		c0.186-0.372,0.372-0.743,0.558-1.115c0.186,0.372,0.371,0.743,0.557,1.115H1886.944z M1886.944,956.724
		c0.372-0.558,0.743-1.115,1.114-1.673h1.115c-0.371,0.743-0.744,1.487-1.115,2.23
		C1887.688,957.095,1887.316,956.909,1886.944,956.724 M1888.616,1007.451c0.187-0.557,0.372-1.115,0.558-1.672
		C1889.632,1007.15,1889.381,1006.256,1888.616,1007.451 M1889.731,822.378c1.059,0.781,0.339,0.043,1.114,1.114
		C1890.475,823.121,1890.104,822.749,1889.731,822.378 M1892.519,693.606c-1.094-1.449-0.544-0.522-0.558-2.229
		c0.372,0.186,0.744,0.371,1.115,0.558C1892.891,692.491,1892.705,693.049,1892.519,693.606 M1895.305,815.688v-1.673
		c1.127,1.006,0.414-0.013,1.116,1.673H1895.305z M1898.65,986.269c0.372,0.371,0.744,0.743,1.115,1.115
		C1898.707,986.602,1899.427,987.34,1898.65,986.269 M1901.438,938.327c-0.742-0.186-1.486-0.371-2.229-0.558
		c0.187-0.371,0.372-0.743,0.558-1.114h1.672V938.327z M1902.553,692.491h-1.672v-1.672c0.557,0.371,1.114,0.743,1.672,1.115
		V692.491z M1905.897,749.352c-1.059-0.781-0.339-0.043-1.114-1.115C1905.154,748.608,1905.525,748.98,1905.897,749.352
		 M1904.225,753.812c0.187-1.301,0.371-2.602,0.559-3.902c0.186,1.114,0.371,2.229,0.557,3.345
		C1904.969,753.439,1904.596,753.625,1904.225,753.812 M1906.455,808.441c-0.186-0.371-0.372-0.743-0.558-1.115
		C1906.902,808.064,1906.219,807.924,1906.455,808.441 M1907.57,835.758c-0.372-0.559-0.744-1.116-1.115-1.674
		c0.743,0.186,1.486,0.372,2.229,0.558C1908.313,835.014,1907.941,835.385,1907.57,835.758 M1953.281,758.271
		c1.044,1.61,0.719,0.406,0,2.23v1.114c-0.372-0.371-0.744-0.743-1.115-1.114C1952.537,759.759,1952.909,759.014,1953.281,758.271
		 M1918.161,767.19c0.372,0.371,0.743,0.743,1.115,1.114C1918.218,767.523,1918.938,768.262,1918.161,767.19 M1924.85,764.96
		c-0.185-0.371-0.37-0.742-0.557-1.114h1.115C1925.223,764.218,1925.037,764.589,1924.85,764.96 M1924.293,761.615v-1.672
		c0.372,0.186,0.744,0.371,1.115,0.558C1925.037,760.872,1924.665,761.244,1924.293,761.615 M1928.753,824.051
		c1.059,0.78,0.339,0.042,1.115,1.114L1928.753,824.051z M1925.966,751.023v-2.229c3.062,0.2,4.515,0.715,6.132,2.229H1925.966z
		 M1933.771,754.926c1.663,0.722,0.668-0.023,1.672,1.115C1933.778,755.32,1934.773,756.064,1933.771,754.926 M1937.115,811.229
		v-1.672h0.557C1937.486,810.113,1937.301,810.671,1937.115,811.229 M1938.229,793.391v-1.115
		C1938.738,793.268,1938.774,792.417,1938.229,793.391 M1938.787,753.812c-0.186-0.372-0.371-0.743-0.558-1.115
		C1939.234,753.435,1938.551,753.294,1938.787,753.812 M1941.574,810.113h1.115c-0.186,0.372-0.372,0.744-0.558,1.115
		C1941.946,810.857,1941.76,810.485,1941.574,810.113 M1944.361,779.454v-1.673h1.673L1944.361,779.454z M1948.264,821.263h1.115
		c-0.743,0.558-1.486,1.115-2.23,1.673C1947.521,822.378,1947.893,821.82,1948.264,821.263 M1955.511,847.463v1.115
		c-2.602-3.345-5.204-6.69-7.805-10.034c0.743-0.372,1.487-0.743,2.23-1.115c3.903,1.894,4.354,5.128,6.689,8.362
		C1956.254,846.348,1955.883,846.905,1955.511,847.463 M1958.855,792.275c-0.186,0.371-0.372,0.743-0.558,1.115
		c-0.186-0.372-0.372-0.744-0.558-1.115H1958.855z M1959.413,871.991c-1.337,0.651-0.731,1.382-1.673,0H1959.413z M1959.413,886.484
		c-0.187,0.186-0.372,0.372-0.558,0.558h-0.558c-0.371-1.672-0.743-3.345-1.114-5.017c0.742,0.186,1.486,0.371,2.229,0.557
		c0.185,0.558,0.371,1.115,0.557,1.673C1959.784,884.998,1959.598,885.741,1959.413,886.484 M1961.085,884.255v-1.115
		C1961.594,884.133,1961.63,883.282,1961.085,884.255 M1967.217,756.599c1.588,1.766,0.594,6.155,0.558,8.919h-0.558
		C1965.387,763.263,1966.22,759.131,1967.217,756.599 M1967.217,829.067v-1.673c0.558,0.186,1.115,0.372,1.672,0.558
		C1968.332,828.324,1967.774,828.695,1967.217,829.067 M1968.889,766.634c0.187-0.559,0.373-1.116,0.559-1.674
		c0.186,0.743,0.371,1.487,0.557,2.23h-0.557C1969.262,767.004,1969.075,766.818,1968.889,766.634 M1970.004,776.109v-2.787
		c0.372,0.557,0.744,1.114,1.115,1.672C1970.748,775.366,1970.376,775.737,1970.004,776.109 M1972.792,826.837
		c-0.187-0.37-0.372-0.743-0.558-1.114h1.115C1973.163,826.094,1972.978,826.467,1972.792,826.837 M1978.366,810.113
		c-0.187-0.371-0.372-0.743-0.558-1.114h1.115C1978.738,809.37,1978.552,809.742,1978.366,810.113"/>
	<path clip-path="url(#SVGID_6_)" fill="#A63437" d="M1613.793,529.716v0.202c0.351,0.422,0.695,0.849,1.037,1.278
		C1614.266,529.792,1614.871,530.679,1613.793,529.716"/>
	<path clip-path="url(#SVGID_6_)" fill="#A63437" d="M1618.811,535.848l1.096,1.096c0.005,0.004,0.01,0.008,0.015,0.013
		C1619.153,535.896,1619.866,536.628,1618.811,535.848"/>
	<path clip-path="url(#SVGID_6_)" fill="#A63437" d="M1974.464,753.812c-0.187,0.371-0.371,0.743-0.558,1.114
		C1974.734,753.995,1974.79,755.015,1974.464,753.812"/>
	<path clip-path="url(#SVGID_6_)" fill="#231F20" d="M1824.51,1076.018c-0.186,0.372-0.372,0.743-0.559,1.115h1.116
		C1824.882,1076.761,1824.695,1076.39,1824.51,1076.018"/>
	<path clip-path="url(#SVGID_6_)" fill="none" stroke="#FFFFFF" stroke-miterlimit="10" d="M1824.51,1076.018
		c-0.186,0.372-0.372,0.743-0.559,1.115h1.116C1824.882,1076.761,1824.695,1076.39,1824.51,1076.018z"/>
	<path clip-path="url(#SVGID_6_)" fill="#FFFFFF" d="M1818.378,1078.805c-1.301,1.487-2.603,2.974-3.902,4.46h0.558
		c1.486-0.929,2.973-1.858,4.459-2.787C1818.791,1078.793,1819.503,1079.811,1818.378,1078.805"/>
	<path clip-path="url(#SVGID_6_)" fill="#231F20" d="M1827.297,1078.805c0.558,0.188,1.115,0.372,1.673,0.558
		C1828.412,1079.177,1827.854,1078.992,1827.297,1078.805"/>
	<path clip-path="url(#SVGID_6_)" fill="none" stroke="#FFFFFF" stroke-miterlimit="10" d="M1827.297,1078.805
		c0.558,0.188,1.115,0.372,1.673,0.558C1828.412,1079.177,1827.854,1078.992,1827.297,1078.805z"/>
	<path clip-path="url(#SVGID_6_)" fill="#FFFFFF" d="M1841.791,1079.92c-0.188,0.186-0.372,0.372-0.559,0.558
		c0.371,0.372,0.744,0.743,1.116,1.115l0.557-1.673H1841.791z"/>
	<path clip-path="url(#SVGID_6_)" fill="#231F20" d="M1612.121,1081.035c0.371,0.187,0.743,0.371,1.114,0.558
		C1612.864,1081.406,1612.492,1081.222,1612.121,1081.035"/>
	<path clip-path="url(#SVGID_6_)" fill="none" stroke="#FFFFFF" stroke-miterlimit="10" d="M1612.121,1081.035
		c0.371,0.187,0.743,0.371,1.114,0.558C1612.864,1081.406,1612.492,1081.222,1612.121,1081.035z"/>
	<path clip-path="url(#SVGID_6_)" fill="#231F20" d="M1798.867,1082.149c0.371,0.187,0.743,0.372,1.114,0.558
		C1799.61,1082.521,1799.238,1082.336,1798.867,1082.149"/>
	<path clip-path="url(#SVGID_6_)" fill="none" stroke="#FFFFFF" stroke-miterlimit="10" d="M1798.867,1082.149
		c0.371,0.187,0.743,0.372,1.114,0.558C1799.61,1082.521,1799.238,1082.336,1798.867,1082.149z"/>
	<path clip-path="url(#SVGID_6_)" fill="#231F20" d="M1787.16,1087.167c0.372,0.186,0.743,0.372,1.115,0.558
		C1787.903,1087.539,1787.532,1087.353,1787.16,1087.167"/>
	<path clip-path="url(#SVGID_6_)" fill="none" stroke="#FFFFFF" stroke-miterlimit="10" d="M1787.16,1087.167
		c0.372,0.186,0.743,0.372,1.115,0.558C1787.903,1087.539,1787.532,1087.353,1787.16,1087.167z"/>
	<path clip-path="url(#SVGID_6_)" fill="#FFFFFF" d="M1601.529,1090.512v2.787h0.558l0.558-0.559
		C1601.933,1091.141,1602.991,1091.737,1601.529,1090.512"/>
	<path clip-path="url(#SVGID_6_)" fill="#231F20" d="M1835.659,1092.184c0.186,0.372,0.371,0.744,0.557,1.115
		C1835.979,1092.781,1836.663,1092.922,1835.659,1092.184"/>
	<path clip-path="url(#SVGID_6_)" fill="none" stroke="#FFFFFF" stroke-miterlimit="10" d="M1835.659,1092.184
		c0.186,0.372,0.371,0.744,0.557,1.115C1835.979,1092.781,1836.663,1092.922,1835.659,1092.184z"/>
</g>
<g>
	<defs>
		<rect id="SVGID_7_" width="2200" height="1200"/>
	</defs>
	<clipPath id="SVGID_8_">
		<use xlink:href="#SVGID_7_"  overflow="visible"/>
	</clipPath>
</g>
<g>
	<defs>
		<rect id="SVGID_9_" width="2200" height="1200"/>
	</defs>
	<clipPath id="SVGID_10_">
		<use xlink:href="#SVGID_9_"  overflow="visible"/>
	</clipPath>
	<path clip-path="url(#SVGID_10_)" fill="#A63437" d="M725.298,927.953l-0.331-6.459c5.064-3.382,8.904-6.426,11.522-9.134
		c0.452-12.701-0.427-40.676-2.639-83.926c-1.603-31.338-3.197-53.488-4.778-66.454c-0.82-7.031-1.993-11.104-3.519-12.222
		c-2.11-1.729-9.136-2.565-21.074-2.505l-0.591-11.545l26.418-0.802l20.226-0.621c6.137-0.313,15.201-0.937,27.188-1.873
		c11.619-0.915,19.95-1.502,24.99-1.76c20.343-1.041,35.086,1.611,44.23,7.954s14.017,15.396,14.618,27.157
		c0.621,12.13-3.22,22.247-11.519,30.35c-8.302,8.104-20.281,14.201-35.941,18.293l0.057,1.1c16.371,0.818,27.938,2.71,34.696,5.675
		c6.758,2.967,12.328,7.834,16.711,14.602c4.381,6.767,6.801,14.6,7.256,23.499c0.559,10.919-2.235,21.41-8.38,31.474
		c-6.147,10.066-14.563,17.949-25.25,23.646s-25.973,9.055-45.856,10.071c-3.94,0.201-9.859,0.343-17.755,0.426
		c-7.348,0.053-13.356,0.201-18.03,0.44C752.325,925.606,741.574,926.478,725.298,927.953 M772.276,811.86l7.148-0.365
		c15.484-0.792,26.223-4.142,32.214-10.054c5.989-5.909,8.682-14.82,8.072-26.734c-0.534-10.445-3.47-18.012-8.809-22.7
		c-5.338-4.688-13.828-6.734-25.463-6.139c-4.308,0.22-9.558,0.857-15.75,1.908c0.889,28.159,1.495,45.399,1.818,51.722
		L772.276,811.86z M777.688,909.564c5.371,1.104,10.388,1.536,15.05,1.297c12.978-0.663,22.75-4.906,29.315-12.73
		c6.564-7.822,9.477-18.973,8.737-33.451c-0.483-9.437-2.456-17.076-5.916-22.918c-3.46-5.839-8.031-10.084-13.711-12.734
		c-5.68-2.648-13.639-3.712-23.874-3.188l-13.841,0.846l0.183,3.573l1.546,35.612l2.117,35.997L777.688,909.564z"/>
	<path clip-path="url(#SVGID_10_)" fill="#A63437" d="M894.769,919.284l-0.577-11.271c9.231-0.931,14.518-1.75,15.859-2.466
		c1.072-0.606,1.897-1.523,2.478-2.75c0.896-2.253,1.241-7.145,1.041-14.68c-0.32-13.415-0.76-25.627-1.323-36.639
		c-1.084-21.196-2.002-33.752-2.754-37.671c-0.392-2.279-1.3-3.865-2.724-4.76c-1.423-0.891-7.322-1.257-17.695-1.096l-0.541-10.582
		c18.372-2.706,31.469-5.56,39.288-8.562l13.854-6.008c1.28-0.065,1.964,0.774,2.053,2.514l-0.011,1.93
		c0.001,5.788,0.28,14.09,0.833,24.9c4.443-4.728,9.328-10.674,14.659-17.838c3.951-5.346,7.446-8.877,10.482-10.596
		c3.035-1.717,7.166-2.71,12.389-2.977c2.931-0.15,5.936,0.202,9.011,1.057c-0.356,9.213-0.268,21.71,0.264,37.495l-6.072,2.519
		c-2.293-3.478-4.734-5.862-7.325-7.159c-2.595-1.295-5.906-1.84-9.938-1.634c-5.497,0.28-10.145,1.948-13.937,4.997
		c-3.795,3.052-6.148,6.442-7.06,10.175c-0.593,2.796-0.479,12.188,0.339,28.18c1.19,23.254,2.203,36.793,3.043,40.621
		c0.497,2.555,1.458,4.257,2.879,5.104c2.178,1.271,9.145,1.885,20.903,1.833l0.577,11.271l-15.415,0.376
		c-9.821,0.227-18.302,0.522-25.449,0.889c-6.782,0.348-14.655,0.887-23.62,1.621L894.769,919.284z"/>
	<path clip-path="url(#SVGID_10_)" fill="#A63437" d="M1010.086,913.386l-0.577-11.271c10.335-0.895,16.281-1.842,17.838-2.844
		c1.556-0.998,2.455-3.62,2.699-7.865c0.436-5.819,0.151-18.592-0.858-38.32c-0.437-8.532-0.978-16.416-1.624-23.651l-1.235-16.082
		c-0.273-5.321-1.014-8.571-2.222-9.752c-1.21-1.181-4.339-1.732-9.387-1.66l-10.329,0.114l-0.542-10.583
		c21.996-2.798,39.985-7.67,53.962-14.611l3.577,2.579c-0.477,17.612,0.142,43.179,1.856,76.698
		c0.992,19.377,1.908,31.069,2.753,35.079c0.6,2.824,1.536,4.616,2.807,5.381s7.301,1.285,18.087,1.56l0.577,11.271
		c-16.556,0.296-29.353,0.674-38.392,1.138C1044.235,910.812,1031.24,911.753,1010.086,913.386 M1038.094,711.998
		c5.863-0.3,10.986,1.528,15.371,5.483c4.381,3.958,6.725,8.912,7.03,14.868c0.3,5.865-1.528,10.989-5.484,15.37
		c-3.957,4.383-8.912,6.727-14.868,7.031c-5.865,0.3-10.988-1.527-15.37-5.484c-4.384-3.956-6.723-8.865-7.023-14.73
		c-0.305-5.955,1.519-11.123,5.476-15.508C1027.181,714.646,1032.137,712.303,1038.094,711.998"/>
	<path clip-path="url(#SVGID_10_)" fill="#A63437" d="M1216.562,876.202l4.173,3.794l-5.485,13.469
		c-6.391,4.436-13.313,7.868-20.771,10.304c-7.456,2.435-15.445,3.87-23.968,4.306c-19.981,1.022-36.019-3.974-48.114-14.988
		c-12.096-11.013-18.681-27.023-19.756-48.029c-0.68-13.298,0.451-24.393,3.396-33.281c2.388-7.202,6.6-13.302,12.638-18.301
		c6.036-4.998,13.048-9.818,21.034-14.458c7.983-4.637,16.878-7.209,26.685-7.711c15.026-0.769,27.656,2.799,37.892,10.7
		c10.233,7.899,15.829,21.17,16.782,39.811c0.117,2.298,0.111,5.798-0.015,10.498l-22.293,5.274
		c-6.929,0.814-16.979,1.557-30.151,2.23l-29.777,1.523c2.184,15.736,7.511,27.397,15.986,34.978
		c8.475,7.583,18.945,11.055,31.409,10.417c5.223-0.267,10.362-1.29,15.418-3.067
		C1206.699,881.89,1211.671,879.402,1216.562,876.202 M1137.262,826.816c8.284,0.312,16.55,0.255,24.796-0.167
		c7.238-0.37,14.826-1.124,22.761-2.266l-0.195-6.491c-0.578-11.31-3.062-19.455-7.451-24.441
		c-4.389-4.983-10.112-7.297-17.167-6.936c-4.948,0.253-9.146,1.691-12.595,4.31c-3.449,2.62-5.933,6.182-7.446,10.684
		C1138.447,806.014,1137.546,814.448,1137.262,826.816"/>
	<path clip-path="url(#SVGID_10_)" fill="#A63437" d="M1237.696,901.743l-0.577-11.271l8.486-1.124
		c5.574-0.562,9.035-1.612,10.381-3.157c1.345-1.541,2.043-5.401,2.096-11.579c0.073-12.901-0.347-28.314-1.264-46.236
		l-1.975-33.207c-9.047,0.925-16.539,1.767-22.47,2.528l-0.366-7.147l12.765-7.405l2.264-1.219l1.331-0.757l3.854-2.264l-0.66-12.92
		c-0.439-10.358,0.393-17.911,2.492-22.659c2.101-4.745,8.002-11.961,17.704-21.645c13.106-13.164,21.301-20.887,24.584-23.17
		c5.671-4.056,12.632-6.296,20.878-6.718c2.564-0.131,5.236-0.014,8.011,0.349c2.775,0.364,5.653,0.975,8.638,1.832
		c-1.011,10.801-1.711,22.229-2.105,34.283l-5.303,1.374c-4.23-3.643-8.363-6.301-12.397-7.979
		c-4.037-1.675-7.979-2.417-11.827-2.22c-5.041,0.258-8.786,1.576-11.236,3.951c-2.451,2.378-3.84,6.215-4.165,11.513
		c-0.327,5.302,0.095,19.357,1.261,42.174l14.021-0.718c7.604-0.389,15.358-1.475,23.26-3.257l1.761,2.1
		c-1.196,5.353-2.1,11.053-2.707,17.104c-5.432-0.182-10.528-0.151-15.293,0.093l-20.203,1.033
		c2.035,39.793,3.638,65.74,4.809,77.842c0.627,6.881,1.849,11.01,3.665,12.39c2.298,1.818,10.516,2.644,24.656,2.471l0.575,11.271
		c-13.476,0.139-26.436,0.525-38.877,1.162C1271.317,899.197,1255.964,900.258,1237.696,901.743"/>
	<path clip-path="url(#SVGID_10_)" fill="#A63437" d="M1459.852,863.399l4.173,3.794l-5.485,13.469
		c-6.391,4.436-13.314,7.868-20.771,10.304c-7.456,2.435-15.445,3.87-23.968,4.306c-19.981,1.021-36.019-3.974-48.114-14.987
		s-18.681-27.024-19.756-48.03c-0.68-13.298,0.451-24.393,3.396-33.281c2.388-7.202,6.6-13.302,12.638-18.301
		c6.036-4.998,13.048-9.818,21.034-14.458c7.983-4.637,16.878-7.209,26.685-7.711c15.026-0.769,27.656,2.799,37.892,10.699
		c10.233,7.9,15.828,21.171,16.782,39.812c0.117,2.298,0.111,5.798-0.015,10.498l-22.293,5.274
		c-6.929,0.814-16.979,1.557-30.151,2.23l-29.777,1.523c2.184,15.736,7.511,27.397,15.985,34.978
		c8.476,7.583,18.946,11.055,31.41,10.417c5.223-0.267,10.362-1.291,15.417-3.067C1449.988,869.087,1454.96,866.6,1459.852,863.399
		 M1380.551,814.014c8.284,0.312,16.55,0.255,24.796-0.167c7.238-0.37,14.826-1.124,22.761-2.266l-0.195-6.491
		c-0.578-11.31-3.062-19.455-7.451-24.441c-4.389-4.983-10.112-7.297-17.167-6.936c-4.948,0.253-9.146,1.691-12.595,4.31
		c-3.449,2.619-5.933,6.182-7.446,10.684C1381.736,793.211,1380.835,801.646,1380.551,814.014"/>
</g>
<g>
	<defs>
		<rect id="SVGID_11_" width="2200" height="1200"/>
	</defs>
	<clipPath id="SVGID_12_">
		<use xlink:href="#SVGID_11_"  overflow="visible"/>
	</clipPath>
</g>
<g>
	<defs>
		<rect id="SVGID_13_" width="2200" height="1200"/>
	</defs>
	<clipPath id="SVGID_14_">
		<use xlink:href="#SVGID_13_"  overflow="visible"/>
	</clipPath>
</g>
</svg>
