<?xml version="1.0" encoding="utf-8"?>
<!-- Generator: Adobe Illustrator 16.0.0, SVG Export Plug-In . SVG Version: 6.00 Build 0)  -->
<!DOCTYPE svg PUBLIC "-//W3C//DTD SVG 1.1//EN" "http://www.w3.org/Graphics/SVG/1.1/DTD/svg11.dtd">
<svg version="1.1" id="Layer_1" xmlns="http://www.w3.org/2000/svg" xmlns:xlink="http://www.w3.org/1999/xlink" x="0px" y="0px"
	 width="2200px" height="1200px" viewBox="0 0 2200 1200" enable-background="new 0 0 2200 1200" xml:space="preserve">
<g>
	<path d="M199.017,512.537l68.02-146.253c0.652-1.304,2.173-2.39,3.694-2.39h2.173c1.521,0,3.042,1.086,3.694,2.39l68.02,146.253
		c1.304,2.825-0.435,5.65-3.694,5.65h-24.122c-3.912,0-5.65-1.304-7.606-5.433l-7.823-17.168h-59.11l-7.823,17.386
		c-1.086,2.607-3.477,5.215-7.823,5.215h-23.905C199.451,518.187,197.712,515.362,199.017,512.537z M288.333,466.031l-16.516-35.857
		H271.6l-16.299,35.857H288.333z"/>
	<path d="M360.48,370.195c0-2.173,1.739-4.129,4.129-4.129h64.977c26.078,0,47.375,21.08,47.375,46.94
		c0,19.993-13.256,36.074-32.163,43.68l29.772,55.198c1.521,2.825,0,6.302-3.694,6.302h-28.903c-1.739,0-3.042-1.086-3.477-1.956
		l-28.903-57.588h-14.995v55.416c0,2.173-1.956,4.129-4.129,4.129h-25.86c-2.391,0-4.129-1.956-4.129-4.129V370.195z
		 M426.761,431.043c8.91,0,16.516-8.258,16.516-17.385s-7.606-16.516-16.516-16.516h-32.163v33.901H426.761z"/>
	<path d="M523.685,398.011h-31.076c-2.391,0-4.129-1.956-4.129-4.129v-23.688c0-2.173,1.738-4.129,4.129-4.129h96.488
		c2.391,0,4.129,1.956,4.129,4.129v23.688c0,2.173-1.738,4.129-4.129,4.129h-31.076v116.047c0,2.173-1.956,4.129-4.129,4.129
		h-26.078c-2.173,0-4.129-1.956-4.129-4.129V398.011z"/>
	<path d="M613,370.195c0-2.173,1.956-4.129,4.129-4.129h25.86c2.391,0,4.129,1.956,4.129,4.129v54.764h62.152v-54.764
		c0-2.173,1.739-4.129,4.129-4.129h25.861c2.173,0,4.129,1.956,4.129,4.129v143.863c0,2.173-1.956,4.129-4.129,4.129H713.4
		c-2.39,0-4.129-1.956-4.129-4.129v-57.154h-62.152v57.154c0,2.173-1.738,4.129-4.129,4.129h-25.86
		c-2.173,0-4.129-1.956-4.129-4.129V370.195z"/>
	<path d="M776.638,370.195c0-2.173,1.956-4.129,4.129-4.129h26.73c2.39,0,4.129,1.956,4.129,4.129v88.013
		c0,15.212,11.3,27.382,26.729,27.382c15.647,0,27.165-12.17,27.165-27.382v-88.013c0-2.173,1.739-4.129,4.129-4.129h26.729
		c2.173,0,4.129,1.956,4.129,4.129v89.751c0,33.032-27.816,60.414-62.152,60.414c-34.118,0-61.717-27.382-61.717-60.414V370.195z"/>
	<path d="M933.539,370.195c0-2.173,1.739-4.129,4.129-4.129h64.977c26.078,0,47.375,21.08,47.375,46.94
		c0,19.993-13.256,36.074-32.163,43.68l29.772,55.198c1.521,2.825,0,6.302-3.694,6.302h-28.903c-1.739,0-3.042-1.086-3.477-1.956
		l-28.903-57.588h-14.995v55.416c0,2.173-1.956,4.129-4.129,4.129h-25.86c-2.391,0-4.129-1.956-4.129-4.129V370.195z
		 M999.82,431.043c8.91,0,16.516-8.258,16.516-17.385s-7.606-16.516-16.516-16.516h-32.163v33.901H999.82z"/>
</g>
<g>
	<path d="M209.882,691.39l10.214-18.038c1.738-2.824,5.868-2.39,7.389-1.304c0.869,0.435,16.516,11.952,30.859,11.952
		c8.692,0,14.995-5.433,14.995-13.038c0-9.128-7.606-16.082-22.383-21.949c-18.689-7.389-42.159-21.949-42.159-48.027
		c0-21.514,16.733-43.246,50.2-43.246c22.601,0,39.986,11.518,46.505,16.298c2.608,1.521,2.173,5.433,1.304,6.954l-11.083,16.733
		c-1.521,2.391-5.433,4.346-7.389,2.825c-1.956-1.086-17.82-13.039-31.076-13.039c-7.823,0-13.69,5.216-13.69,11.083
		c0,8.041,6.519,14.125,23.687,21.08c16.951,6.737,43.898,19.993,43.898,49.548c0,22.384-19.341,44.984-51.287,44.984
		c-28.251,0-43.897-11.734-48.896-16.733C208.796,695.301,208.144,694.432,209.882,691.39z"/>
	<path d="M403.074,557.74c21.731,0,37.813,6.737,52.59,20.21c1.956,1.739,1.956,4.347,0.217,6.085l-16.951,17.603
		c-1.521,1.521-3.912,1.521-5.433,0c-8.041-7.171-18.689-11.083-29.337-11.083c-24.557,0-42.594,20.428-42.594,44.767
		c0,24.122,18.254,44.115,42.811,44.115c10.214,0,21.297-3.694,29.12-10.431c1.521-1.304,4.347-1.304,5.65,0.217l16.951,18.037
		c1.521,1.521,1.304,4.347-0.217,5.868c-14.777,14.343-33.467,21.079-52.808,21.079c-43.463,0-78.451-34.553-78.451-78.016
		C324.623,592.728,359.611,557.74,403.074,557.74z"/>
	<path d="M480.002,564.042c0-2.173,1.956-4.129,4.129-4.129h25.86c2.391,0,4.129,1.956,4.129,4.129v54.764h62.152v-54.764
		c0-2.173,1.739-4.129,4.129-4.129h25.861c2.173,0,4.129,1.956,4.129,4.129v143.863c0,2.173-1.956,4.129-4.129,4.129h-25.861
		c-2.39,0-4.129-1.956-4.129-4.129v-57.154h-62.152v57.154c0,2.173-1.738,4.129-4.129,4.129h-25.86
		c-2.173,0-4.129-1.956-4.129-4.129V564.042z"/>
	<path d="M645.595,561.652c0-2.173,1.956-3.912,4.129-3.912h5.433l86.709,83.449h0.217v-77.147c0-2.173,1.739-4.129,4.129-4.129
		h26.078c2.173,0,4.129,1.956,4.129,4.129v146.254c0,2.173-1.956,3.911-4.129,3.911h-3.477c-0.652,0-2.391-0.651-2.825-1.086
		l-85.84-86.274h-0.217v81.059c0,2.173-1.738,4.129-4.129,4.129h-25.86c-2.173,0-4.129-1.956-4.129-4.129L645.595,561.652z"/>
	<path d="M811.842,564.042c0-2.173,1.956-4.129,4.129-4.129h26.078c2.173,0,4.129,1.956,4.129,4.129v143.863
		c0,2.173-1.956,4.129-4.129,4.129h-26.078c-2.173,0-4.129-1.956-4.129-4.129V564.042z"/>
	<path d="M901.156,591.858H870.08c-2.391,0-4.129-1.956-4.129-4.129v-23.688c0-2.173,1.738-4.129,4.129-4.129h96.488
		c2.39,0,4.129,1.956,4.129,4.129v23.688c0,2.173-1.739,4.129-4.129,4.129h-31.076v116.047c0,2.173-1.956,4.129-4.129,4.129h-26.078
		c-2.173,0-4.129-1.956-4.129-4.129V591.858z"/>
	<path d="M976.781,703.993l57.806-111.7v-0.435h-47.375c-2.173,0-4.129-1.956-4.129-4.129v-23.688c0-2.173,1.956-4.129,4.129-4.129
		h92.359c2.173,0,4.129,1.956,4.129,4.129v2.825l-55.85,112.787v0.435h47.375c2.39,0,4.129,1.956,4.129,4.129v23.688
		c0,2.173-1.739,4.129-4.129,4.129h-94.315c-2.173,0-4.129-1.956-4.129-4.129V703.993z"/>
	<path d="M1106.301,564.042c0-2.173,1.738-4.129,4.129-4.129h25.86c2.173,0,4.129,1.956,4.129,4.129v116.047h51.722
		c2.39,0,4.129,1.956,4.129,4.129v23.688c0,2.173-1.739,4.129-4.129,4.129h-81.711c-2.391,0-4.129-1.956-4.129-4.129V564.042z"/>
	<path d="M1215.391,564.042c0-2.173,1.738-4.129,4.129-4.129h89.969c2.391,0,4.129,1.956,4.129,4.129v23.688
		c0,2.173-1.738,4.129-4.129,4.129h-60.196v26.947h49.548c2.173,0,4.129,1.956,4.129,4.129v23.688c0,2.391-1.956,4.129-4.129,4.129
		h-49.548v29.338h60.196c2.391,0,4.129,1.956,4.129,4.129v23.688c0,2.173-1.738,4.129-4.129,4.129h-89.969
		c-2.391,0-4.129-1.956-4.129-4.129V564.042z"/>
	<path d="M1340.565,564.042c0-2.173,1.738-4.129,4.129-4.129h64.978c26.077,0,47.374,21.08,47.374,46.94
		c0,19.993-13.256,36.074-32.162,43.681l29.772,55.198c1.521,2.824,0,6.302-3.694,6.302h-28.903c-1.738,0-3.043-1.087-3.478-1.956
		l-28.902-57.589h-14.995v55.416c0,2.173-1.956,4.129-4.129,4.129h-25.86c-2.391,0-4.129-1.956-4.129-4.129V564.042z
		 M1406.847,624.891c8.909,0,16.516-8.258,16.516-17.386c0-9.127-7.606-16.516-16.516-16.516h-32.163v33.901H1406.847z"/>
</g>
<path fill="#FFFFFF" d="M1781.965,130.841l-1.115-0.558L1781.965,130.841z"/>
<path fill="none" stroke="#231F20" stroke-miterlimit="10" d="M1780.85,130.283l1.115,0.558L1780.85,130.283z"/>
<g>
	<path fill="#231F20" d="M1754.649,132.513c0.187,0.372,0.372,0.743,0.558,1.115c0.186-0.372,0.372-0.743,0.558-1.115H1754.649z"/>
	<path fill="none" d="M1754.649,132.513c0.187,0.372,0.372,0.743,0.558,1.115c0.186-0.372,0.372-0.743,0.558-1.115H1754.649z"/>
	<path fill="#231F20" d="M1776.391,134.185c1.437,1.591,0.719,0.877,2.229,0H1776.391z"/>
	<path fill="none" d="M1776.391,134.185c1.437,1.591,0.719,0.877,2.229,0H1776.391z"/>
	<path fill="#231F20" d="M1734.581,137.53l-0.557,1.115h1.114C1734.953,138.273,1734.768,137.902,1734.581,137.53"/>
	<path fill="none" d="M1734.581,137.53l-0.557,1.115h1.114C1734.953,138.273,1734.768,137.902,1734.581,137.53z"/>
	<path fill="#231F20" d="M1749.075,140.875c0.776,1.072,0.057,0.333,1.115,1.115
		C1749.818,141.618,1749.447,141.247,1749.075,140.875"/>
	<path fill="none" d="M1749.075,140.875c0.776,1.072,0.057,0.333,1.115,1.115C1749.818,141.618,1749.447,141.247,1749.075,140.875z"
		/>
	<path fill="#231F20" d="M1793.671,141.432v1.115V141.432z"/>
	<path fill="none" d="M1793.671,141.432v1.115V141.432z"/>
	<path fill="#231F20" d="M1813.739,159.271v1.115V159.271z"/>
	<path fill="none" d="M1813.739,159.271v1.115V159.271z"/>
	<path fill="#231F20" d="M1808.723,161.5v1.115V161.5z"/>
	<path fill="none" d="M1808.723,161.5v1.115V161.5z"/>
	<path fill="#FFFFFF" d="M1721.938,153.437v2.229h1.673c-0.187-0.743-0.372-1.486-0.558-2.229H1721.938z"/>
	<path fill="#231F20" d="M1715.249,171.832v1.115C1715.794,171.974,1715.758,172.824,1715.249,171.832"/>
	<path fill="none" d="M1715.249,171.832v1.115C1715.794,171.974,1715.758,172.824,1715.249,171.832z"/>
	<path fill="#231F20" d="M1828.412,184.096v1.115C1828.956,184.238,1828.921,185.088,1828.412,184.096"/>
	<path fill="none" d="M1828.412,184.096v1.115C1828.956,184.238,1828.921,185.088,1828.412,184.096z"/>
	<path fill="#231F20" d="M1714.691,193.573c0.187,0.372,0.372,0.744,0.558,1.115c0.187-0.371,0.372-0.743,0.558-1.115H1714.691z"/>
	<path fill="none" d="M1714.691,193.573c0.187,0.372,0.372,0.744,0.558,1.115c0.187-0.371,0.372-0.743,0.558-1.115H1714.691z"/>
	<path fill="#231F20" d="M1711.904,198.59c0.775,1.072,0.057,0.334,1.115,1.115C1712.647,199.333,1712.276,198.962,1711.904,198.59"
		/>
	<path fill="none" d="M1711.904,198.59c0.775,1.072,0.057,0.334,1.115,1.115C1712.647,199.333,1712.276,198.962,1711.904,198.59z"/>
	<path fill="#231F20" d="M1707.445,210.854l0.557,1.115c0.187-0.372,0.372-0.743,0.558-1.115H1707.445z"/>
	<path fill="none" d="M1707.445,210.854l0.557,1.115c0.187-0.372,0.372-0.743,0.558-1.115H1707.445z"/>
	<path fill="#231F20" d="M1806.114,210.854l1.114,0.557L1806.114,210.854z"/>
	<path fill="none" d="M1806.114,210.854l1.114,0.557L1806.114,210.854z"/>
	<path fill="#231F20" d="M1818.378,227.02l1.114,0.557L1818.378,227.02z"/>
	<path fill="none" d="M1818.378,227.02l1.114,0.557L1818.378,227.02z"/>
	<path fill="#FFFFFF" d="M1713.577,228.135c-0.187,1.486-0.372,2.973-0.558,4.459c1.504-0.891,0.768-0.188,1.672-1.672
		C1714.693,228.829,1715.906,229.462,1713.577,228.135"/>
	<path fill="#231F20" d="M1716.922,243.744c-0.186,0.372-0.372,0.743-0.559,1.115c1.686-0.702,0.668,0.01,1.673-1.115H1716.922z"/>
	<path fill="none" d="M1716.922,243.744c-0.186,0.372-0.372,0.743-0.559,1.115c1.686-0.702,0.668,0.01,1.673-1.115H1716.922z"/>
	<path fill="#231F20" d="M1718.594,244.301l1.115,0.558L1718.594,244.301z"/>
	<path fill="none" d="M1718.594,244.301l1.115,0.558L1718.594,244.301z"/>
	<path fill="#231F20" d="M1736.99,248.203c0.371,0.186,0.743,0.372,1.114,0.558C1737.733,248.575,1737.361,248.389,1736.99,248.203"
		/>
	<path fill="none" d="M1736.99,248.203c0.371,0.186,0.743,0.372,1.114,0.558C1737.733,248.575,1737.361,248.389,1736.99,248.203z"/>
	<path fill="#231F20" d="M1852.382,248.761v1.115V248.761z"/>
	<path fill="none" d="M1852.382,248.761v1.115V248.761z"/>
	<path fill="#231F20" d="M1856.284,249.875c0.776,1.072,0.057,0.333,1.115,1.115
		C1857.027,250.619,1856.656,250.248,1856.284,249.875"/>
	<path fill="none" d="M1856.284,249.875c0.776,1.072,0.057,0.333,1.115,1.115C1857.027,250.619,1856.656,250.248,1856.284,249.875z"
		/>
	<path fill="#231F20" d="M1741.449,251.548v1.115V251.548z"/>
	<path fill="none" d="M1741.449,251.548v1.115V251.548z"/>
	<path fill="#FFFFFF" d="M1707.445,261.582c0.186,1.486,0.371,2.973,0.557,4.459c0.372,0.187,0.744,0.372,1.115,0.558
		C1709.135,263.505,1709.137,262.885,1707.445,261.582"/>
	<path fill="#231F20" d="M1777.684,262.697c0.941,1.382,0.335,0.652,1.673,0H1777.684z"/>
	<path fill="none" d="M1777.684,262.697c0.941,1.382,0.335,0.652,1.673,0H1777.684z"/>
	<path fill="#231F20" d="M1747.581,271.616v1.115V271.616z"/>
	<path fill="none" d="M1747.581,271.616v1.115V271.616z"/>
	<path fill="#231F20" d="M1875.795,279.978c0.187,0.372,0.372,0.744,0.558,1.115C1876.116,280.576,1876.8,280.715,1875.795,279.978"
		/>
	<path fill="none" d="M1875.795,279.978c0.187,0.372,0.372,0.744,0.558,1.115C1876.116,280.576,1876.8,280.715,1875.795,279.978z"/>
	<path fill="#FFFFFF" d="M1891.961,302.276c-1.3,0.743-2.602,1.486-3.901,2.23c0.186,0.929,0.371,1.858,0.557,2.787h2.788
		c0.863-2.35,1.346-1.866,2.787-3.345h-1.115C1892.705,303.391,1892.333,302.833,1891.961,302.276"/>
	<path fill="#FFFFFF" d="M1730.858,308.965c-0.187,0.743-0.372,1.486-0.558,2.229c1.073-0.845,0.986-0.998,1.672-2.229H1730.858z"/>
	<path fill="#231F20" d="M1701.87,375.859c1.004,1.138,0.009,0.394,1.673,1.115L1701.87,375.859z"/>
	<path fill="none" d="M1701.87,375.859c1.004,1.138,0.009,0.394,1.673,1.115L1701.87,375.859z"/>
	<path fill="#231F20" d="M1704.101,393.698c-0.187,0.372-0.372,0.743-0.558,1.115h1.115
		C1704.472,394.441,1704.286,394.07,1704.101,393.698"/>
	<path fill="none" d="M1704.101,393.698c-0.187,0.372-0.372,0.743-0.558,1.115h1.115
		C1704.472,394.441,1704.286,394.07,1704.101,393.698z"/>
	<path fill="#231F20" d="M1682.359,422.128c-0.186,0.372-0.371,0.743-0.559,1.115h1.116
		C1682.731,422.871,1682.546,422.5,1682.359,422.128"/>
	<path fill="none" d="M1682.359,422.128c-0.186,0.372-0.371,0.743-0.559,1.115h1.116
		C1682.731,422.871,1682.546,422.5,1682.359,422.128z"/>
	<path fill="#231F20" d="M1524.601,541.422c0.187,0.372,0.372,0.743,0.558,1.115c0.187-0.372,0.372-0.743,0.558-1.115H1524.601z"/>
	<path fill="none" d="M1524.601,541.422c0.187,0.372,0.372,0.743,0.558,1.115c0.187-0.372,0.372-0.743,0.558-1.115H1524.601z"/>
	<path fill="#231F20" d="M1536.865,544.767c0.371,0.186,0.743,0.372,1.114,0.558
		C1537.608,545.139,1537.236,544.953,1536.865,544.767"/>
	<path fill="none" d="M1536.865,544.767c0.371,0.186,0.743,0.372,1.114,0.558C1537.608,545.139,1537.236,544.953,1536.865,544.767z"
		/>
	<path fill="#231F20" d="M1539.652,547.554c-0.186,0.372-0.372,0.743-0.559,1.115
		C1540.13,547.974,1539.399,548.171,1539.652,547.554"/>
	<path fill="none" d="M1539.652,547.554c-0.186,0.372-0.372,0.743-0.559,1.115C1540.13,547.974,1539.399,548.171,1539.652,547.554z"
		/>
	<path fill="#231F20" d="M1522.371,557.588v1.115C1522.916,557.73,1522.88,558.581,1522.371,557.588"/>
	<path fill="none" d="M1522.371,557.588v1.115C1522.916,557.73,1522.88,558.581,1522.371,557.588z"/>
	<path fill="#231F20" d="M1533.521,561.491l1.114,0.557L1533.521,561.491z"/>
	<path fill="none" d="M1533.521,561.491l1.114,0.557L1533.521,561.491z"/>
	<path fill="#231F20" d="M1536.308,587.691c-0.187,0.372-0.372,0.743-0.558,1.115
		C1536.785,588.111,1536.055,588.308,1536.308,587.691"/>
	<path fill="none" d="M1536.308,587.691c-0.187,0.372-0.372,0.743-0.558,1.115C1536.785,588.111,1536.055,588.308,1536.308,587.691z
		"/>
	<path fill="#231F20" d="M1545.227,599.955c0.186,0.372,0.372,0.744,0.558,1.115c0.186-0.371,0.372-0.743,0.558-1.115H1545.227z"/>
	<path fill="none" d="M1545.227,599.955c0.186,0.372,0.372,0.744,0.558,1.115c0.186-0.371,0.372-0.743,0.558-1.115H1545.227z"/>
	<path fill="#231F20" d="M1554.146,659.602c0.776,1.072,0.057,0.334,1.115,1.115L1554.146,659.602z"/>
	<path fill="none" d="M1554.146,659.602c0.776,1.072,0.057,0.334,1.115,1.115L1554.146,659.602z"/>
	<path fill="#231F20" d="M1557.49,704.198v1.672c0.187-0.557,0.372-1.114,0.558-1.672H1557.49z"/>
	<path fill="none" d="M1557.49,704.198v1.672c0.187-0.557,0.372-1.114,0.558-1.672H1557.49z"/>
	<path fill="#231F20" d="M1561.95,733.743c0.186,0.558,0.372,1.115,0.558,1.672c1.139-1.003,0.394-0.008,1.115-1.672H1561.95z"/>
	<path fill="none" d="M1561.95,733.743c0.186,0.558,0.372,1.115,0.558,1.672c1.139-1.003,0.394-0.008,1.115-1.672H1561.95z"/>
	<path fill="#231F20" d="M1555.261,743.22v1.115V743.22z"/>
	<path fill="none" d="M1555.261,743.22v1.115V743.22z"/>
	<path fill="#231F20" d="M1555.818,757.156v1.672h1.115C1556.562,758.271,1556.189,757.713,1555.818,757.156"/>
	<path fill="none" d="M1555.818,757.156v1.672h1.115C1556.562,758.271,1556.189,757.713,1555.818,757.156z"/>
	<path fill="#231F20" d="M1561.393,780.569c0.941,1.382,0.335,0.651,1.673,0H1561.393z"/>
	<path fill="none" d="M1561.393,780.569c0.941,1.382,0.335,0.651,1.673,0H1561.393z"/>
	<path fill="#231F20" d="M1548.014,781.684v1.115V781.684z"/>
	<path fill="none" d="M1548.014,781.684v1.115V781.684z"/>
	<path fill="#231F20" d="M1556.934,783.356c0.371,0.186,0.743,0.371,1.114,0.557
		C1557.677,783.728,1557.305,783.542,1556.934,783.356"/>
	<path fill="none" d="M1556.934,783.356c0.371,0.186,0.743,0.371,1.114,0.557C1557.677,783.728,1557.305,783.542,1556.934,783.356z"
		/>
	<path fill="#231F20" d="M1546.342,796.178c0.371,0.558,0.743,1.114,1.114,1.672
		C1546.755,796.165,1547.467,797.183,1546.342,796.178"/>
	<path fill="none" d="M1546.342,796.178c0.371,0.558,0.743,1.114,1.114,1.672C1546.755,796.165,1547.467,797.183,1546.342,796.178z"
		/>
	<path fill="#231F20" d="M1560.835,802.867c-0.187,0.371-0.371,0.743-0.557,1.114c0.557-0.371,1.114-0.743,1.672-1.114H1560.835z"/>
	<path fill="none" d="M1560.835,802.867c-0.187,0.371-0.371,0.743-0.557,1.114c0.557-0.371,1.114-0.743,1.672-1.114H1560.835z"/>
	<path fill="#231F20" d="M1558.605,803.981c0.372,0.372,0.743,0.744,1.115,1.115
		C1559.349,804.726,1558.978,804.354,1558.605,803.981"/>
	<path fill="none" d="M1558.605,803.981c0.372,0.372,0.743,0.744,1.115,1.115C1559.349,804.726,1558.978,804.354,1558.605,803.981z"
		/>
	<path fill="#231F20" d="M1561.393,804.539v1.115V804.539z"/>
	<path fill="none" d="M1561.393,804.539v1.115V804.539z"/>
	<path fill="#231F20" d="M1559.721,807.326c0.508,2.035-0.021,1.141,1.114,2.23C1560.464,808.813,1560.092,808.069,1559.721,807.326
		"/>
	<path fill="none" d="M1559.721,807.326c0.508,2.035-0.021,1.141,1.114,2.23C1560.464,808.813,1560.092,808.069,1559.721,807.326z"
		/>
	<path fill="#231F20" d="M1556.376,817.918c0.371,0.743,0.743,1.486,1.114,2.229
		C1557.119,819.404,1556.747,818.661,1556.376,817.918"/>
	<path fill="none" d="M1556.376,817.918c0.371,0.743,0.743,1.486,1.114,2.229C1557.119,819.404,1556.747,818.661,1556.376,817.918z"
		/>
	<path fill="#231F20" d="M1549.687,820.705c0.371,0.743,0.743,1.487,1.114,2.23l0.558-0.558v-0.558
		C1550.802,821.448,1550.244,821.077,1549.687,820.705"/>
	<path fill="none" d="M1549.687,820.705c0.371,0.743,0.743,1.487,1.114,2.23l0.558-0.558v-0.558
		C1550.802,821.448,1550.244,821.077,1549.687,820.705z"/>
	<path fill="#231F20" d="M1574.214,824.607c0.372,0.186,0.743,0.372,1.115,0.558
		C1574.957,824.979,1574.586,824.793,1574.214,824.607"/>
	<path fill="none" d="M1574.214,824.607c0.372,0.186,0.743,0.372,1.115,0.558C1574.957,824.979,1574.586,824.793,1574.214,824.607z"
		/>
	<path fill="#231F20" d="M1566.41,836.871c0.371,0.188,0.743,0.372,1.114,0.558C1567.153,837.243,1566.781,837.059,1566.41,836.871"
		/>
	<path fill="none" d="M1566.41,836.871c0.371,0.188,0.743,0.372,1.114,0.558C1567.153,837.243,1566.781,837.059,1566.41,836.871z"/>
	<path fill="#231F20" d="M1566.968,840.216c0.186,0.372,0.371,0.743,0.557,1.115
		C1567.288,840.813,1567.972,840.954,1566.968,840.216"/>
	<path fill="none" d="M1566.968,840.216c0.186,0.372,0.371,0.743,0.557,1.115C1567.288,840.813,1567.972,840.954,1566.968,840.216z"
		/>
	<path fill="#231F20" d="M1556.376,841.889c0.371,0.186,0.743,0.371,1.114,0.558C1557.119,842.26,1556.747,842.074,1556.376,841.889
		"/>
	<path fill="none" d="M1556.376,841.889c0.371,0.186,0.743,0.371,1.114,0.558C1557.119,842.26,1556.747,842.074,1556.376,841.889z"
		/>
	<path fill="#231F20" d="M1569.197,843.561c0.371,0.187,0.743,0.372,1.115,0.558C1569.94,843.933,1569.568,843.747,1569.197,843.561
		"/>
	<path fill="none" d="M1569.197,843.561c0.371,0.187,0.743,0.372,1.115,0.558C1569.94,843.933,1569.568,843.747,1569.197,843.561z"
		/>
	<path fill="#231F20" d="M1553.031,848.021v1.115V848.021z"/>
	<path fill="none" d="M1553.031,848.021v1.115V848.021z"/>
	<path fill="#231F20" d="M1559.721,858.055c0.371,0.186,0.743,0.371,1.114,0.558C1560.464,858.426,1560.092,858.24,1559.721,858.055
		"/>
	<path fill="none" d="M1559.721,858.055c0.371,0.186,0.743,0.371,1.114,0.558C1560.464,858.426,1560.092,858.24,1559.721,858.055z"
		/>
	<path fill="#231F20" d="M1556.934,863.071v1.115V863.071z"/>
	<path fill="none" d="M1556.934,863.071v1.115V863.071z"/>
	<path fill="#231F20" d="M1568.64,868.089c1.004,1.138,0.009,0.394,1.673,1.114C1569.309,868.066,1570.304,868.81,1568.64,868.089"
		/>
	<path fill="none" d="M1568.64,868.089c1.004,1.138,0.009,0.394,1.673,1.114C1569.309,868.066,1570.304,868.81,1568.64,868.089z"/>
	<path fill="#231F20" d="M1553.031,881.468v1.114C1553.575,881.609,1553.54,882.46,1553.031,881.468"/>
	<path fill="none" d="M1553.031,881.468v1.114C1553.575,881.609,1553.54,882.46,1553.031,881.468z"/>
	<path fill="#231F20" d="M1559.163,895.403c-0.187,0.372-0.372,0.744-0.558,1.115h1.673c-0.187-0.371-0.372-0.743-0.558-1.115
		H1559.163z"/>
	<path fill="none" d="M1559.163,895.403c-0.187,0.372-0.372,0.744-0.558,1.115h1.673c-0.187-0.371-0.372-0.743-0.558-1.115H1559.163
		z"/>
	<path fill="#231F20" d="M1563.065,904.881v1.672h1.114C1563.809,905.995,1563.437,905.438,1563.065,904.881"/>
	<path fill="none" d="M1563.065,904.881v1.672h1.114C1563.809,905.995,1563.437,905.438,1563.065,904.881z"/>
	<path fill="#231F20" d="M1561.393,918.259v1.115C1561.938,918.401,1561.901,919.251,1561.393,918.259"/>
	<path fill="none" d="M1561.393,918.259v1.115C1561.938,918.401,1561.901,919.251,1561.393,918.259z"/>
	<path fill="#231F20" d="M1558.605,941.672c1.405,0.907,0.093,0.55,1.673,0H1558.605z"/>
	<path fill="none" d="M1558.605,941.672c1.405,0.907,0.093,0.55,1.673,0H1558.605z"/>
	<path fill="#231F20" d="M1561.95,955.608c0.372,0.186,0.743,0.372,1.115,0.558C1562.693,955.98,1562.322,955.794,1561.95,955.608"
		/>
	<path fill="none" d="M1561.95,955.608c0.372,0.186,0.743,0.372,1.115,0.558C1562.693,955.98,1562.322,955.794,1561.95,955.608z"/>
	<path fill="#231F20" d="M1558.605,979.579v1.114C1559.15,979.721,1559.114,980.571,1558.605,979.579"/>
	<path fill="none" d="M1558.605,979.579v1.114C1559.15,979.721,1559.114,980.571,1558.605,979.579z"/>
	<path fill="#231F20" d="M1545.227,1029.192c0.775,1.071,0.057,0.333,1.115,1.114
		C1545.97,1029.936,1545.599,1029.563,1545.227,1029.192"/>
	<path fill="none" d="M1545.227,1029.192c0.775,1.071,0.057,0.333,1.115,1.114
		C1545.97,1029.936,1545.599,1029.563,1545.227,1029.192z"/>
	<path fill="#231F20" d="M1546.899,1029.192c0.557,0.371,1.114,0.743,1.672,1.114
		C1547.567,1029.169,1548.563,1029.913,1546.899,1029.192"/>
	<path fill="none" d="M1546.899,1029.192c0.557,0.371,1.114,0.743,1.672,1.114
		C1547.567,1029.169,1548.563,1029.913,1546.899,1029.192z"/>
	<path fill="#E07E27" d="M1988.4,795.718c2.038-3.612,4.845-14.165,2.229-20.068c-2.013-4.23-15.328-7.772-18.396-7.804v-7.247
		v-1.115c5.002,2.636,8.935,6.309,15.608,7.247c0.372-0.186,0.743-0.372,1.115-0.557c0.186-1.115,0.371-2.23,0.558-3.346
		c-4.424-2.882-13.725-9.371-17.839-6.689l-2.788-5.574c-4.328-2.497-6.919-0.011-13.378-1.115
		c-16.954-2.898-34.267-5.465-49.613-7.804c0.743-3.53,1.486-7.062,2.229-10.592c-1.115-8.175-2.229-16.353-3.344-24.528v-1.114
		c2.109-3.974,6.373-5.339,5.017-11.149s-8.959-16.188-6.689-24.527c1.096-4.024,4.237-3.82,4.46-10.034
		c-5.946,0.371-11.894,0.743-17.839,1.114c-0.372-0.556-0.743-1.114-1.115-1.672c19.589-2.358,37.558-0.616,55.745-4.46
		c0.372-0.371,0.744-0.743,1.115-1.115c-0.902-13.146-5.797-23.549-8.361-34.004c-5.326-21.709-3.395-43.06-10.592-64.664
		c-6.358-19.084-14.551-41.076-18.396-62.435c-0.186-9.662-0.371-19.326-0.557-28.987c-0.889-4.988-3.9-12.39-2.23-18.954
		c1.679-6.597,5.696-13.871,4.46-23.412c-1.161-8.959-9.36-22.61-6.689-34.562c1.485-3.345,2.974-6.69,4.46-10.035
		c2.121-10.566-0.758-20.118-2.23-28.987c-0.744-9.104-1.486-18.211-2.229-27.315c-4.043-19.983-12.226-34.756-22.298-48.498
		c-4.977-6.789-13.523-9.285-19.511-15.052c-5.292-5.097-6.443-11.264-16.166-12.263c-1.919-3.216-1.079-3.472,0-7.247
		c-3.827-5.472-8.528-14.061-15.052-16.724c-14.348,7.075-29.488,17.352-40.137,28.43h1.115
		c-5.547,3.387-22.053,20.185-28.43,20.626c2.242-17.17,36.77-41.961,50.728-49.613c4.569-2.505,12.629-1.812,17.28-5.017
		c6.08-4.189,1.878-9.143,5.018-15.609c0.912-1.877,4.312-3.456,5.018-6.132c1.399-5.302-2.126-9.042-0.558-14.494
		c-0.929-0.186-1.858-0.371-2.787-0.557c0.929-0.186,1.858-0.372,2.787-0.558c-1.121-8.963-3.381-30.903-7.247-37.907
		c-2.005-3.632-12.562-7.773-8.919-12.821c0.372-0.371,0.743-0.743,1.115-1.115c-1.804-2.047-2.588-4.062-5.018-5.574
		c-2.786,0.929-5.575,1.858-8.361,2.787c-1.126-4.382-2.358-7.114-7.805-8.362c0.743-1.114,1.487-2.23,2.229-3.344l-0.557-1.115
		c-8.586-1.167-15.548,0.78-22.855,1.115c-2.416-1.115-4.832-2.23-7.247-3.345c-5.255-1.61-13.339,2.445-17.281,3.902h-0.558
		c1.288-1.777,1.958-1.357,2.787-3.902c-11.82,0.007-14.236,8.581-20.067,14.494c-2.896-2.025-3.442-1.969-8.362-1.673
		c-2.561,3.395-7.142,10.591-7.805,15.052c-1.113,0.186-2.229,0.371-3.344,0.557c0.617,3.625,1.711,5.457,3.344,7.804
		c-2.332,8.973-7.376,22.638-11.706,31.218c-2.078,4.118,2.907,4.966,1.115,9.476c-2.659,6.691-8.729,10.92-11.707,18.396
		c2.316,3.939,3.291,6.562,8.92,7.247c0.371,0.557,0.743,1.115,1.114,1.672c-1.857,0.743-3.717,1.487-5.574,2.23
		c-3.259,2.338-4.193,8.075-3.902,13.936c2.229,2.973,4.459,5.947,6.689,8.92c0.762,1.489,0.066,0.338,1.673,0
		c1.051,3.123,0.651,4.013,0,7.247c1.114,0.185,2.229,0.371,3.345,0.557c-1.137,5.823-18.924,23.326-5.575,27.872
		c1.11-2.041-0.263-0.943,2.23-1.672c0.591,4.572,3.798,9.532,6.132,13.936c0.557,0.186,1.115,0.372,1.672,0.558
		c5.466-3.995,12.774-5.694,16.724-11.149c0.743-2.601,1.487-5.203,2.229-7.805c1.859-2.914,6.508-3.256,8.362-6.689
		c4.459,0.372,8.92,0.743,13.379,1.115v1.115c0.371,1.115,0.743,2.23,1.114,3.345c-0.186,0.557-0.371,1.114-0.557,1.672
		c-3.94,2.58-8.287,0.461-13.379,1.672c-3.53,3.159-7.062,6.318-10.592,9.477c0.582,7.147,0.096,6.07-3.345,10.591
		c0.997,3.792,3.026,5.694,5.017,8.362c-3.511,6.008-10.685,7.696-15.608,12.264c0.491,3.322,1.575,4.759,3.345,6.69
		c-2.044,11.559-14.681,19.556-18.953,29.545c-8.826,20.636-6.188,48.176-15.609,66.336c-2.491,4.803-7.637,4.068-11.707,7.247
		c-2.785,4.645-5.573,9.291-8.36,13.936c-3.698,4.757-9.714,7.854-15.052,11.149c-2.973,4.831-5.946,9.663-8.92,14.494
		c-2.826,3.943-6.826,5.553-10.033,8.919c-2.043,4.274-4.088,8.548-6.133,12.822c-2.16,3.177-3.555,0.363-6.688,1.672
		c-3.147,1.315-18.741,20.235-18.953,25.085c4.054,5.683,25.015,25.684,23.972,29.545l4.459,1.115v0.558
		c-1.301,0.743-2.603,1.486-3.902,2.23c-4.226-0.361-7.128-1.927-9.481-4.006c0.002,0.002,0.003,0.003,0.004,0.006
		c-0.006-0.007-0.013-0.014-0.019-0.02c-1.919-1.699-3.475-3.737-5.076-5.747c0.025,0.062,0.049,0.121,0.078,0.192h-1.115v-1.471
		c-1.598-1.927-3.328-3.749-5.574-5.12c-0.186,0.185-0.373,0.371-0.558,0.557c1.991,2.532,5.894,5.307,3.902,10.034
		c-1.406,2.017-1.841,0.581-4.46,1.672c-2.408,1.319-2.793,2.84-2.787,5.017c-2.518-0.21-2.398-0.031-4.459,1.115
		c-0.744-1.3-1.487-2.601-2.23-3.902c-2.111,1.344-1.383,1.557-1.115,5.017c-2.596-0.196-1.467-1.096-2.787,1.115
		c-2.714-1.108-4.464-3.338-5.574-6.132h-1.672c0.186,1.487,0.371,2.973,0.557,4.46c-1.994-0.017-1.41-0.419-4.459,0
		c-0.186-1.487-0.372-2.973-0.558-4.46c-2.742,1.239-2.277,0.989-1.115,3.345c-0.929,0.557-1.858,1.115-2.787,1.672l-2.229-2.787
		l-1.673,2.787c0.93,0.929,1.858,1.858,2.788,2.787c3.901-0.557,7.805-1.115,11.706-1.672c0.186,0.186,0.372,0.372,0.558,0.557
		v1.673c-5.767,1.825-10.238-0.627-17.281,1.115c-7.602,1.88-10.107,8.129-18.953,8.362c-2.465-3.136-4.069-4.303-3.345-9.477
		c3.208-1.419,3.419-4.495,6.689-6.132c1.1-0.89,0.761-0.756,2.787-1.115c0.929,1.672,1.858,3.345,2.787,5.017
		c0.743,0.186,1.486,0.372,2.229,0.557c-0.743-2.415-1.486-4.831-2.229-7.246c2.821-0.178,6.496-2.554,11.706-2.787
		c0.744-1.858,1.487-3.717,2.23-5.575v-0.558h-3.345c-0.372-1.486-0.743-2.973-1.115-4.459l-1.114-0.557h-0.558
		c-0.015,4.344,0.675,6.464,2.229,8.919c-5.202,0.371-10.406,0.743-15.608,1.114c-0.187-0.371-0.372-0.743-0.558-1.114
		c0.816-5.361,4.115-8.424,5.574-14.494c10.96-3.111,24.33-4.646,36.792-5.017c3.138,3.146,4.615,6.829,8.362,9.476h0.557
		c-2.229-3.715-4.459-7.433-6.689-11.149c1.486-0.929,2.973-1.858,4.46-2.787v-1.672c-4.878,0.925-10.12,3.859-13.937,5.017
		c-3.344-0.186-6.689-0.372-10.034-0.558c-7.899,1.042-15.278,3.142-21.74,5.018c-1.928,6.271-7.406,12.86-4.46,17.838
		c-12.353,3.076-33.37,5.666-42.924,15.051c-0.41,4.092,19.905,41.601,23.413,48.498c7.821,15.381,9.927,55.952,12.821,79.716
		c2.765,22.688,1.873,56.227-3.345,79.716c-1.925,8.668-5.579,20.761-3.901,30.659c1.612,9.521,3.67,17.115,7.246,23.971
		c-1.293,1.499-1.82,25.627-1.114,29.545c1.446,8.042,6.843,14.522,6.132,24.527c-2.061,28.98-2.023,55.64-6.689,83.618
		c-2.841,17.032-0.584,30.195-3.902,46.269c-2.415,11.147-4.832,22.299-7.247,33.446c-0.558,0.372-1.114,0.744-1.672,1.115
		c-5.76-7.246-11.521-14.494-17.281-21.74c-0.372,1.301-0.743,2.602-1.115,3.902l-4.459-3.902c-0.558,0.557-1.115,1.115-1.673,1.672
		c4.831,6.689,9.663,13.38,14.494,20.068c3.967,1.849,7.636,0.962,9.477,4.46v5.017c3.596,2.038,11.594,0.684,16.724,1.673
		c0.159-22.001,11.066-52.86,16.724-73.026c1.938-6.907-0.192-11.87,1.672-18.953c5.794-22.012,8.569-59.668,10.034-84.176
		c18.825-3.782,20.444,32.261,17.281,50.729c-8.361,48.809-11.764,121.154-0.558,170.58c2.021,8.912,1.037,20.186,3.902,27.873
		c5.718,0.962,11.503-1.777,15.608-2.23c4.698-4.945-1.056-34.692-1.114-45.711c-0.191-35.447-0.168-64.559,3.9-94.209
		c0.668-4.854-1.564-11.136,1.116-16.166c2.317-3.351,57.895-7.41,68.566-3.902c3.769,4.184,1.157,14.958,2.229,21.741
		c2.162,13.666,1.014,31.682,6.133,44.596c2.83,0.721,9.379,1.442,12.264,0.558c5.588-6.247,2.416-60.72,3.345-68.567
		c25.633-1.746,45.985-7.836,69.124-13.378c10.432-2.499,19.922-1.799,27.872-5.575l1.115,1.116
		c0.186,8.174,0.371,16.352,0.558,24.526c-0.187,5.017-0.372,10.035-0.558,15.052c1.114,13.377,2.229,26.759,3.345,40.137v26.758
		c-5.166,3.821-13.109,2.975-15.609,9.477c6.817-1.541,7.988-2.461,15.609-3.902c0.781,1.059,0.043,0.339,1.114,1.114
		c-5.265,17.928-40.474,33.772-39.021,50.171c-2.601,0.371-5.203,0.743-7.804,1.115c-0.743,1.114-1.487,2.229-2.23,3.346
		c0.558,0.928,1.115,1.857,1.673,2.786c16.823,6.269,70.565,2.264,81.388-4.46c6.007-3.731,6.877-8.246,10.592-14.493
		c5.502-9.256,17.968-6.544,28.987-7.247c3.06-4.637,5.536-10.355,6.689-15.608c-0.187-1.487-0.372-2.974-0.558-4.46
		c1.192-2.835,5.972-4.18,7.247-7.805c4.188-11.903,0.538-30.263,2.229-41.809c5.834-39.827,14.269-94.732,4.459-136.018
		c-2.837-11.942,0.041-23.476-2.787-34.005c0.371-0.372,0.744-0.743,1.115-1.115c1.374,4.772,6.227,9.942,11.707,10.592
		c3.488-5.254,7.959-11.873,12.264-16.724c8.518,7.389,13.61,19.448,20.626,28.43c-0.187,0.93-0.372,1.858-0.558,2.788
		c1.988,8.197-1.874,16.585,0.558,25.085c1.3,3.901,2.602,7.805,3.901,11.706c3.409,2.042,3.797,1.065,7.247-0.557
		c-0.558,1.114-1.115,2.229-1.672,3.345c0.557,0.743,1.114,1.486,1.672,2.229c0.929-0.186,1.858-0.372,2.788-0.558
		c7.209-6.942,23.479-59.608,20.625-75.256c-1.954-10.72-4.506-21.231-3.345-32.332
		C1983.568,796.09,1985.985,795.903,1988.4,795.718 M1933.213,613.334c-1.13-0.761-0.908-0.615-1.673-1.673
		C1932.588,612.437,1932.457,612.188,1933.213,613.334 M1929.868,629.5c0.371,0.186,0.743,0.371,1.114,0.557v0.558
		c-0.371,0.188-0.743,0.372-1.114,0.558c-0.187-0.37-0.372-0.743-0.558-1.115C1929.496,629.871,1929.682,629.686,1929.868,629.5
		 M1925.966,625.04h1.673C1926.059,625.59,1927.371,625.947,1925.966,625.04 M1927.081,587.133
		c-1.664-0.721-0.669,0.023-1.673-1.115C1927.072,586.739,1926.077,585.995,1927.081,587.133 M1925.966,594.38h1.115l-1.673,1.115
		C1925.594,595.124,1925.78,594.752,1925.966,594.38 M1918.719,537.521c-1.664-0.721-0.668,0.023-1.672-1.115
		C1918.711,537.126,1917.715,536.382,1918.719,537.521 M1905.897,507.418c-0.372-0.372-0.743-0.744-1.114-1.116
		C1905.841,507.084,1905.121,506.346,1905.897,507.418 M1904.783,465.609c-0.188,0.371-0.372,0.743-0.559,1.114
		c-0.186-0.371-0.371-0.743-0.557-1.114H1904.783z M1612.121,507.976v-1.115C1612.629,507.853,1612.665,507.002,1612.121,507.976
		 M1694.623,556.473c-0.186-0.371-0.371-0.743-0.557-1.115C1695.07,556.096,1694.387,555.957,1694.623,556.473 M1695.738,846.348
		c-1.337,0.652-0.73,1.383-1.672,0H1695.738z M1694.623,894.847c-1.337,0.651-0.73,1.382-1.672,0H1694.623z M1684.59,495.711
		c0.508,0.992,0.544,0.142,0,1.115V495.711z M1657.832,515.779c-1.13-0.76-0.907-0.615-1.673-1.672
		C1656.717,514.664,1657.274,515.222,1657.832,515.779 M1647.798,461.149c0.371,0.557,0.743,1.115,1.114,1.672h-1.114V461.149z
		 M1644.453,529.158c11.008-12.595,29.796-17.033,39.579-31.217h2.229c1.115,12.82,2.23,25.644,3.345,38.464
		c-0.186,0.186-0.372,0.372-0.558,0.558c-13.564-1.518-31.852-7.123-44.596-7.247V529.158z M1686.819,756.599
		c-0.186-0.372-0.372-0.743-0.558-1.115C1687.266,756.222,1686.583,756.081,1686.819,756.599 M1686.262,567.622
		c-0.371-0.371-0.743-0.743-1.115-1.114c0.187-0.187,0.372-0.373,0.558-0.558c0.558,0.185,1.115,0.371,1.673,0.558
		C1687.005,566.879,1686.634,567.251,1686.262,567.622 M1683.475,701.969c-0.186-0.372-0.371-0.744-0.558-1.115
		C1683.922,701.593,1683.238,701.451,1683.475,701.969 M1681.245,869.761h-0.558c-0.186-0.743-0.372-1.486-0.558-2.229
		C1681.266,868.621,1680.736,867.726,1681.245,869.761 M1679.572,749.909c-0.186-0.372-0.371-0.743-0.559-1.115
		C1680.02,749.532,1679.336,749.392,1679.572,749.909 M1676.228,539.75c0.187-0.372,0.372-0.743,0.558-1.115
		C1676.533,539.252,1677.262,539.055,1676.228,539.75 M1672.325,584.346c-1.058-0.781-0.339-0.044-1.114-1.115
		C1671.582,583.603,1671.954,583.974,1672.325,584.346 M1645.011,711.445c0.558,0.371,1.114,0.743,1.671,1.114v0.558
		c-0.742-0.186-1.485-0.371-2.229-0.558C1644.639,712.188,1644.824,711.816,1645.011,711.445 M1643.896,535.847
		c-0.186,0.372-0.372,0.744-0.558,1.116c-0.186-0.372-0.371-0.744-0.558-1.116H1643.896z M1636.092,473.413
		c-0.187-0.372-0.371-0.743-0.558-1.115C1636.538,473.036,1635.855,472.896,1636.092,473.413 M1626.057,549.784h1.115v1.672h-0.558
		c-0.371-0.371-0.743-0.743-1.114-1.114C1625.686,550.155,1625.871,549.969,1626.057,549.784 M1612.121,549.784l0.557,2.229h-0.557
		V549.784z M1603.759,543.652c-0.186-0.372-0.372-0.744-0.558-1.115C1604.206,543.275,1603.522,543.134,1603.759,543.652
		 M1577.559,827.395c0.371,0.372,0.744,0.743,1.115,1.115C1577.615,827.729,1578.335,828.468,1577.559,827.395 M1582.019,853.595
		l-1.115,1.115c-0.186-0.186-0.371-0.372-0.558-0.558c0.187-0.371,0.372-0.743,0.558-1.115h1.115V853.595z M1581.461,781.684
		c0.186-0.371,0.372-0.743,0.558-1.115h1.115C1582.128,781.694,1583.146,780.981,1581.461,781.684 M1585.363,862.514
		c1.059,0.781,0.339,0.044,1.115,1.115C1586.106,863.259,1585.734,862.886,1585.363,862.514 M1567.524,790.603
		c-0.558,0.372-1.114,0.744-1.672,1.115c-4.183-16.671,0.325-39.44,1.672-56.86c8.929-2.521,59.415-10.818,63.55-15.051
		c0.371,0.372,0.743,0.744,1.115,1.115c-0.461,1.553-0.293,0.955,0.557,2.229c5.975-2.476,38.559-1.299,44.039,1.673h1.115
		c1.19,8.104-6.465,20.381-8.362,28.987c0.187,4.645,0.372,9.291,0.558,13.936C1644.812,761.513,1579.997,770.709,1567.524,790.603
		 M1672.883,845.233c-1.337,0.651-0.73,1.382-1.672,0H1672.883z M1661.734,841.331c-1.664-0.721-0.669,0.023-1.673-1.114
		C1660.619,840.588,1661.177,840.959,1661.734,841.331 M1653.372,774.437c-0.77,0.932-1.27,0.987-2.229,1.673l-1.115-1.115
		c0.186-0.186,0.372-0.371,0.558-0.558H1653.372z M1631.632,786.144c-0.187-0.372-0.372-0.743-0.558-1.115
		C1632.078,785.767,1631.396,785.626,1631.632,786.144 M1626.057,868.646c-0.186-0.372-0.371-0.744-0.557-1.115
		C1626.504,868.27,1625.82,868.129,1626.057,868.646 M1621.598,910.455c-0.558,0.558-1.115,1.115-1.673,1.672
		c0.187-1.114,0.372-2.229,0.558-3.345C1620.854,909.34,1621.226,909.897,1621.598,910.455 M1606.547,776.109
		c0.557,0.371,1.114,0.743,1.672,1.115C1606.214,777.369,1607.586,777.83,1606.547,776.109 M1607.104,780.568
		c-0.371,0.744-0.743,1.487-1.114,2.23c0.186-0.743,0.371-1.486,0.558-2.23H1607.104z M1599.3,946.132
		c-0.187-0.372-0.372-0.743-0.558-1.115C1599.746,945.755,1599.063,945.614,1599.3,946.132 M1598.185,926.621
		c-0.186-0.372-0.372-0.743-0.558-1.115C1598.632,926.244,1597.948,926.104,1598.185,926.621 M1598.185,830.739
		c1.005,0.738,0.321,0.598,0.558,1.115C1598.557,831.482,1598.37,831.111,1598.185,830.739 M1596.512,936.098
		c1.125,1.006,0.413-0.013,1.115,1.672h-1.115V936.098z M1597.069,1016.928c-0.186-0.371-0.371-0.743-0.558-1.114
		c1.059-0.781,0.34-0.044,1.115-1.115c0.558,0.372,1.115,0.743,1.673,1.115c-0.187,0.371-0.372,0.743-0.558,1.114H1597.069z
		 M1599.3,1060.409v-1.114C1599.809,1060.286,1599.844,1059.437,1599.3,1060.409 M1603.201,1025.29
		c0.372,0.371,0.744,0.743,1.115,1.114C1603.258,1025.623,1603.978,1026.361,1603.201,1025.29 M1604.874,908.782v-2.229
		c0.186,0.743,0.372,1.486,0.558,2.229H1604.874z M1604.874,900.421c-0.186-0.372-0.372-0.743-0.558-1.115
		C1605.321,900.044,1604.637,899.903,1604.874,900.421 M1605.989,996.859c0.186-0.557,0.371-1.114,0.558-1.672
		C1607.005,996.56,1606.753,995.664,1605.989,996.859 M1607.104,967.872c-0.186-0.371-0.371-0.743-0.557-1.113
		C1607.551,967.496,1606.867,967.354,1607.104,967.872 M1609.891,1061.524c0.187-0.557,0.371-1.115,0.558-1.673
		C1610.537,1061.312,1611.055,1060.25,1609.891,1061.524 M1612.121,873.105c-0.186-0.371-0.372-0.743-0.558-1.114
		C1612.568,872.729,1611.885,872.588,1612.121,873.105 M1613.793,917.145v-1.115
		C1614.302,917.021,1614.338,916.172,1613.793,917.145 M1612.678,865.858c-0.371,0.372-0.742,0.744-1.114,1.115
		c-2.42-2.486-8.078-11.307-7.805-13.937c4.071,0.951,9.15,4.657,11.149,7.806C1616.185,863.565,1614.932,864.908,1612.678,865.858
		 M1616.023,840.773c0.371,0.186,0.742,0.372,1.113,0.558c-0.371,0.371-0.742,0.743-1.113,1.115V840.773z M1616.58,912.127
		c0.186-0.371,0.372-0.742,0.557-1.114h1.116C1619.311,912.569,1618.196,911.831,1616.58,912.127 M1617.137,915.472
		c1.665,0.722,0.67-0.023,1.674,1.115C1618.253,916.215,1617.695,915.844,1617.137,915.472 M1629.959,946.132
		c-0.186-0.372-0.371-0.743-0.557-1.115h1.113C1630.331,945.389,1630.145,945.76,1629.959,946.132 M1636.092,941.672
		c0.371-0.186,0.742-0.371,1.114-0.557C1638.41,941.438,1636.092,941.672,1636.092,941.672 M1690.164,886.484
		c-3.885,14.614-1.169,30.423-1.672,46.826c-19.05,9.698-47.817,3.027-66.895,10.034h-1.673c1.487-16.908,2.974-33.82,4.46-50.729
		c-0.186-7.06-0.371-14.122-0.558-21.183c0.891,1.1,0.757,0.761,1.115,2.787c5.778,3.266,55.845-1.14,65.778-2.229v1.114
		C1690.721,873.105,1691.132,882.844,1690.164,886.484 M1693.509,773.879c-1.663-0.721-0.669,0.024-1.673-1.114
		C1693.5,773.485,1692.505,772.741,1693.509,773.879 M1694.066,899.863c0.743,0.186,1.486,0.372,2.229,0.558v1.115
		c-0.372,0.557-0.743,1.114-1.114,1.672h-2.23c-0.186-0.558-0.371-1.115-0.558-1.672L1694.066,899.863z M1694.066,919.374v-1.114
		C1694.574,919.251,1694.61,918.401,1694.066,919.374 M1693.509,987.94c0.372,0.372,0.743,0.743,1.114,1.115v1.672h-1.672
		C1693.137,989.799,1693.323,988.869,1693.509,987.94 M1695.738,926.063c-0.186-0.371-0.371-0.743-0.557-1.115
		C1696.186,925.687,1695.502,925.546,1695.738,926.063 M1696.296,1007.451h1.673
		C1696.631,1008.104,1697.237,1008.834,1696.296,1007.451 M1697.969,971.774c1.125,1.006,0.412-0.013,1.114,1.673
		C1698.712,972.89,1698.34,972.332,1697.969,971.774 M1699.641,934.982c-0.186-0.371-0.371-0.743-0.558-1.114
		C1700.088,934.606,1699.404,934.465,1699.641,934.982 M1701.87,998.532c-0.186-0.372-0.371-0.743-0.558-1.115
		C1702.317,998.155,1701.634,998.015,1701.87,998.532 M1707.445,725.381c0.186-0.371,0.371-0.743,0.557-1.114
		c0.372,0.371,0.744,0.743,1.115,1.114H1707.445z M1706.887,543.094v-0.557c0.559-0.186,1.115-0.372,1.673-0.558
		C1710.516,541.514,1708.553,542.868,1706.887,543.094 M1816.148,573.197c-0.187,0.371-0.372,0.743-0.558,1.115
		c-0.187-0.372-0.372-0.744-0.558-1.115H1816.148z M1813.918,934.982v-1.672h0.557
		C1814.29,933.868,1814.104,934.427,1813.918,934.982 M1814.475,896.519h1.116v2.787h-0.558
		C1814.848,898.377,1814.661,897.447,1814.475,896.519 M1802.77,730.398c-0.187,0.371-0.372,0.743-0.558,1.114
		c-0.187-0.371-0.372-0.743-0.558-1.114H1802.77z M1798.31,700.854c0.186,0.371,0.372,0.743,0.558,1.115h-1.115
		C1797.938,701.597,1798.124,701.225,1798.31,700.854 M1798.31,715.347c-0.372-0.371-0.743-0.743-1.115-1.114
		C1798.253,715.014,1797.533,714.275,1798.31,715.347 M1796.637,555.917l-0.557-1.115
		C1797.084,555.539,1796.4,555.398,1796.637,555.917 M1794.965,723.709c0.558,0.186,1.115,0.371,1.672,0.558
		c2.366,1.54,2.894,3.379,1.673,5.575c-1.61,1.794-5.735,1.931-8.362,0.557h-1.114v-0.557
		C1790.519,727.145,1793.036,726.109,1794.965,723.709 M1788.275,563.72h1.115c-0.187,0.372-0.372,0.744-0.558,1.115
		C1788.646,564.464,1788.461,564.092,1788.275,563.72 M1791.62,709.772c-0.186,0.372-0.372,0.743-0.558,1.115
		c-0.186-0.372-0.371-0.743-0.558-1.115H1791.62z M1767.092,536.963c3.783,1.672,24.636,20.512,25.644,23.97
		c-16.384-0.768-16.987-17.848-32.89-20.069C1763.012,539.369,1764.823,539.081,1767.092,536.963 M1787.718,842.446v0.557
		c-0.372,0.187-0.743,0.372-1.114,0.558c-0.187-0.371-0.372-0.743-0.558-1.114c0.186-0.187,0.371-0.372,0.558-0.558
		C1786.975,842.074,1787.346,842.26,1787.718,842.446 M1782.701,559.26c-0.743,0.372-1.486,0.744-2.23,1.115
		c0.187-0.371,0.372-0.743,0.558-1.115H1782.701z M1757.059,533.618c-2.014-0.392-1.682-0.222-2.788-1.115
		C1756.283,532.895,1755.952,532.726,1757.059,533.618 M1744.236,539.75c11.359,0.746,17.846,1.735,25.086,7.247
		c3.989,3.036,4.339,7.145,10.034,8.919c0.371,0.557,0.743,1.115,1.114,1.672c-0.186,0.743-0.371,1.487-0.557,2.23
		c-8.686,1.342-19.527,0.956-29.545-1.115c-2.416-0.557-4.832-1.115-7.247-1.673c-4.496,1.083-10.024,5.744-14.494,5.575
		c-0.371,0.558-0.743,1.115-1.114,1.673c0.742,1.486,1.486,2.973,2.229,4.459c-2.155,1.869-3.493,1.146-4.46,4.46h-3.345
		c-0.186-0.372-0.371-0.744-0.558-1.115c1.657-4.815,0.979-10.378-0.557-15.609C1727.596,549.686,1738.06,547.197,1744.236,539.75
		 M1777.126,563.163c0.187-0.372,0.372-0.744,0.558-1.115c0.186,0.371,0.371,0.743,0.558,1.115H1777.126z M1770.994,855.824
		l-1.114-1.114C1770.938,855.491,1770.219,854.753,1770.994,855.824 M1764.305,745.449c-1.058-0.781-0.338-0.043-1.114-1.114
		L1764.305,745.449z M1760.96,727.611c-0.371-0.372-0.743-0.744-1.114-1.115C1760.903,727.277,1760.184,726.539,1760.96,727.611
		 M1749.812,575.984c-1.664-0.721-0.669,0.024-1.673-1.115C1749.803,575.59,1748.807,574.845,1749.812,575.984 M1743.122,788.373
		c-1.664-0.721-0.669,0.023-1.673-1.114C1743.113,787.979,1742.118,787.234,1743.122,788.373 M1733.646,581.559h-1.673
		c0.186-0.371,0.373-0.743,0.558-1.114h0.558C1733.273,580.815,1733.459,581.188,1733.646,581.559 M1721.381,531.946
		c-1.062-0.844-1.006-0.987-1.672-2.23C1720.266,530.459,1720.824,531.202,1721.381,531.946 M1721.381,852.48
		c-1.337,0.652-0.73,1.382-1.672,0H1721.381z M1716.364,540.864c-0.185,0.372-0.372,0.744-0.558,1.115
		c-0.186-0.371-0.371-0.743-0.558-1.115H1716.364z M1713.577,549.784c0.371,0.185,0.743,0.371,1.114,0.558
		c-0.371,0.371-0.743,0.743-1.114,1.114V549.784z M1716.922,567.065c0.743,0.186,1.486,0.371,2.229,0.557v6.132
		c-1.858,0.558-3.717,1.115-5.574,1.672c-0.187-0.743-0.372-1.486-0.558-2.229C1714.32,571.153,1715.621,569.109,1716.922,567.065
		 M1713.02,861.957c1.136,1.09,0.606,0.194,1.115,2.229h-1.115V861.957z M1712.462,936.098c0.558,0.372,1.115,0.744,1.673,1.115
		C1712.471,936.491,1713.466,937.236,1712.462,936.098 M1762.075,934.427c0.186-0.373,0.372-0.745,0.558-1.116
		C1762.693,934.437,1763.223,933.939,1762.075,934.427 M1765.978,933.868h-0.558c-0.371-0.372-0.743-0.743-1.115-1.115
		c0.372-0.37,0.744-0.743,1.115-1.115h1.115C1766.348,932.381,1766.163,933.125,1765.978,933.868 M1811.688,923.834
		c0.186-0.372,0.372-0.742,0.558-1.115C1812.535,923.932,1812.688,923.088,1811.688,923.834 M1810.016,917.145
		c-9.404,1.121-24.199,5.235-34.004,7.247c-21.182,2.043-42.369,4.088-63.55,6.132h-0.558c-2.902-10.514,1.504-60.06,5.018-62.435
		c4.297-2.117,12.158,0.453,16.724-0.558c12.291-2.723,67.895-1.772,75.256-8.361c2.044,0.557,4.088,1.114,6.132,1.673
		C1813.361,879.607,1811.688,898.379,1810.016,917.145 M1813.918,1028.077v-1.673h2.23l0.557,1.673v0.558h-1.672
		C1814.661,1028.449,1814.29,1028.263,1813.918,1028.077 M1820.05,1042.014h-2.229c-0.371-0.186-0.743-0.372-1.115-0.558
		c0.186-0.372,0.372-0.743,0.557-1.114c2.014,0.391,1.682,0.222,2.788,1.114V1042.014z M1820.05,957.838v-1.672
		c0.372,0.371,0.743,0.743,1.115,1.115C1820.793,957.468,1820.422,957.652,1820.05,957.838 M1822.28,853.595
		c-0.187-0.929-0.372-1.858-0.558-2.787c0.371,0.929,0.743,1.858,1.115,2.787H1822.28z M1825.625,921.047
		c-0.187-0.371-0.372-0.744-0.558-1.115C1826.071,920.67,1825.389,920.529,1825.625,921.047 M1826.739,920.489
		c1.664,0.721,0.669-0.022,1.673,1.114C1827.854,921.232,1827.297,920.86,1826.739,920.489 M1839.004,737.646
		c-0.372-0.558-0.744-1.115-1.115-1.673C1839.014,736.979,1838.302,735.96,1839.004,737.646 M1830.641,1065.983
		c1.715-2.923,3.284-3.942,5.575-6.132l-2.229-3.902c2.973,0.558,5.945,1.115,8.919,1.673
		C1841.508,1060.719,1833.747,1064.701,1830.641,1065.983 M1854.055,1059.852c-0.186-0.371-0.373-0.743-0.558-1.114
		C1854.502,1059.475,1853.818,1059.334,1854.055,1059.852 M1861.302,641.206c-0.187-0.372-0.372-0.743-0.558-1.114
		C1861.748,640.829,1861.065,640.688,1861.302,641.206 M1872.45,1072.115c0.187-0.557,0.372-1.114,0.558-1.672h0.558
		C1872.845,1072.107,1873.589,1071.112,1872.45,1072.115 M1878.582,733.186c0.557,0.186,1.115,0.371,1.673,0.558v0.558h-2.229
		C1878.211,733.929,1878.396,733.557,1878.582,733.186 M1878.025,1058.18v-0.558c0.743-0.372,1.486-0.743,2.229-1.115
		c0.558,0.187,1.115,0.372,1.673,0.558C1880.716,1058.033,1880.43,1058.063,1878.025,1058.18 M1898.65,708.657l-1.114-1.114
		C1898.594,708.324,1897.875,707.586,1898.65,708.657 M1900.881,707.543c-0.372,0.186-0.744,0.371-1.115,0.558
		c-0.186-0.558-0.371-1.115-0.558-1.673C1899.766,706.801,1900.323,707.171,1900.881,707.543 M1896.421,694.164h1.673
		c0.371,1.857,0.743,3.717,1.114,5.574c-1.301-0.371-2.602-0.743-3.903-1.115C1895.678,697.137,1896.049,695.65,1896.421,694.164
		 M1893.076,694.722c0.371,0.371,0.743,0.743,1.115,1.114C1893.133,695.055,1893.853,695.793,1893.076,694.722 M1889.731,698.066
		c-1.664-0.722-0.669,0.023-1.673-1.115C1888.616,697.322,1889.174,697.694,1889.731,698.066 M1886.944,1006.337
		c0.186-0.372,0.372-0.743,0.558-1.115c0.186,0.372,0.371,0.743,0.557,1.115H1886.944z M1886.944,956.724
		c0.372-0.558,0.743-1.115,1.114-1.673h1.115c-0.371,0.743-0.744,1.487-1.115,2.23
		C1887.688,957.095,1887.316,956.909,1886.944,956.724 M1888.616,1007.451c0.187-0.557,0.372-1.115,0.558-1.672
		C1889.632,1007.15,1889.381,1006.256,1888.616,1007.451 M1889.731,822.378c1.059,0.781,0.339,0.043,1.114,1.114
		C1890.475,823.121,1890.104,822.749,1889.731,822.378 M1892.519,693.606c-1.094-1.449-0.544-0.522-0.558-2.229
		c0.372,0.186,0.744,0.371,1.115,0.558C1892.891,692.491,1892.705,693.049,1892.519,693.606 M1895.305,815.688v-1.673
		c1.127,1.006,0.414-0.013,1.116,1.673H1895.305z M1898.65,986.269c0.372,0.371,0.744,0.743,1.115,1.115
		C1898.707,986.602,1899.427,987.34,1898.65,986.269 M1901.438,938.327c-0.742-0.186-1.486-0.371-2.229-0.558
		c0.187-0.371,0.372-0.743,0.558-1.114h1.672V938.327z M1902.553,692.491h-1.672v-1.672c0.557,0.371,1.114,0.743,1.672,1.115
		V692.491z M1905.897,749.352c-1.059-0.781-0.339-0.043-1.114-1.115C1905.154,748.608,1905.525,748.98,1905.897,749.352
		 M1904.225,753.812c0.187-1.301,0.371-2.602,0.559-3.902c0.186,1.114,0.371,2.229,0.557,3.345
		C1904.969,753.439,1904.596,753.625,1904.225,753.812 M1906.455,808.441c-0.186-0.371-0.372-0.743-0.558-1.115
		C1906.902,808.064,1906.219,807.924,1906.455,808.441 M1907.57,835.758c-0.372-0.559-0.744-1.116-1.115-1.674
		c0.743,0.186,1.486,0.372,2.229,0.558C1908.313,835.014,1907.941,835.385,1907.57,835.758 M1953.281,758.271
		c1.044,1.61,0.719,0.406,0,2.23v1.114c-0.372-0.371-0.744-0.743-1.115-1.114C1952.537,759.759,1952.909,759.014,1953.281,758.271
		 M1918.161,767.19c0.372,0.371,0.743,0.743,1.115,1.114C1918.218,767.523,1918.938,768.262,1918.161,767.19 M1924.85,764.96
		c-0.185-0.371-0.37-0.742-0.557-1.114h1.115C1925.223,764.218,1925.037,764.589,1924.85,764.96 M1924.293,761.615v-1.672
		c0.372,0.186,0.744,0.371,1.115,0.558C1925.037,760.872,1924.665,761.244,1924.293,761.615 M1928.753,824.051
		c1.059,0.78,0.339,0.042,1.115,1.114L1928.753,824.051z M1925.966,751.023v-2.229c3.062,0.2,4.515,0.715,6.132,2.229H1925.966z
		 M1933.771,754.926c1.663,0.722,0.668-0.023,1.672,1.115C1933.778,755.32,1934.773,756.064,1933.771,754.926 M1937.115,811.229
		v-1.672h0.557C1937.486,810.113,1937.301,810.671,1937.115,811.229 M1938.229,793.391v-1.115
		C1938.738,793.268,1938.774,792.417,1938.229,793.391 M1938.787,753.812c-0.186-0.372-0.371-0.743-0.558-1.115
		C1939.234,753.435,1938.551,753.294,1938.787,753.812 M1941.574,810.113h1.115c-0.186,0.372-0.372,0.744-0.558,1.115
		C1941.946,810.857,1941.76,810.485,1941.574,810.113 M1944.361,779.454v-1.673h1.673L1944.361,779.454z M1948.264,821.263h1.115
		c-0.743,0.558-1.486,1.115-2.23,1.673C1947.521,822.378,1947.893,821.82,1948.264,821.263 M1955.511,847.463v1.115
		c-2.602-3.345-5.204-6.69-7.805-10.034c0.743-0.372,1.487-0.743,2.23-1.115c3.903,1.894,4.354,5.128,6.689,8.362
		C1956.254,846.348,1955.883,846.905,1955.511,847.463 M1958.855,792.275c-0.186,0.371-0.372,0.743-0.558,1.115
		c-0.186-0.372-0.372-0.744-0.558-1.115H1958.855z M1959.413,871.991c-1.337,0.651-0.731,1.382-1.673,0H1959.413z M1959.413,886.484
		c-0.187,0.186-0.372,0.372-0.558,0.558h-0.558c-0.371-1.672-0.743-3.345-1.114-5.017c0.742,0.186,1.486,0.371,2.229,0.557
		c0.185,0.558,0.371,1.115,0.557,1.673C1959.784,884.998,1959.598,885.741,1959.413,886.484 M1961.085,884.255v-1.115
		C1961.594,884.133,1961.63,883.282,1961.085,884.255 M1967.217,756.599c1.588,1.766,0.594,6.155,0.558,8.919h-0.558
		C1965.387,763.263,1966.22,759.131,1967.217,756.599 M1967.217,829.067v-1.673c0.558,0.186,1.115,0.372,1.672,0.558
		C1968.332,828.324,1967.774,828.695,1967.217,829.067 M1968.889,766.634c0.187-0.559,0.373-1.116,0.559-1.674
		c0.186,0.743,0.371,1.487,0.557,2.23h-0.557C1969.262,767.004,1969.075,766.818,1968.889,766.634 M1970.004,776.109v-2.787
		c0.372,0.557,0.744,1.114,1.115,1.672C1970.748,775.366,1970.376,775.737,1970.004,776.109 M1972.792,826.837
		c-0.187-0.37-0.372-0.743-0.558-1.114h1.115C1973.163,826.094,1972.978,826.467,1972.792,826.837 M1978.366,810.113
		c-0.187-0.371-0.372-0.743-0.558-1.114h1.115C1978.738,809.37,1978.552,809.742,1978.366,810.113"/>
	<path fill="#E07E27" d="M1613.793,529.716v0.202c0.351,0.422,0.695,0.849,1.037,1.278
		C1614.266,529.792,1614.871,530.679,1613.793,529.716"/>
	<path fill="#E07E27" d="M1618.811,535.848l1.096,1.096c0.005,0.004,0.01,0.008,0.015,0.013
		C1619.153,535.896,1619.866,536.628,1618.811,535.848"/>
	<path fill="#E07E27" d="M1974.464,753.812c-0.187,0.371-0.371,0.743-0.558,1.114
		C1974.734,753.995,1974.79,755.015,1974.464,753.812"/>
	<path fill="#231F20" d="M1824.51,1076.018c-0.186,0.372-0.372,0.743-0.559,1.115h1.116
		C1824.882,1076.761,1824.695,1076.39,1824.51,1076.018"/>
	<path fill="none" d="M1824.51,1076.018c-0.186,0.372-0.372,0.743-0.559,1.115h1.116
		C1824.882,1076.761,1824.695,1076.39,1824.51,1076.018z"/>
	<path fill="#FFFFFF" d="M1818.378,1078.805c-1.301,1.487-2.603,2.974-3.902,4.46h0.558c1.486-0.929,2.973-1.858,4.459-2.787
		C1818.791,1078.793,1819.503,1079.811,1818.378,1078.805"/>
	<path fill="#231F20" d="M1827.297,1078.805c0.558,0.188,1.115,0.372,1.673,0.558
		C1828.412,1079.177,1827.854,1078.992,1827.297,1078.805"/>
	<path fill="none" d="M1827.297,1078.805c0.558,0.188,1.115,0.372,1.673,0.558
		C1828.412,1079.177,1827.854,1078.992,1827.297,1078.805z"/>
	<path fill="#FFFFFF" d="M1841.791,1079.92c-0.188,0.186-0.372,0.372-0.559,0.558c0.371,0.372,0.744,0.743,1.116,1.115l0.557-1.673
		H1841.791z"/>
	<path fill="#231F20" d="M1612.121,1081.035c0.371,0.187,0.743,0.371,1.114,0.558
		C1612.864,1081.406,1612.492,1081.222,1612.121,1081.035"/>
	<path fill="none" d="M1612.121,1081.035c0.371,0.187,0.743,0.371,1.114,0.558
		C1612.864,1081.406,1612.492,1081.222,1612.121,1081.035z"/>
	<path fill="#231F20" d="M1798.867,1082.149c0.371,0.187,0.743,0.372,1.114,0.558
		C1799.61,1082.521,1799.238,1082.336,1798.867,1082.149"/>
	<path fill="none" d="M1798.867,1082.149c0.371,0.187,0.743,0.372,1.114,0.558
		C1799.61,1082.521,1799.238,1082.336,1798.867,1082.149z"/>
	<path fill="#231F20" d="M1787.16,1087.167c0.372,0.186,0.743,0.372,1.115,0.558
		C1787.903,1087.539,1787.532,1087.353,1787.16,1087.167"/>
	<path fill="none" d="M1787.16,1087.167c0.372,0.186,0.743,0.372,1.115,0.558C1787.903,1087.539,1787.532,1087.353,1787.16,1087.167
		z"/>
	<path fill="#FFFFFF" d="M1601.529,1090.512v2.787h0.558l0.558-0.559C1601.933,1091.141,1602.991,1091.737,1601.529,1090.512"/>
	<path fill="#231F20" d="M1835.659,1092.184c0.186,0.372,0.371,0.744,0.557,1.115
		C1835.979,1092.781,1836.663,1092.922,1835.659,1092.184"/>
	<path fill="none" d="M1835.659,1092.184c0.186,0.372,0.371,0.744,0.557,1.115
		C1835.979,1092.781,1836.663,1092.922,1835.659,1092.184z"/>
</g>
<g>
	<path fill="#E07E27" d="M847.867,939.781l-0.386-7.163c4.921-2.659,9.546-5.718,13.874-9.176
		c-0.15-24.953-0.951-50.931-2.407-77.932c-1.144-21.216-2.455-41.224-3.928-60.026c-0.999-13.393-2.058-21.073-3.177-23.04
		c-0.525-1.168-1.514-2.013-2.969-2.534c-1.457-0.52-8.182-0.963-20.174-1.33l-0.624-11.57c17.749-0.497,34.202-1.155,49.355-1.973
		c14.693-0.792,28.595-1.771,41.705-2.939l0.624,11.571c-12.565,1.508-19.768,3.001-21.612,4.481
		c-1.143,0.891-1.899,2.613-2.264,5.165c-0.368,2.554,0.046,17.43,1.239,44.629l2.796,67.134
		c0.678,12.583,1.784,27.121,3.319,43.618c12.018-0.003,20.91-0.16,26.674-0.472c17.289-0.933,31.759-3.094,43.413-6.486
		c1.988-8.409,3.843-18.412,5.566-30.005l12.123-0.653c-1.35,13.505-2.29,30.226-2.82,50.167c-8.683,1.11-16.693,1.867-24.033,2.264
		l-49.855,2.042l-22.313,0.882C881.712,936.898,867.002,938.011,847.867,939.781"/>
	<path fill="#E07E27" d="M1117.477,928.005c-33.89,1.827-60.306-5.474-79.243-21.908c-18.94-16.432-29.231-39.895-30.875-70.386
		c-1.149-21.306,2.235-39.657,10.156-55.053c7.919-15.394,19.401-27.503,34.446-36.329c15.044-8.824,34.735-13.894,59.073-15.206
		c23.42-1.263,42.775,1.54,58.066,8.406s27.322,16.901,36.096,30.105c8.771,13.205,13.691,29.727,14.762,49.564
		c1.159,21.49-2.247,40.304-10.22,56.438c-7.972,16.135-19.74,28.928-35.303,38.378
		C1158.87,921.467,1139.884,926.796,1117.477,928.005 M1121.908,912.844c18.46-0.995,32.809-8.612,43.049-22.854
		c10.237-14.242,14.607-35.288,13.105-63.138c-1.577-29.229-9.078-51.316-22.502-66.266c-10.874-12.042-26.918-17.491-48.133-16.346
		c-19.838,1.068-34.844,8.471-45.019,22.201c-10.174,13.729-14.525,34.244-13.053,61.542c1.061,19.673,4.943,36.173,11.651,49.499
		c6.704,13.327,14.836,22.752,24.39,28.274C1094.951,911.28,1107.121,913.642,1121.908,912.844"/>
	<path fill="#E07E27" d="M1256.053,917.768l-0.387-7.163c6.14-4.012,10.49-7.008,13.056-8.987
		c0.414-16.22-0.573-46.493-2.964-90.817c-1.034-19.18-2.105-35.204-3.214-48.076c-1.109-12.871-2.126-20.201-3.052-21.992
		c-0.418-0.896-1.051-1.552-1.902-1.968c-1.417-0.66-8.227-1.398-20.429-2.212l-0.624-11.572c13.892-0.287,29.838-0.918,47.84-1.889
		l67.879-4.351c24.704-1.333,43.632,0.778,56.78,6.333c13.149,5.554,23.835,14.557,32.06,27.008
		c8.224,12.452,12.832,27.861,13.822,46.229c1.273,23.604-3.51,44.264-14.342,61.979c-10.836,17.717-24.507,30.659-41.013,38.825
		c-16.508,8.167-34.359,12.768-53.553,13.803l-52.264,1.851C1285.389,915.219,1272.824,916.218,1256.053,917.768 M1310.925,897.677
		c7.789,0.962,15.724,1.225,23.806,0.788c20.479-1.104,35.936-4.882,46.364-11.334s18.61-16.534,24.55-30.245
		c5.938-13.709,8.384-30.293,7.334-49.747c-1.381-25.602-9.045-44.745-22.992-57.43c-12.308-11.3-31.686-16.236-58.136-14.81
		c-5.696,0.307-15.542,1.3-29.544,2.975l3.525,85.874C1307.779,859.871,1309.477,884.516,1310.925,897.677"/>
</g>
<g>
	<path d="M214.55,867.969l-0.156-2.986c2.052-1.105,3.982-2.377,5.788-3.815c-0.047-10.399-0.364-21.227-0.954-32.481
		c-0.464-8.843-0.996-17.183-1.599-25.02c-0.408-5.583-0.844-8.785-1.309-9.604c-0.219-0.488-0.63-0.841-1.236-1.061
		c-0.608-0.218-3.41-0.404-8.408-0.564l-0.252-4.822c7.397-0.197,14.255-0.46,20.571-0.791c6.124-0.321,11.918-0.721,17.383-1.199
		l0.253,4.824c-5.238,0.619-8.241,1.236-9.01,1.853c-0.477,0.371-0.793,1.086-0.947,2.149c-0.155,1.065,0.008,7.267,0.488,18.603
		l1.123,27.982c0.275,5.245,0.726,11.305,1.356,18.181c5.009,0.006,8.714-0.054,11.117-0.18c7.207-0.378,13.239-1.27,18.098-2.675
		c0.833-3.507,1.613-7.674,2.339-12.503l5.053-0.265c-0.572,5.627-0.973,12.596-1.208,20.906c-3.619,0.457-6.958,0.769-10.018,0.929
		l-20.779,0.82l-9.3,0.353C228.658,866.788,222.526,867.242,214.55,867.969"/>
	<path d="M282.191,864.424l-0.247-4.708c4.318-0.38,6.801-0.779,7.451-1.199c0.649-0.418,1.023-1.514,1.123-3.289
		c0.18-2.43,0.054-7.766-0.378-16.008c-0.187-3.565-0.417-6.858-0.69-9.881l-0.525-6.717c-0.117-2.224-0.428-3.58-0.933-4.073
		c-0.507-0.493-1.815-0.723-3.923-0.688l-4.316,0.053l-0.232-4.421c9.188-1.18,16.702-3.227,22.537-6.133l1.497,1.075
		c-0.191,7.358,0.081,18.039,0.815,32.041c0.424,8.097,0.813,12.981,1.168,14.656c0.253,1.181,0.645,1.928,1.176,2.245
		c0.531,0.319,3.051,0.535,7.557,0.645l0.247,4.708c-6.917,0.133-12.263,0.298-16.039,0.495
		C296.458,863.331,291.029,863.73,282.191,864.424 M293.788,780.271c2.449-0.128,4.59,0.631,6.424,2.281
		c1.834,1.652,2.815,3.722,2.946,6.21c0.128,2.45-0.633,4.59-2.284,6.423c-1.651,1.835-3.719,2.816-6.208,2.946
		c-2.449,0.129-4.591-0.631-6.424-2.284c-1.834-1.65-2.813-3.699-2.942-6.149c-0.13-2.488,0.629-4.648,2.28-6.483
		C289.229,781.381,291.299,780.401,293.788,780.271"/>
	<path d="M321.007,862.39l-0.247-4.708c4.16-0.449,6.497-0.909,7.01-1.377c0.513-0.469,0.787-1.474,0.821-3.015
		c0.027-3.882-0.216-10.712-0.728-20.486c-0.253-4.831-0.548-8.984-0.884-12.465c-0.189-2.142-0.406-3.399-0.654-3.772
		c-0.207-0.296-0.523-0.51-0.949-0.641c-0.427-0.132-2.695-0.146-6.807-0.047l-0.231-4.421c2.073-0.108,5.281-0.724,9.629-1.845
		c4.347-1.122,7.987-2.342,10.919-3.661l1.528-0.603c0.536-0.028,0.828,0.397,0.875,1.278l-0.031,0.52
		c-0.058,1.078,0.029,3.837,0.261,8.277l8.495-7.931c1.058-1.015,2.17-1.726,3.337-2.132c1.657-0.548,3.691-0.885,6.098-1.011
		c4.051-0.212,7.403,0.314,10.057,1.58c2.653,1.265,4.647,3.103,5.98,5.514c1.334,2.41,2.137,6.226,2.411,11.443
		c0.12,2.305,0.203,4.972,0.247,8.01c0.133,6.227,0.32,11.602,0.557,16.127c0.135,2.572,0.438,4.344,0.912,5.318
		c0.343,0.677,0.797,1.113,1.365,1.314c0.566,0.202,2.676,0.382,6.332,0.535l0.247,4.709l-7.074,0.14l-4.543,0.123l-11.81,0.965
		l-0.671-0.716c0.613-7.336,0.719-14.833,0.318-22.5c-0.511-9.735-1.419-15.702-2.724-17.902c-1.683-2.833-4.555-4.143-8.612-3.929
		c-2.604,0.137-4.827,0.917-6.671,2.342c-1.846,1.423-3.015,2.898-3.511,4.426c-0.235,0.63-0.268,2.574-0.097,5.84
		c0.728,13.896,1.203,21.846,1.423,23.858c0.221,2.007,0.61,3.229,1.171,3.662c0.719,0.538,3.304,0.81,7.758,0.806l0.246,4.709
		c-6.672,0.119-12.306,0.3-16.899,0.54C333.142,861.408,328.192,861.783,321.007,862.39"/>
	<path d="M392.381,858.649l-0.247-4.709c4.088-0.367,6.467-0.761,7.135-1.182c0.333-0.248,0.582-0.608,0.75-1.078
		c0.262-0.857,0.271-4.714,0.028-11.562c-0.245-6.851-0.561-13.978-0.948-21.377c-0.314-5.979-0.812-13.663-1.496-23.047
		c-0.511-6.815-0.892-10.592-1.141-11.331c-0.249-0.734-0.691-1.269-1.322-1.603c-0.631-0.333-2.882-0.435-6.753-0.309l-0.216-4.134
		c5.091-0.766,9.212-1.586,12.363-2.464c3.152-0.875,6.014-1.973,8.588-3.298c0.708-0.346,1.216-0.524,1.521-0.54
		c0.572-0.03,0.887,0.472,0.941,1.505l0.027,2.479c0.013,2.844,0.459,13.637,1.339,32.379l0.729,16.101l0.281,3.156
		c7.716-7.275,15.629-15.981,23.734-26.118c2.73,0.088,5.166,0.075,7.311-0.037c2.564-0.135,5.277-0.392,8.136-0.772l0.246,4.709
		c-4.229,0.45-6.776,0.843-7.639,1.172c-0.865,0.333-2.121,1.209-3.771,2.633c-1.649,1.424-6.24,5.853-13.771,13.287l8.813,8.944
		c10.12,10.317,16.062,16.142,17.823,17.47c1.139,0.902,2.686,1.398,4.646,1.488l0.247,4.708c-4.3-0.005-8.25,0.087-11.847,0.275
		c-2.794,0.146-5.545,0.406-8.25,0.778c-4.053-4.816-8.087-9.269-12.101-13.357c-5.474-5.586-9.96-9.881-13.457-12.883l0.486,9.268
		c0.281,5.372,0.702,9.006,1.262,10.9c0.236,0.836,0.649,1.399,1.24,1.696c0.591,0.296,2.94,0.453,7.049,0.468l0.247,4.708
		c-7.4,0.158-12.344,0.302-14.833,0.433C407.12,857.531,401.403,857.946,392.381,858.649"/>
	<path d="M512.102,841.251l1.745,1.582l-2.285,5.632c-2.667,1.855-5.558,3.293-8.672,4.314c-3.113,1.021-6.451,1.626-10.011,1.812
		c-8.348,0.438-15.051-1.642-20.11-6.239c-5.059-4.595-7.819-11.279-8.279-20.055c-0.291-5.557,0.176-10.19,1.402-13.905
		c0.993-3.012,2.75-5.562,5.27-7.654c2.519-2.09,5.447-4.108,8.78-6.051s7.048-3.02,11.145-3.234
		c6.277-0.329,11.556,1.154,15.837,4.448c4.279,3.295,6.624,8.838,7.031,16.624c0.051,0.961,0.05,2.424,0,4.388l-9.311,2.215
		c-2.895,0.345-7.093,0.66-12.596,0.948l-12.44,0.652c0.92,6.573,3.152,11.442,6.697,14.604c3.545,3.163,7.921,4.609,13.129,4.337
		c2.181-0.113,4.328-0.546,6.439-1.291C507.984,843.632,510.06,842.59,512.102,841.251 M478.945,820.66
		c3.461,0.125,6.914,0.098,10.359-0.083c3.024-0.158,6.194-0.478,9.508-0.959l-0.084-2.713c-0.248-4.724-1.29-8.126-3.126-10.208
		c-1.837-2.08-4.229-3.041-7.176-2.887c-2.067,0.108-3.821,0.711-5.26,1.808c-1.44,1.097-2.476,2.584-3.106,4.466
		C479.43,811.967,479.057,815.491,478.945,820.66"/>
	<path d="M564.082,796.104l-0.519-9.911c-0.322-6.147-0.643-9.708-0.961-10.689c-0.228-0.714-0.625-1.199-1.193-1.458
		c-0.566-0.258-3.155-0.322-7.763-0.195l-0.216-4.136c9.053-1.472,16.597-3.709,22.629-6.712l1.558,1.3
		c-0.04,6.187,0.048,12.038,0.265,17.559l1.983,45.13c0.396,7.545,0.771,12.136,1.125,13.768c0.206,1.027,0.617,1.726,1.233,2.096
		c0.614,0.371,2.977,0.624,7.092,0.754l0.247,4.708c-4.693,0.016-9.267,0.141-13.717,0.373c-3.223,0.169-6.229,0.442-9.018,0.817
		l-1.016-0.637c0.284-3.892,0.465-7.029,0.543-9.414c-2.501,2.089-6.478,5.656-11.933,10.702c-2.14,0.918-4.167,1.428-6.081,1.527
		c-6.354,0.333-11.772-1.755-16.249-6.269c-4.478-4.51-6.923-10.692-7.334-18.547c-0.201-3.832,0.048-7.333,0.745-10.499
		c0.698-3.169,1.588-5.569,2.675-7.201c1.085-1.633,3.323-3.766,6.717-6.404c4.61-3.585,7.993-5.865,10.149-6.841
		c2.157-0.979,4.535-1.536,7.139-1.673c1.875-0.098,3.8,0.001,5.774,0.3C559.929,794.851,561.971,795.369,564.082,796.104
		 M564.727,808.402c-1.935-2.474-4.082-4.284-6.445-5.43c-2.364-1.145-4.943-1.643-7.737-1.496
		c-3.943,0.207-6.894,1.773-8.851,4.701s-2.762,7.707-2.415,14.341c0.358,6.823,1.917,11.856,4.678,15.094
		c2.76,3.237,6.15,4.752,10.17,4.542c2.718-0.143,5.193-1.062,7.427-2.754c2.234-1.695,3.517-3.201,3.851-4.528
		c0.334-1.323,0.276-6.278-0.175-14.867L564.727,808.402z"/>
	<path d="M262.6,974.127c-14.125,0.74-25.13-2.32-33.013-9.183c-7.883-6.862-12.157-16.644-12.823-29.354
		c-0.466-8.881,0.956-16.526,4.267-22.939c3.311-6.411,8.103-11.449,14.38-15.117c6.275-3.669,14.485-5.769,24.63-6.301
		c9.761-0.511,17.827,0.669,24.195,3.538c6.369,2.871,11.376,7.061,15.025,12.571c3.647,5.509,5.688,12.399,6.121,20.668
		c0.47,8.957-0.962,16.796-4.295,23.514c-3.333,6.719-8.246,12.043-14.738,15.973C279.855,971.428,271.938,973.638,262.6,974.127
		 M264.457,967.812c7.694-0.403,13.68-3.569,17.956-9.501c4.275-5.929,6.11-14.695,5.502-26.304
		c-0.639-12.183-3.75-21.394-9.336-27.632c-4.525-5.027-11.208-7.307-20.051-6.844c-8.268,0.434-14.527,3.508-18.776,9.226
		c-4.249,5.716-6.075,14.262-5.479,25.641c0.43,8.199,2.037,15.078,4.824,20.637c2.786,5.558,6.169,9.491,10.148,11.798
		C253.223,967.141,258.292,968.135,264.457,967.812"/>
	<path d="M312.811,923.647l-0.232-4.421c6.691-0.93,12.2-2.119,16.528-3.576l6.03-2.212c0.534-0.028,0.825,0.404,0.872,1.296
		c0.038,0.745,0.028,1.787-0.033,3.132l0.126,5.253l8.917-7.838c1.871-1.672,5.082-2.627,9.638-2.865
		c6.469-0.34,11.761,1.391,15.876,5.191c4.114,3.798,6.349,9.09,6.705,15.871c0.178,3.412-0.134,6.789-0.937,10.137
		c-0.804,3.345-1.824,6.032-3.061,8.057c-1.239,2.024-3.473,4.427-6.705,7.208c-5.537,4.941-8.844,7.765-9.92,8.474
		c-2.116,1.379-4.704,2.15-7.767,2.312c-1.723,0.09-3.456-0.03-5.201-0.357c-1.744-0.327-3.481-0.865-5.209-1.611l1.145,17.447
		c0.372,4.191,0.942,6.62,1.706,7.288s3.616,0.874,8.554,0.615l0.247,4.708c-5.947,0.081-11.12,0.237-15.521,0.468
		c-8.422,0.441-14.349,0.867-17.782,1.277l-0.248-4.708c4.051-0.327,6.375-0.68,6.97-1.057c0.369-0.249,0.637-0.63,0.804-1.136
		c0.296-0.937,0.339-4.875,0.129-11.811c-0.28-9.736-0.544-16.976-0.793-21.723l-1.309-22.79c-0.389-6.696-0.802-10.514-1.234-11.45
		c-0.218-0.488-0.524-0.837-0.918-1.046C319.48,923.472,317.021,923.428,312.811,923.647 M337.85,956.461
		c1.837,2.097,3.798,3.65,5.886,4.656c2.088,1.008,4.317,1.449,6.691,1.325c3.942-0.207,7.08-2.064,9.41-5.575
		c2.329-3.512,3.298-9.028,2.904-16.553c-0.318-6.065-1.842-10.596-4.57-13.589c-2.729-2.995-6.084-4.387-10.065-4.179
		c-1.99,0.104-3.965,0.688-5.925,1.754c-1.959,1.066-3.885,2.61-5.774,4.633L337.85,956.461z"/>
	<path d="M434.743,952.83l1.745,1.582l-2.286,5.632c-2.667,1.855-5.558,3.293-8.672,4.314c-3.113,1.021-6.451,1.626-10.011,1.812
		c-8.348,0.438-15.051-1.642-20.11-6.239c-5.059-4.595-7.819-11.279-8.279-20.055c-0.291-5.557,0.176-10.191,1.402-13.905
		c0.993-3.012,2.75-5.562,5.27-7.654c2.519-2.09,5.447-4.108,8.78-6.051s7.048-3.02,11.145-3.234
		c6.278-0.329,11.556,1.154,15.837,4.448c4.279,3.295,6.624,8.838,7.032,16.624c0.05,0.961,0.049,2.424-0.001,4.388l-9.311,2.215
		c-2.894,0.345-7.093,0.66-12.596,0.948l-12.439,0.652c0.919,6.573,3.152,11.442,6.696,14.604c3.545,3.163,7.921,4.609,13.129,4.337
		c2.182-0.113,4.328-0.546,6.439-1.292C430.625,955.211,432.7,954.169,434.743,952.83 M401.585,932.239
		c3.461,0.125,6.915,0.098,10.36-0.083c3.023-0.158,6.193-0.478,9.507-0.959l-0.084-2.713c-0.248-4.724-1.29-8.126-3.126-10.208
		c-1.837-2.08-4.228-3.041-7.176-2.887c-2.067,0.108-3.82,0.711-5.26,1.808c-1.44,1.097-2.476,2.584-3.106,4.466
		C402.07,923.546,401.697,927.07,401.585,932.239"/>
	<path d="M446.112,963.358l-0.247-4.709c4.16-0.448,6.497-0.908,7.01-1.377c0.513-0.468,0.787-1.473,0.821-3.014
		c0.027-3.882-0.216-10.712-0.728-20.486c-0.253-4.831-0.549-8.984-0.884-12.466c-0.189-2.142-0.406-3.398-0.654-3.771
		c-0.207-0.296-0.523-0.51-0.949-0.641c-0.427-0.132-2.695-0.147-6.807-0.047l-0.231-4.421c2.073-0.109,5.281-0.725,9.629-1.845
		c4.347-1.122,7.987-2.342,10.919-3.66l1.528-0.604c0.536-0.027,0.828,0.398,0.875,1.278l-0.031,0.521
		c-0.059,1.077,0.029,3.837,0.261,8.277l8.495-7.931c1.058-1.015,2.17-1.726,3.337-2.132c1.657-0.548,3.691-0.885,6.098-1.011
		c4.051-0.213,7.403,0.314,10.057,1.58c2.653,1.264,4.647,3.102,5.98,5.514c1.334,2.409,2.137,6.226,2.411,11.442
		c0.12,2.305,0.203,4.973,0.247,8.01c0.133,6.227,0.32,11.603,0.557,16.127c0.135,2.573,0.438,4.346,0.912,5.319
		c0.343,0.677,0.797,1.113,1.364,1.313c0.567,0.203,2.677,0.382,6.333,0.536l0.247,4.708l-7.075,0.141l-4.542,0.123l-11.81,0.965
		l-0.671-0.716c0.613-7.335,0.719-14.833,0.318-22.501c-0.511-9.734-1.419-15.702-2.724-17.902
		c-1.683-2.832-4.555-4.141-8.612-3.928c-2.604,0.136-4.827,0.917-6.671,2.342c-1.846,1.423-3.015,2.898-3.511,4.425
		c-0.235,0.631-0.268,2.575-0.097,5.84c0.728,13.896,1.202,21.848,1.423,23.859c0.22,2.007,0.61,3.229,1.171,3.661
		c0.719,0.538,3.304,0.81,7.758,0.807l0.246,4.709c-6.672,0.119-12.306,0.299-16.899,0.54
		C458.247,962.377,453.297,962.751,446.112,963.358"/>
	<path d="M552.225,957.797l-0.157-2.985c2.561-1.67,4.376-2.917,5.447-3.738c0.183-6.76-0.209-19.378-1.178-37.854
		c-0.418-7.993-0.855-14.672-1.309-20.038c-0.454-5.365-0.873-8.422-1.257-9.169c-0.174-0.373-0.437-0.646-0.792-0.82
		c-0.59-0.276-3.428-0.589-8.513-0.934l-0.253-4.823c5.79-0.112,12.437-0.364,19.94-0.758l28.293-1.771
		c10.298-0.539,18.184,0.353,23.661,2.676s9.925,6.082,13.344,11.276c3.419,5.195,5.331,11.619,5.732,19.276
		c0.516,9.838-1.49,18.445-6.016,25.822c-4.528,7.377-10.234,12.762-17.118,16.155c-6.885,3.394-14.328,5.3-22.329,5.719
		l-21.783,0.738C564.453,956.753,559.215,957.162,552.225,957.797 M575.106,949.458c3.246,0.406,6.553,0.521,9.921,0.344
		c8.536-0.448,14.98-2.014,19.331-4.694c4.35-2.685,7.767-6.881,10.251-12.59c2.484-5.712,3.513-12.621,3.088-20.729
		c-0.559-10.673-3.741-18.655-9.547-23.951c-5.122-4.718-13.195-6.786-24.219-6.208c-2.375,0.124-6.479,0.531-12.316,1.221
		l1.415,35.791C573.819,933.699,574.51,943.97,575.106,949.458"/>
	<path d="M697.997,945.437l0.247,4.708l-4.441,0.059c-2.349,0.01-4.692,0.074-7.033,0.197c-3.608,0.189-7.018,0.483-10.229,0.882
		l-0.609-0.598l0.162-7.904l-11.509,9.593c-2.113,0.605-3.992,0.954-5.634,1.04c-4.05,0.212-7.247-0.829-9.59-3.125
		c-2.342-2.296-3.634-5.759-3.877-10.392c-0.299-5.703,1-9.802,3.896-12.295c3.736-3.267,12.209-6.455,25.417-9.564
		c-0.315-4.533-1.269-7.779-2.864-9.739c-2.247-2.696-5.565-3.927-9.956-3.697c-1.031,0.055-2.085,0.232-3.159,0.538
		c-1.075,0.308-2.152,0.758-3.231,1.352l-2.255,6.279l-4.013-0.769l-0.02-2.591l-0.19-2.522l-0.178-2.294
		c5.667-3.943,9.758-6.441,12.274-7.495c1.839-0.787,4.425-1.269,7.755-1.442c4.516-0.237,8.227,0.252,11.132,1.463
		c2.904,1.214,5.068,2.958,6.492,5.229c1.424,2.274,2.254,5.655,2.49,10.142c0.098,1.882,0.196,5.241,0.298,10.084
		c0.108,4.995,0.242,9.01,0.4,12.039c0.252,4.797,0.538,7.707,0.861,8.727c0.184,0.608,0.583,1.067,1.195,1.38
		C692.438,945.034,694.496,945.274,697.997,945.437 M675.056,922.974c-6.637,1.811-10.922,3.624-12.854,5.437
		c-1.932,1.814-2.823,4.162-2.671,7.042c0.122,2.344,0.867,4.15,2.234,5.427c1.368,1.277,3.043,1.863,5.027,1.759
		c3.013-0.157,6.014-2.028,9-5.611L675.056,922.974z"/>
	<path d="M699.729,903.774l7.375-5.396c-0.44-6.771-0.942-12.695-1.507-17.771c5.142-1.882,9.978-4.093,14.507-6.634l1.792,1.23
		c-0.551,5.595-0.735,13.07-0.552,22.427c1.776,0.214,3.527,0.276,5.25,0.186c3.904-0.204,7.393-0.656,10.466-1.354l0.534,0.317
		l-0.408,2.095c-0.462,2.174-0.781,4.167-0.954,5.98c-4.494-0.072-7.795-0.053-9.9,0.058c-1.57,0.082-3.097,0.239-4.582,0.471
		c0.126,3.876,0.268,7.291,0.422,10.242c0.676,12.885,1.441,20.188,2.3,21.91c0.858,1.723,2.723,2.512,5.593,2.361
		c0.842-0.044,1.747-0.188,2.713-0.43c0.966-0.242,1.994-0.565,3.087-0.968l1.091,2.131c-2.163,2.685-4.263,5.463-6.3,8.333
		c-1.405,0.304-2.698,0.545-3.878,0.722c-1.18,0.177-2.268,0.292-3.263,0.344c-3.216,0.169-5.935-0.247-8.156-1.246
		c-2.22-0.997-3.865-2.353-4.934-4.063c-1.069-1.714-1.694-4.314-1.877-7.802c-0.096-1.839-0.255-6.673-0.472-14.504
		c-0.168-6.869-0.357-12.299-0.566-16.284l-2.934,0.04c-1.226,0.062-2.788,0.26-4.69,0.59L699.729,903.774z"/>
	<path d="M795.956,940.303l0.246,4.708l-4.441,0.061c-2.348,0.008-4.692,0.072-7.033,0.195c-3.608,0.189-7.017,0.483-10.228,0.882
		l-0.61-0.598l0.162-7.904l-11.509,9.593c-2.113,0.605-3.992,0.954-5.634,1.04c-4.05,0.212-7.247-0.829-9.589-3.125
		c-2.342-2.296-3.635-5.759-3.878-10.392c-0.299-5.703,1-9.802,3.896-12.295c3.737-3.267,12.209-6.455,25.417-9.565
		c-0.315-4.532-1.269-7.778-2.864-9.738c-2.247-2.696-5.565-3.928-9.955-3.697c-1.032,0.055-2.086,0.232-3.16,0.538
		c-1.074,0.308-2.152,0.758-3.231,1.352l-2.254,6.279l-4.013-0.769l-0.021-2.591l-0.19-2.522l-0.178-2.294
		c5.667-3.943,9.758-6.441,12.275-7.495c1.838-0.787,4.424-1.269,7.755-1.442c4.516-0.237,8.226,0.252,11.132,1.464
		c2.903,1.213,5.067,2.957,6.492,5.228c1.423,2.274,2.254,5.655,2.489,10.142c0.099,1.881,0.197,5.241,0.298,10.084
		c0.108,4.996,0.242,9.01,0.401,12.039c0.251,4.797,0.538,7.707,0.86,8.727c0.185,0.608,0.583,1.067,1.195,1.38
		C790.398,939.9,792.454,940.141,795.956,940.303 M773.014,917.84c-6.637,1.811-10.921,3.624-12.853,5.437
		c-1.933,1.814-2.823,4.162-2.672,7.042c0.123,2.344,0.867,4.15,2.234,5.427c1.368,1.277,3.044,1.863,5.028,1.759
		c3.013-0.157,6.013-2.028,9-5.611L773.014,917.84z"/>
</g>
<polygon points="2040.23,628.541 2040.541,1105.398 1837.471,1105.104 1837.161,628.247 "/>
<g>
	<path fill="#FFFFFF" d="M1995.015,1066.06l-3.528,0.009c-1.709-2.848-3.266-5.021-4.672-6.518
		c-6.907-0.582-22.171-0.843-45.793-0.78c-17.115,0.046-29.225,0.329-36.33,0.848c-3.853,0.262-6.104,0.793-6.752,1.594
		c-0.998,1.104-1.639,4.91-1.922,11.416l-6.306,0.017l0.263-14.414l0.195-11.035c-0.009-3.352-0.108-8.306-0.302-14.862
		c-0.191-6.354-0.292-10.909-0.3-13.662c-0.028-11.109,1.806-19.071,5.504-23.886c3.697-4.814,8.758-7.229,15.182-7.247
		c6.625-0.018,12.034,2.343,16.229,7.078c4.195,4.737,7.201,11.424,9.017,20.063l0.601-0.002c0.879-8.897,2.213-15.148,4.008-18.752
		c1.794-3.604,4.595-6.509,8.397-8.719c3.802-2.209,8.134-3.319,12.994-3.333c5.962-0.016,11.604,1.784,16.925,5.397
		c5.323,3.616,9.394,8.409,12.217,14.381c2.821,5.974,4.245,14.391,4.274,25.249c0.006,2.152-0.074,5.381-0.237,9.685
		c-0.166,4.006-0.243,7.282-0.235,9.834C1994.449,1051.272,1994.64,1057.153,1995.015,1066.06 M1933.008,1037.397l-0.011-3.903
		c-0.022-8.456-1.563-14.396-4.626-17.815c-3.061-3.418-7.846-5.122-14.352-5.104c-5.705,0.015-9.906,1.415-12.601,4.199
		c-2.694,2.785-4.034,7.356-4.017,13.711c0.006,2.354,0.215,5.229,0.623,8.631c15.365,0.26,24.773,0.385,28.227,0.376
		L1933.008,1037.397z M1986.38,1037.031c0.742-2.896,1.11-5.619,1.104-8.166c-0.019-7.087-2.07-12.521-6.161-16.307
		c-4.089-3.783-10.086-5.664-17.993-5.644c-5.153,0.014-9.368,0.888-12.642,2.618c-3.272,1.73-5.706,4.108-7.301,7.133
		c-1.593,3.024-2.383,7.332-2.367,12.923l0.094,7.562l1.953-0.005l19.442,0.098l19.667-0.202L1986.38,1037.031z"/>
	<path fill="#FFFFFF" d="M1994.745,964.719l-4.054,0.011c-1.208-2.648-2.614-5.071-4.223-7.27c-7.81-0.98-24.225-1.438-49.248-1.371
		c-17.064,0.045-28.375,0.252-33.929,0.615c-2.951,0.159-4.813,0.678-5.588,1.554c-0.773,0.879-1.426,4.596-1.96,11.153
		l-6.306,0.017c0.419-11.801,0.618-21.126,0.602-27.976l-0.785-41.322c-0.012-4.35,0.156-8.275,0.5-11.776l0.831-0.527
		c5.512,1.087,12.84,1.869,21.988,2.344l0.016,5.931c-7.305,0.271-11.208,0.568-11.708,0.894c-0.498,0.329-0.972,1.467-1.417,3.42
		c-0.89,4.158-1.324,10.513-1.301,19.07c0.011,4.204,0.2,9.109,0.564,14.713c15.466,0.609,27.777,0.952,36.936,1.027
		c0.337-5.355,0.498-10.386,0.485-15.09c-0.019-6.955-0.255-11.134-0.709-12.535c-0.302-0.849-1.028-1.447-2.182-1.796
		c-0.901-0.298-4.055-0.638-9.461-1.024l-0.017-6.456c8.478,0.229,13.995,0.338,16.553,0.332l16.927-0.422l0.017,6.456
		c-6.59,0.368-10.389,0.829-11.395,1.383c-0.602,0.301-1.029,0.978-1.276,2.029c-0.548,2.505-0.811,8.137-0.787,16.892
		c0.008,2.753,0.192,5.98,0.552,9.683c2.645,0.094,5.335,0.136,8.079,0.129c14.259-0.038,25.229-0.315,32.905-0.838l0.186-14.894
		c-0.023-8.473-0.493-16.22-1.412-23.238c-4.63-1.237-9.888-2.424-15.775-3.561l-0.016-6.23c8.916,1.128,17.476,1.781,25.678,1.958
		c0.362,4.554,0.55,8.932,0.562,13.136c0.007,2.753-0.066,8.183-0.22,16.29c-0.156,7.558-0.225,14.515-0.207,20.869
		C1994.172,946.656,1994.37,955.463,1994.745,964.719"/>
	<path fill="#FFFFFF" d="M1994.625,850.425l-6.306,0.017c-0.008-2.853-0.266-5.828-0.772-8.931c-0.254-1.45-0.669-2.476-1.247-3.075
		c-0.576-0.599-1.639-1.046-3.19-1.343c-2.151-0.343-10.053-0.622-23.704-0.838c-9.699-0.124-19.601-0.173-29.703-0.146
		c-19.85,0.053-29.963,0.144-30.338,0.27c-0.375,0.127-0.558,1.896-0.55,5.307c0.02,6.973,0.236,12.968,0.649,17.982
		c0.259,2.909,0.514,4.553,0.764,4.929c0.253,0.375,0.69,0.663,1.316,0.862c0.627,0.198,5.019,0.613,13.178,1.243l0.017,6.456
		c-9.586-0.074-17.842,0.197-24.769,0.815l-0.604-0.823c0.709-15.767,1.044-31.105,1.004-46.02
		c-0.039-14.863-0.458-31.501-1.258-49.916l1.201-0.829c6.879,0.933,14.938,1.587,24.175,1.963l0.017,6.23
		c-8.435,0.473-13.007,0.935-13.714,1.388c-0.554,0.352-0.931,1.154-1.131,2.404c-0.646,4.007-0.953,11.965-0.922,23.874
		c0.003,1.003,0.154,1.603,0.454,1.801c0.354,0.2,1.682,0.296,3.984,0.29l50.489,0.316c14.625-0.04,23.603-0.188,26.933-0.448
		c3.331-0.26,5.344-0.869,6.044-1.828c0.449-0.655,0.964-4.605,1.545-11.854l6.306-0.017c-0.331,7.369-0.485,15.188-0.463,23.458
		C1994.058,834.84,1994.256,843.66,1994.625,850.425"/>
	<path fill="#FFFFFF" d="M1987.036,784.911c-0.262-4.702-0.745-7.604-1.449-8.705c-0.501-0.749-2.407-1.918-5.715-3.512
		c-6.513-3.034-15.557-6.914-27.13-11.639l-65.153-26.401l-0.029-11.035l80.532-34.144c10.161-4.43,15.728-7.16,16.699-8.189
		c0.969-1.027,1.619-4.194,1.945-9.501l6.831-0.018c-0.33,8.154-0.483,15.858-0.465,23.112c0.023,8.653,0.22,16.882,0.592,24.687
		l-6.832,0.018c-0.26-5.953-0.599-9.391-1.016-10.315c-0.419-0.924-1.164-1.386-2.241-1.383c-0.93,0.003-4.104,1.062-9.524,3.177
		l-12.525,4.985c-0.134,6.214-0.19,13.154-0.171,20.82c0.019,6.664,0.109,12.728,0.274,18.188l8.44,3.277
		c2.302,0.895,5.726,1.984,10.276,3.272c1.027,0.297,1.956,0.445,2.786,0.442c1.126-0.003,1.918-0.492,2.379-1.469
		c0.463-0.976,0.931-4.491,1.402-10.545l6.831-0.019c-0.338,4.905-0.496,11.007-0.477,18.305c0.019,6.949,0.207,12.473,0.569,16.571
		L1987.036,784.911z M1914.07,735.853l38.646,15.743c0.239-4.606,0.35-9.688,0.334-15.247c-0.015-5.808-0.153-11.364-0.419-16.672
		L1914.07,735.853z"/>
</g>
</svg>
