<?xml version="1.0" encoding="utf-8"?>
<!-- Generator: Adobe Illustrator 16.0.0, SVG Export Plug-In . SVG Version: 6.00 Build 0)  -->
<!DOCTYPE svg PUBLIC "-//W3C//DTD SVG 1.1//EN" "http://www.w3.org/Graphics/SVG/1.1/DTD/svg11.dtd">
<svg version="1.1" id="Layer_1" xmlns="http://www.w3.org/2000/svg" xmlns:xlink="http://www.w3.org/1999/xlink" x="0px" y="0px"
	 width="2200px" height="1200px" viewBox="0 0 2200 1200" enable-background="new 0 0 2200 1200" xml:space="preserve">
<g>
	<defs>
		<rect id="SVGID_1_" width="2200" height="1200"/>
	</defs>
	<clipPath id="SVGID_2_">
		<use xlink:href="#SVGID_1_"  overflow="visible"/>
	</clipPath>
</g>
<g>
	<defs>
		<rect id="SVGID_3_" width="2200" height="1200"/>
	</defs>
	<clipPath id="SVGID_4_">
		<use xlink:href="#SVGID_3_"  overflow="visible"/>
	</clipPath>
</g>
<g>
	<path d="M199.017,512.537l68.02-146.253c0.652-1.304,2.173-2.39,3.694-2.39h2.173c1.521,0,3.042,1.086,3.694,2.39l68.02,146.253
		c1.304,2.825-0.435,5.65-3.694,5.65h-24.122c-3.912,0-5.65-1.304-7.606-5.433l-7.823-17.168h-59.11l-7.823,17.386
		c-1.086,2.607-3.477,5.215-7.823,5.215h-23.905C199.451,518.187,197.712,515.362,199.017,512.537z M288.333,466.031l-16.516-35.857
		H271.6l-16.299,35.857H288.333z"/>
	<path d="M360.48,370.195c0-2.173,1.739-4.129,4.129-4.129h64.977c26.078,0,47.375,21.08,47.375,46.94
		c0,19.993-13.256,36.074-32.163,43.68l29.772,55.198c1.521,2.825,0,6.302-3.694,6.302h-28.903c-1.739,0-3.042-1.086-3.477-1.956
		l-28.903-57.588h-14.995v55.416c0,2.173-1.956,4.129-4.129,4.129h-25.86c-2.391,0-4.129-1.956-4.129-4.129V370.195z
		 M426.761,431.043c8.91,0,16.516-8.258,16.516-17.385s-7.606-16.516-16.516-16.516h-32.163v33.901H426.761z"/>
	<path d="M523.685,398.011h-31.076c-2.391,0-4.129-1.956-4.129-4.129v-23.688c0-2.173,1.738-4.129,4.129-4.129h96.488
		c2.391,0,4.129,1.956,4.129,4.129v23.688c0,2.173-1.738,4.129-4.129,4.129h-31.076v116.047c0,2.173-1.956,4.129-4.129,4.129
		h-26.078c-2.173,0-4.129-1.956-4.129-4.129V398.011z"/>
	<path d="M613,370.195c0-2.173,1.956-4.129,4.129-4.129h25.86c2.391,0,4.129,1.956,4.129,4.129v54.764h62.152v-54.764
		c0-2.173,1.739-4.129,4.129-4.129h25.861c2.173,0,4.129,1.956,4.129,4.129v143.863c0,2.173-1.956,4.129-4.129,4.129H713.4
		c-2.39,0-4.129-1.956-4.129-4.129v-57.154h-62.152v57.154c0,2.173-1.738,4.129-4.129,4.129h-25.86
		c-2.173,0-4.129-1.956-4.129-4.129V370.195z"/>
	<path d="M776.638,370.195c0-2.173,1.956-4.129,4.129-4.129h26.73c2.39,0,4.129,1.956,4.129,4.129v88.013
		c0,15.212,11.3,27.382,26.729,27.382c15.647,0,27.165-12.17,27.165-27.382v-88.013c0-2.173,1.739-4.129,4.129-4.129h26.729
		c2.173,0,4.129,1.956,4.129,4.129v89.751c0,33.032-27.816,60.414-62.152,60.414c-34.118,0-61.717-27.382-61.717-60.414V370.195z"/>
	<path d="M933.539,370.195c0-2.173,1.739-4.129,4.129-4.129h64.977c26.078,0,47.375,21.08,47.375,46.94
		c0,19.993-13.256,36.074-32.163,43.68l29.772,55.198c1.521,2.825,0,6.302-3.694,6.302h-28.903c-1.739,0-3.042-1.086-3.477-1.956
		l-28.903-57.588h-14.995v55.416c0,2.173-1.956,4.129-4.129,4.129h-25.86c-2.391,0-4.129-1.956-4.129-4.129V370.195z
		 M999.82,431.043c8.91,0,16.516-8.258,16.516-17.385s-7.606-16.516-16.516-16.516h-32.163v33.901H999.82z"/>
</g>
<g>
	<path d="M209.882,691.39l10.214-18.038c1.738-2.824,5.868-2.39,7.389-1.304c0.869,0.435,16.516,11.952,30.859,11.952
		c8.692,0,14.995-5.433,14.995-13.038c0-9.128-7.606-16.082-22.383-21.949c-18.689-7.389-42.159-21.949-42.159-48.027
		c0-21.514,16.733-43.246,50.2-43.246c22.601,0,39.986,11.518,46.505,16.298c2.608,1.521,2.173,5.433,1.304,6.954l-11.083,16.733
		c-1.521,2.391-5.433,4.346-7.389,2.825c-1.956-1.086-17.82-13.039-31.076-13.039c-7.823,0-13.69,5.216-13.69,11.083
		c0,8.041,6.519,14.125,23.687,21.08c16.951,6.737,43.898,19.993,43.898,49.548c0,22.384-19.341,44.984-51.287,44.984
		c-28.251,0-43.897-11.734-48.896-16.733C208.796,695.301,208.144,694.432,209.882,691.39z"/>
	<path d="M403.074,557.74c21.731,0,37.813,6.737,52.59,20.21c1.956,1.739,1.956,4.347,0.217,6.085l-16.951,17.603
		c-1.521,1.521-3.912,1.521-5.433,0c-8.041-7.171-18.689-11.083-29.337-11.083c-24.557,0-42.594,20.428-42.594,44.767
		c0,24.122,18.254,44.115,42.811,44.115c10.214,0,21.297-3.694,29.12-10.431c1.521-1.304,4.347-1.304,5.65,0.217l16.951,18.037
		c1.521,1.521,1.304,4.347-0.217,5.868c-14.777,14.343-33.467,21.079-52.808,21.079c-43.463,0-78.451-34.553-78.451-78.016
		C324.623,592.728,359.611,557.74,403.074,557.74z"/>
	<path d="M480.002,564.042c0-2.173,1.956-4.129,4.129-4.129h25.86c2.391,0,4.129,1.956,4.129,4.129v54.764h62.152v-54.764
		c0-2.173,1.739-4.129,4.129-4.129h25.861c2.173,0,4.129,1.956,4.129,4.129v143.863c0,2.173-1.956,4.129-4.129,4.129h-25.861
		c-2.39,0-4.129-1.956-4.129-4.129v-57.154h-62.152v57.154c0,2.173-1.738,4.129-4.129,4.129h-25.86
		c-2.173,0-4.129-1.956-4.129-4.129V564.042z"/>
	<path d="M645.595,561.652c0-2.173,1.956-3.912,4.129-3.912h5.433l86.709,83.449h0.217v-77.147c0-2.173,1.739-4.129,4.129-4.129
		h26.078c2.173,0,4.129,1.956,4.129,4.129v146.254c0,2.173-1.956,3.911-4.129,3.911h-3.477c-0.652,0-2.391-0.651-2.825-1.086
		l-85.84-86.274h-0.217v81.059c0,2.173-1.738,4.129-4.129,4.129h-25.86c-2.173,0-4.129-1.956-4.129-4.129L645.595,561.652z"/>
	<path d="M811.842,564.042c0-2.173,1.956-4.129,4.129-4.129h26.078c2.173,0,4.129,1.956,4.129,4.129v143.863
		c0,2.173-1.956,4.129-4.129,4.129h-26.078c-2.173,0-4.129-1.956-4.129-4.129V564.042z"/>
	<path d="M901.156,591.858H870.08c-2.391,0-4.129-1.956-4.129-4.129v-23.688c0-2.173,1.738-4.129,4.129-4.129h96.488
		c2.39,0,4.129,1.956,4.129,4.129v23.688c0,2.173-1.739,4.129-4.129,4.129h-31.076v116.047c0,2.173-1.956,4.129-4.129,4.129h-26.078
		c-2.173,0-4.129-1.956-4.129-4.129V591.858z"/>
	<path d="M976.781,703.993l57.806-111.7v-0.435h-47.375c-2.173,0-4.129-1.956-4.129-4.129v-23.688c0-2.173,1.956-4.129,4.129-4.129
		h92.359c2.173,0,4.129,1.956,4.129,4.129v2.825l-55.85,112.787v0.435h47.375c2.39,0,4.129,1.956,4.129,4.129v23.688
		c0,2.173-1.739,4.129-4.129,4.129h-94.315c-2.173,0-4.129-1.956-4.129-4.129V703.993z"/>
	<path d="M1106.301,564.042c0-2.173,1.738-4.129,4.129-4.129h25.86c2.173,0,4.129,1.956,4.129,4.129v116.047h51.722
		c2.39,0,4.129,1.956,4.129,4.129v23.688c0,2.173-1.739,4.129-4.129,4.129h-81.711c-2.391,0-4.129-1.956-4.129-4.129V564.042z"/>
	<path d="M1215.391,564.042c0-2.173,1.738-4.129,4.129-4.129h89.969c2.391,0,4.129,1.956,4.129,4.129v23.688
		c0,2.173-1.738,4.129-4.129,4.129h-60.196v26.947h49.548c2.173,0,4.129,1.956,4.129,4.129v23.688c0,2.391-1.956,4.129-4.129,4.129
		h-49.548v29.338h60.196c2.391,0,4.129,1.956,4.129,4.129v23.688c0,2.173-1.738,4.129-4.129,4.129h-89.969
		c-2.391,0-4.129-1.956-4.129-4.129V564.042z"/>
	<path d="M1340.565,564.042c0-2.173,1.738-4.129,4.129-4.129h64.978c26.077,0,47.374,21.08,47.374,46.94
		c0,19.993-13.256,36.074-32.162,43.681l29.772,55.198c1.521,2.824,0,6.302-3.694,6.302h-28.903c-1.738,0-3.043-1.087-3.478-1.956
		l-28.902-57.589h-14.995v55.416c0,2.173-1.956,4.129-4.129,4.129h-25.86c-2.391,0-4.129-1.956-4.129-4.129V564.042z
		 M1406.847,624.891c8.909,0,16.516-8.258,16.516-17.386c0-9.127-7.606-16.516-16.516-16.516h-32.163v33.901H1406.847z"/>
</g>
<path fill="#FFFFFF" d="M1781.965,130.841l-1.115-0.558L1781.965,130.841z"/>
<path fill="none" stroke="#231F20" stroke-miterlimit="10" d="M1780.85,130.283l1.115,0.558L1780.85,130.283z"/>
<g>
	<defs>
		<rect id="SVGID_5_" width="2200" height="1200"/>
	</defs>
	<clipPath id="SVGID_6_">
		<use xlink:href="#SVGID_5_"  overflow="visible"/>
	</clipPath>
	<path clip-path="url(#SVGID_6_)" fill="#231F20" d="M1754.649,132.513c0.187,0.372,0.372,0.743,0.558,1.115
		c0.186-0.372,0.372-0.743,0.558-1.115H1754.649z"/>
	<path clip-path="url(#SVGID_6_)" fill="none" stroke="#FFFFFF" stroke-miterlimit="10" d="M1754.649,132.513
		c0.187,0.372,0.372,0.743,0.558,1.115c0.186-0.372,0.372-0.743,0.558-1.115H1754.649z"/>
	<path clip-path="url(#SVGID_6_)" fill="#231F20" d="M1776.391,134.185c1.437,1.591,0.719,0.877,2.229,0H1776.391z"/>
	<path clip-path="url(#SVGID_6_)" fill="none" stroke="#FFFFFF" stroke-miterlimit="10" d="M1776.391,134.185
		c1.437,1.591,0.719,0.877,2.229,0H1776.391z"/>
	<path clip-path="url(#SVGID_6_)" fill="#231F20" d="M1734.581,137.53l-0.557,1.115h1.114
		C1734.953,138.273,1734.768,137.902,1734.581,137.53"/>
	<path clip-path="url(#SVGID_6_)" fill="none" stroke="#FFFFFF" stroke-miterlimit="10" d="M1734.581,137.53l-0.557,1.115h1.114
		C1734.953,138.273,1734.768,137.902,1734.581,137.53z"/>
	<path clip-path="url(#SVGID_6_)" fill="#231F20" d="M1749.075,140.875c0.776,1.072,0.057,0.333,1.115,1.115
		C1749.818,141.618,1749.447,141.247,1749.075,140.875"/>
	<path clip-path="url(#SVGID_6_)" fill="none" stroke="#FFFFFF" stroke-miterlimit="10" d="M1749.075,140.875
		c0.776,1.072,0.057,0.333,1.115,1.115C1749.818,141.618,1749.447,141.247,1749.075,140.875z"/>
	<path clip-path="url(#SVGID_6_)" fill="#231F20" d="M1793.671,141.432v1.115V141.432z"/>
	<path clip-path="url(#SVGID_6_)" fill="none" stroke="#FFFFFF" stroke-miterlimit="10" d="M1793.671,141.432v1.115V141.432z"/>
	<path clip-path="url(#SVGID_6_)" fill="#231F20" d="M1813.739,159.271v1.115V159.271z"/>
	<path clip-path="url(#SVGID_6_)" fill="none" stroke="#FFFFFF" stroke-miterlimit="10" d="M1813.739,159.271v1.115V159.271z"/>
	<path clip-path="url(#SVGID_6_)" fill="#231F20" d="M1808.723,161.5v1.115V161.5z"/>
	<path clip-path="url(#SVGID_6_)" fill="none" stroke="#FFFFFF" stroke-miterlimit="10" d="M1808.723,161.5v1.115V161.5z"/>
	<path clip-path="url(#SVGID_6_)" fill="#FFFFFF" d="M1721.938,153.437v2.229h1.673c-0.187-0.743-0.372-1.486-0.558-2.229H1721.938z
		"/>
	<path clip-path="url(#SVGID_6_)" fill="#231F20" d="M1715.249,171.832v1.115C1715.794,171.974,1715.758,172.824,1715.249,171.832"
		/>
	<path clip-path="url(#SVGID_6_)" fill="none" stroke="#FFFFFF" stroke-miterlimit="10" d="M1715.249,171.832v1.115
		C1715.794,171.974,1715.758,172.824,1715.249,171.832z"/>
	<path clip-path="url(#SVGID_6_)" fill="#231F20" d="M1828.412,184.096v1.115C1828.956,184.238,1828.921,185.088,1828.412,184.096"
		/>
	<path clip-path="url(#SVGID_6_)" fill="none" stroke="#FFFFFF" stroke-miterlimit="10" d="M1828.412,184.096v1.115
		C1828.956,184.238,1828.921,185.088,1828.412,184.096z"/>
	<path clip-path="url(#SVGID_6_)" fill="#231F20" d="M1714.691,193.573c0.187,0.372,0.372,0.744,0.558,1.115
		c0.187-0.371,0.372-0.743,0.558-1.115H1714.691z"/>
	<path clip-path="url(#SVGID_6_)" fill="none" stroke="#FFFFFF" stroke-miterlimit="10" d="M1714.691,193.573
		c0.187,0.372,0.372,0.744,0.558,1.115c0.187-0.371,0.372-0.743,0.558-1.115H1714.691z"/>
	<path clip-path="url(#SVGID_6_)" fill="#231F20" d="M1711.904,198.59c0.775,1.072,0.057,0.334,1.115,1.115
		C1712.647,199.333,1712.276,198.962,1711.904,198.59"/>
	<path clip-path="url(#SVGID_6_)" fill="none" stroke="#FFFFFF" stroke-miterlimit="10" d="M1711.904,198.59
		c0.775,1.072,0.057,0.334,1.115,1.115C1712.647,199.333,1712.276,198.962,1711.904,198.59z"/>
	<path clip-path="url(#SVGID_6_)" fill="#231F20" d="M1707.445,210.854l0.557,1.115c0.187-0.372,0.372-0.743,0.558-1.115H1707.445z"
		/>
	<path clip-path="url(#SVGID_6_)" fill="none" stroke="#FFFFFF" stroke-miterlimit="10" d="M1707.445,210.854l0.557,1.115
		c0.187-0.372,0.372-0.743,0.558-1.115H1707.445z"/>
	<path clip-path="url(#SVGID_6_)" fill="#231F20" d="M1806.114,210.854l1.114,0.557L1806.114,210.854z"/>
	<path clip-path="url(#SVGID_6_)" fill="none" stroke="#FFFFFF" stroke-miterlimit="10" d="M1806.114,210.854l1.114,0.557
		L1806.114,210.854z"/>
	<path clip-path="url(#SVGID_6_)" fill="#231F20" d="M1818.378,227.02l1.114,0.557L1818.378,227.02z"/>
	<path clip-path="url(#SVGID_6_)" fill="none" stroke="#FFFFFF" stroke-miterlimit="10" d="M1818.378,227.02l1.114,0.557
		L1818.378,227.02z"/>
	<path clip-path="url(#SVGID_6_)" fill="#FFFFFF" d="M1713.577,228.135c-0.187,1.486-0.372,2.973-0.558,4.459
		c1.504-0.891,0.768-0.188,1.672-1.672C1714.693,228.829,1715.906,229.462,1713.577,228.135"/>
	<path clip-path="url(#SVGID_6_)" fill="#231F20" d="M1716.922,243.744c-0.186,0.372-0.372,0.743-0.559,1.115
		c1.686-0.702,0.668,0.01,1.673-1.115H1716.922z"/>
	<path clip-path="url(#SVGID_6_)" fill="none" stroke="#FFFFFF" stroke-miterlimit="10" d="M1716.922,243.744
		c-0.186,0.372-0.372,0.743-0.559,1.115c1.686-0.702,0.668,0.01,1.673-1.115H1716.922z"/>
	<path clip-path="url(#SVGID_6_)" fill="#231F20" d="M1718.594,244.301l1.115,0.558L1718.594,244.301z"/>
	<path clip-path="url(#SVGID_6_)" fill="none" stroke="#FFFFFF" stroke-miterlimit="10" d="M1718.594,244.301l1.115,0.558
		L1718.594,244.301z"/>
	<path clip-path="url(#SVGID_6_)" fill="#231F20" d="M1736.99,248.203c0.371,0.186,0.743,0.372,1.114,0.558
		C1737.733,248.575,1737.361,248.389,1736.99,248.203"/>
	<path clip-path="url(#SVGID_6_)" fill="none" stroke="#FFFFFF" stroke-miterlimit="10" d="M1736.99,248.203
		c0.371,0.186,0.743,0.372,1.114,0.558C1737.733,248.575,1737.361,248.389,1736.99,248.203z"/>
	<path clip-path="url(#SVGID_6_)" fill="#231F20" d="M1852.382,248.761v1.115V248.761z"/>
	<path clip-path="url(#SVGID_6_)" fill="none" stroke="#FFFFFF" stroke-miterlimit="10" d="M1852.382,248.761v1.115V248.761z"/>
	<path clip-path="url(#SVGID_6_)" fill="#231F20" d="M1856.284,249.875c0.776,1.072,0.057,0.333,1.115,1.115
		C1857.027,250.619,1856.656,250.248,1856.284,249.875"/>
	<path clip-path="url(#SVGID_6_)" fill="none" stroke="#FFFFFF" stroke-miterlimit="10" d="M1856.284,249.875
		c0.776,1.072,0.057,0.333,1.115,1.115C1857.027,250.619,1856.656,250.248,1856.284,249.875z"/>
	<path clip-path="url(#SVGID_6_)" fill="#231F20" d="M1741.449,251.548v1.115V251.548z"/>
	<path clip-path="url(#SVGID_6_)" fill="none" stroke="#FFFFFF" stroke-miterlimit="10" d="M1741.449,251.548v1.115V251.548z"/>
	<path clip-path="url(#SVGID_6_)" fill="#FFFFFF" d="M1707.445,261.582c0.186,1.486,0.371,2.973,0.557,4.459
		c0.372,0.187,0.744,0.372,1.115,0.558C1709.135,263.505,1709.137,262.885,1707.445,261.582"/>
	<path clip-path="url(#SVGID_6_)" fill="#231F20" d="M1777.684,262.697c0.941,1.382,0.335,0.652,1.673,0H1777.684z"/>
	<path clip-path="url(#SVGID_6_)" fill="none" stroke="#FFFFFF" stroke-miterlimit="10" d="M1777.684,262.697
		c0.941,1.382,0.335,0.652,1.673,0H1777.684z"/>
	<path clip-path="url(#SVGID_6_)" fill="#231F20" d="M1747.581,271.616v1.115V271.616z"/>
	<path clip-path="url(#SVGID_6_)" fill="none" stroke="#FFFFFF" stroke-miterlimit="10" d="M1747.581,271.616v1.115V271.616z"/>
	<path clip-path="url(#SVGID_6_)" fill="#231F20" d="M1875.795,279.978c0.187,0.372,0.372,0.744,0.558,1.115
		C1876.116,280.576,1876.8,280.715,1875.795,279.978"/>
	<path clip-path="url(#SVGID_6_)" fill="none" stroke="#FFFFFF" stroke-miterlimit="10" d="M1875.795,279.978
		c0.187,0.372,0.372,0.744,0.558,1.115C1876.116,280.576,1876.8,280.715,1875.795,279.978z"/>
	<path clip-path="url(#SVGID_6_)" fill="#FFFFFF" d="M1891.961,302.276c-1.3,0.743-2.602,1.486-3.901,2.23
		c0.186,0.929,0.371,1.858,0.557,2.787h2.788c0.863-2.35,1.346-1.866,2.787-3.345h-1.115
		C1892.705,303.391,1892.333,302.833,1891.961,302.276"/>
	<path clip-path="url(#SVGID_6_)" fill="#FFFFFF" d="M1730.858,308.965c-0.187,0.743-0.372,1.486-0.558,2.229
		c1.073-0.845,0.986-0.998,1.672-2.229H1730.858z"/>
	<path clip-path="url(#SVGID_6_)" fill="#231F20" d="M1701.87,375.859c1.004,1.138,0.009,0.394,1.673,1.115L1701.87,375.859z"/>
	<path clip-path="url(#SVGID_6_)" fill="none" stroke="#FFFFFF" stroke-miterlimit="10" d="M1701.87,375.859
		c1.004,1.138,0.009,0.394,1.673,1.115L1701.87,375.859z"/>
	<path clip-path="url(#SVGID_6_)" fill="#231F20" d="M1704.101,393.698c-0.187,0.372-0.372,0.743-0.558,1.115h1.115
		C1704.472,394.441,1704.286,394.07,1704.101,393.698"/>
	<path clip-path="url(#SVGID_6_)" fill="none" stroke="#FFFFFF" stroke-miterlimit="10" d="M1704.101,393.698
		c-0.187,0.372-0.372,0.743-0.558,1.115h1.115C1704.472,394.441,1704.286,394.07,1704.101,393.698z"/>
	<path clip-path="url(#SVGID_6_)" fill="#231F20" d="M1682.359,422.128c-0.186,0.372-0.371,0.743-0.559,1.115h1.116
		C1682.731,422.871,1682.546,422.5,1682.359,422.128"/>
	<path clip-path="url(#SVGID_6_)" fill="none" stroke="#FFFFFF" stroke-miterlimit="10" d="M1682.359,422.128
		c-0.186,0.372-0.371,0.743-0.559,1.115h1.116C1682.731,422.871,1682.546,422.5,1682.359,422.128z"/>
	<path clip-path="url(#SVGID_6_)" fill="#231F20" d="M1524.601,541.422c0.187,0.372,0.372,0.743,0.558,1.115
		c0.187-0.372,0.372-0.743,0.558-1.115H1524.601z"/>
	<path clip-path="url(#SVGID_6_)" fill="none" stroke="#FFFFFF" stroke-miterlimit="10" d="M1524.601,541.422
		c0.187,0.372,0.372,0.743,0.558,1.115c0.187-0.372,0.372-0.743,0.558-1.115H1524.601z"/>
	<path clip-path="url(#SVGID_6_)" fill="#231F20" d="M1536.865,544.767c0.371,0.186,0.743,0.372,1.114,0.558
		C1537.608,545.139,1537.236,544.953,1536.865,544.767"/>
	<path clip-path="url(#SVGID_6_)" fill="none" stroke="#FFFFFF" stroke-miterlimit="10" d="M1536.865,544.767
		c0.371,0.186,0.743,0.372,1.114,0.558C1537.608,545.139,1537.236,544.953,1536.865,544.767z"/>
	<path clip-path="url(#SVGID_6_)" fill="#231F20" d="M1539.652,547.554c-0.186,0.372-0.372,0.743-0.559,1.115
		C1540.13,547.974,1539.399,548.171,1539.652,547.554"/>
	<path clip-path="url(#SVGID_6_)" fill="none" stroke="#FFFFFF" stroke-miterlimit="10" d="M1539.652,547.554
		c-0.186,0.372-0.372,0.743-0.559,1.115C1540.13,547.974,1539.399,548.171,1539.652,547.554z"/>
	<path clip-path="url(#SVGID_6_)" fill="#231F20" d="M1522.371,557.588v1.115C1522.916,557.73,1522.88,558.581,1522.371,557.588"/>
	<path clip-path="url(#SVGID_6_)" fill="none" stroke="#FFFFFF" stroke-miterlimit="10" d="M1522.371,557.588v1.115
		C1522.916,557.73,1522.88,558.581,1522.371,557.588z"/>
	<path clip-path="url(#SVGID_6_)" fill="#231F20" d="M1533.521,561.491l1.114,0.557L1533.521,561.491z"/>
	<path clip-path="url(#SVGID_6_)" fill="none" stroke="#FFFFFF" stroke-miterlimit="10" d="M1533.521,561.491l1.114,0.557
		L1533.521,561.491z"/>
	<path clip-path="url(#SVGID_6_)" fill="#231F20" d="M1536.308,587.691c-0.187,0.372-0.372,0.743-0.558,1.115
		C1536.785,588.111,1536.055,588.308,1536.308,587.691"/>
	<path clip-path="url(#SVGID_6_)" fill="none" stroke="#FFFFFF" stroke-miterlimit="10" d="M1536.308,587.691
		c-0.187,0.372-0.372,0.743-0.558,1.115C1536.785,588.111,1536.055,588.308,1536.308,587.691z"/>
	<path clip-path="url(#SVGID_6_)" fill="#231F20" d="M1545.227,599.955c0.186,0.372,0.372,0.744,0.558,1.115
		c0.186-0.371,0.372-0.743,0.558-1.115H1545.227z"/>
	<path clip-path="url(#SVGID_6_)" fill="none" stroke="#FFFFFF" stroke-miterlimit="10" d="M1545.227,599.955
		c0.186,0.372,0.372,0.744,0.558,1.115c0.186-0.371,0.372-0.743,0.558-1.115H1545.227z"/>
	<path clip-path="url(#SVGID_6_)" fill="#231F20" d="M1554.146,659.602c0.776,1.072,0.057,0.334,1.115,1.115L1554.146,659.602z"/>
	<path clip-path="url(#SVGID_6_)" fill="none" stroke="#FFFFFF" stroke-miterlimit="10" d="M1554.146,659.602
		c0.776,1.072,0.057,0.334,1.115,1.115L1554.146,659.602z"/>
	<path clip-path="url(#SVGID_6_)" fill="#231F20" d="M1557.49,704.198v1.672c0.187-0.557,0.372-1.114,0.558-1.672H1557.49z"/>
	<path clip-path="url(#SVGID_6_)" fill="none" stroke="#FFFFFF" stroke-miterlimit="10" d="M1557.49,704.198v1.672
		c0.187-0.557,0.372-1.114,0.558-1.672H1557.49z"/>
	<path clip-path="url(#SVGID_6_)" fill="#231F20" d="M1561.95,733.743c0.186,0.558,0.372,1.115,0.558,1.672
		c1.139-1.003,0.394-0.008,1.115-1.672H1561.95z"/>
	<path clip-path="url(#SVGID_6_)" fill="none" stroke="#FFFFFF" stroke-miterlimit="10" d="M1561.95,733.743
		c0.186,0.558,0.372,1.115,0.558,1.672c1.139-1.003,0.394-0.008,1.115-1.672H1561.95z"/>
	<path clip-path="url(#SVGID_6_)" fill="#231F20" d="M1555.261,743.22v1.115V743.22z"/>
	<path clip-path="url(#SVGID_6_)" fill="none" stroke="#FFFFFF" stroke-miterlimit="10" d="M1555.261,743.22v1.115V743.22z"/>
	<path clip-path="url(#SVGID_6_)" fill="#231F20" d="M1555.818,757.156v1.672h1.115
		C1556.562,758.271,1556.189,757.713,1555.818,757.156"/>
	<path clip-path="url(#SVGID_6_)" fill="none" stroke="#FFFFFF" stroke-miterlimit="10" d="M1555.818,757.156v1.672h1.115
		C1556.562,758.271,1556.189,757.713,1555.818,757.156z"/>
	<path clip-path="url(#SVGID_6_)" fill="#231F20" d="M1561.393,780.569c0.941,1.382,0.335,0.651,1.673,0H1561.393z"/>
	<path clip-path="url(#SVGID_6_)" fill="none" stroke="#FFFFFF" stroke-miterlimit="10" d="M1561.393,780.569
		c0.941,1.382,0.335,0.651,1.673,0H1561.393z"/>
	<path clip-path="url(#SVGID_6_)" fill="#231F20" d="M1548.014,781.684v1.115V781.684z"/>
	<path clip-path="url(#SVGID_6_)" fill="none" stroke="#FFFFFF" stroke-miterlimit="10" d="M1548.014,781.684v1.115V781.684z"/>
	<path clip-path="url(#SVGID_6_)" fill="#231F20" d="M1556.934,783.356c0.371,0.186,0.743,0.371,1.114,0.557
		C1557.677,783.728,1557.305,783.542,1556.934,783.356"/>
	<path clip-path="url(#SVGID_6_)" fill="none" stroke="#FFFFFF" stroke-miterlimit="10" d="M1556.934,783.356
		c0.371,0.186,0.743,0.371,1.114,0.557C1557.677,783.728,1557.305,783.542,1556.934,783.356z"/>
	<path clip-path="url(#SVGID_6_)" fill="#231F20" d="M1546.342,796.178c0.371,0.558,0.743,1.114,1.114,1.672
		C1546.755,796.165,1547.467,797.183,1546.342,796.178"/>
	<path clip-path="url(#SVGID_6_)" fill="none" stroke="#FFFFFF" stroke-miterlimit="10" d="M1546.342,796.178
		c0.371,0.558,0.743,1.114,1.114,1.672C1546.755,796.165,1547.467,797.183,1546.342,796.178z"/>
	<path clip-path="url(#SVGID_6_)" fill="#231F20" d="M1560.835,802.867c-0.187,0.371-0.371,0.743-0.557,1.114
		c0.557-0.371,1.114-0.743,1.672-1.114H1560.835z"/>
	<path clip-path="url(#SVGID_6_)" fill="none" stroke="#FFFFFF" stroke-miterlimit="10" d="M1560.835,802.867
		c-0.187,0.371-0.371,0.743-0.557,1.114c0.557-0.371,1.114-0.743,1.672-1.114H1560.835z"/>
	<path clip-path="url(#SVGID_6_)" fill="#231F20" d="M1558.605,803.981c0.372,0.372,0.743,0.744,1.115,1.115
		C1559.349,804.726,1558.978,804.354,1558.605,803.981"/>
	<path clip-path="url(#SVGID_6_)" fill="none" stroke="#FFFFFF" stroke-miterlimit="10" d="M1558.605,803.981
		c0.372,0.372,0.743,0.744,1.115,1.115C1559.349,804.726,1558.978,804.354,1558.605,803.981z"/>
	<path clip-path="url(#SVGID_6_)" fill="#231F20" d="M1561.393,804.539v1.115V804.539z"/>
	<path clip-path="url(#SVGID_6_)" fill="none" stroke="#FFFFFF" stroke-miterlimit="10" d="M1561.393,804.539v1.115V804.539z"/>
	<path clip-path="url(#SVGID_6_)" fill="#231F20" d="M1559.721,807.326c0.508,2.035-0.021,1.141,1.114,2.23
		C1560.464,808.813,1560.092,808.069,1559.721,807.326"/>
	<path clip-path="url(#SVGID_6_)" fill="none" stroke="#FFFFFF" stroke-miterlimit="10" d="M1559.721,807.326
		c0.508,2.035-0.021,1.141,1.114,2.23C1560.464,808.813,1560.092,808.069,1559.721,807.326z"/>
	<path clip-path="url(#SVGID_6_)" fill="#231F20" d="M1556.376,817.918c0.371,0.743,0.743,1.486,1.114,2.229
		C1557.119,819.404,1556.747,818.661,1556.376,817.918"/>
	<path clip-path="url(#SVGID_6_)" fill="none" stroke="#FFFFFF" stroke-miterlimit="10" d="M1556.376,817.918
		c0.371,0.743,0.743,1.486,1.114,2.229C1557.119,819.404,1556.747,818.661,1556.376,817.918z"/>
	<path clip-path="url(#SVGID_6_)" fill="#231F20" d="M1549.687,820.705c0.371,0.743,0.743,1.487,1.114,2.23l0.558-0.558v-0.558
		C1550.802,821.448,1550.244,821.077,1549.687,820.705"/>
	<path clip-path="url(#SVGID_6_)" fill="none" stroke="#FFFFFF" stroke-miterlimit="10" d="M1549.687,820.705
		c0.371,0.743,0.743,1.487,1.114,2.23l0.558-0.558v-0.558C1550.802,821.448,1550.244,821.077,1549.687,820.705z"/>
	<path clip-path="url(#SVGID_6_)" fill="#231F20" d="M1574.214,824.607c0.372,0.186,0.743,0.372,1.115,0.558
		C1574.957,824.979,1574.586,824.793,1574.214,824.607"/>
	<path clip-path="url(#SVGID_6_)" fill="none" stroke="#FFFFFF" stroke-miterlimit="10" d="M1574.214,824.607
		c0.372,0.186,0.743,0.372,1.115,0.558C1574.957,824.979,1574.586,824.793,1574.214,824.607z"/>
	<path clip-path="url(#SVGID_6_)" fill="#231F20" d="M1566.41,836.871c0.371,0.188,0.743,0.372,1.114,0.558
		C1567.153,837.243,1566.781,837.059,1566.41,836.871"/>
	<path clip-path="url(#SVGID_6_)" fill="none" stroke="#FFFFFF" stroke-miterlimit="10" d="M1566.41,836.871
		c0.371,0.188,0.743,0.372,1.114,0.558C1567.153,837.243,1566.781,837.059,1566.41,836.871z"/>
	<path clip-path="url(#SVGID_6_)" fill="#231F20" d="M1566.968,840.216c0.186,0.372,0.371,0.743,0.557,1.115
		C1567.288,840.813,1567.972,840.954,1566.968,840.216"/>
	<path clip-path="url(#SVGID_6_)" fill="none" stroke="#FFFFFF" stroke-miterlimit="10" d="M1566.968,840.216
		c0.186,0.372,0.371,0.743,0.557,1.115C1567.288,840.813,1567.972,840.954,1566.968,840.216z"/>
	<path clip-path="url(#SVGID_6_)" fill="#231F20" d="M1556.376,841.889c0.371,0.186,0.743,0.371,1.114,0.558
		C1557.119,842.26,1556.747,842.074,1556.376,841.889"/>
	<path clip-path="url(#SVGID_6_)" fill="none" stroke="#FFFFFF" stroke-miterlimit="10" d="M1556.376,841.889
		c0.371,0.186,0.743,0.371,1.114,0.558C1557.119,842.26,1556.747,842.074,1556.376,841.889z"/>
	<path clip-path="url(#SVGID_6_)" fill="#231F20" d="M1569.197,843.561c0.371,0.187,0.743,0.372,1.115,0.558
		C1569.94,843.933,1569.568,843.747,1569.197,843.561"/>
	<path clip-path="url(#SVGID_6_)" fill="none" stroke="#FFFFFF" stroke-miterlimit="10" d="M1569.197,843.561
		c0.371,0.187,0.743,0.372,1.115,0.558C1569.94,843.933,1569.568,843.747,1569.197,843.561z"/>
	<path clip-path="url(#SVGID_6_)" fill="#231F20" d="M1553.031,848.021v1.115V848.021z"/>
	<path clip-path="url(#SVGID_6_)" fill="none" stroke="#FFFFFF" stroke-miterlimit="10" d="M1553.031,848.021v1.115V848.021z"/>
	<path clip-path="url(#SVGID_6_)" fill="#231F20" d="M1559.721,858.055c0.371,0.186,0.743,0.371,1.114,0.558
		C1560.464,858.426,1560.092,858.24,1559.721,858.055"/>
	<path clip-path="url(#SVGID_6_)" fill="none" stroke="#FFFFFF" stroke-miterlimit="10" d="M1559.721,858.055
		c0.371,0.186,0.743,0.371,1.114,0.558C1560.464,858.426,1560.092,858.24,1559.721,858.055z"/>
	<path clip-path="url(#SVGID_6_)" fill="#231F20" d="M1556.934,863.071v1.115V863.071z"/>
	<path clip-path="url(#SVGID_6_)" fill="none" stroke="#FFFFFF" stroke-miterlimit="10" d="M1556.934,863.071v1.115V863.071z"/>
	<path clip-path="url(#SVGID_6_)" fill="#231F20" d="M1568.64,868.089c1.004,1.138,0.009,0.394,1.673,1.114
		C1569.309,868.066,1570.304,868.81,1568.64,868.089"/>
	<path clip-path="url(#SVGID_6_)" fill="none" stroke="#FFFFFF" stroke-miterlimit="10" d="M1568.64,868.089
		c1.004,1.138,0.009,0.394,1.673,1.114C1569.309,868.066,1570.304,868.81,1568.64,868.089z"/>
	<path clip-path="url(#SVGID_6_)" fill="#231F20" d="M1553.031,881.468v1.114C1553.575,881.609,1553.54,882.46,1553.031,881.468"/>
	<path clip-path="url(#SVGID_6_)" fill="none" stroke="#FFFFFF" stroke-miterlimit="10" d="M1553.031,881.468v1.114
		C1553.575,881.609,1553.54,882.46,1553.031,881.468z"/>
	<path clip-path="url(#SVGID_6_)" fill="#231F20" d="M1559.163,895.403c-0.187,0.372-0.372,0.744-0.558,1.115h1.673
		c-0.187-0.371-0.372-0.743-0.558-1.115H1559.163z"/>
	<path clip-path="url(#SVGID_6_)" fill="none" stroke="#FFFFFF" stroke-miterlimit="10" d="M1559.163,895.403
		c-0.187,0.372-0.372,0.744-0.558,1.115h1.673c-0.187-0.371-0.372-0.743-0.558-1.115H1559.163z"/>
	<path clip-path="url(#SVGID_6_)" fill="#231F20" d="M1563.065,904.881v1.672h1.114
		C1563.809,905.995,1563.437,905.438,1563.065,904.881"/>
	<path clip-path="url(#SVGID_6_)" fill="none" stroke="#FFFFFF" stroke-miterlimit="10" d="M1563.065,904.881v1.672h1.114
		C1563.809,905.995,1563.437,905.438,1563.065,904.881z"/>
	<path clip-path="url(#SVGID_6_)" fill="#231F20" d="M1561.393,918.259v1.115C1561.938,918.401,1561.901,919.251,1561.393,918.259"
		/>
	<path clip-path="url(#SVGID_6_)" fill="none" stroke="#FFFFFF" stroke-miterlimit="10" d="M1561.393,918.259v1.115
		C1561.938,918.401,1561.901,919.251,1561.393,918.259z"/>
	<path clip-path="url(#SVGID_6_)" fill="#231F20" d="M1558.605,941.672c1.405,0.907,0.093,0.55,1.673,0H1558.605z"/>
	<path clip-path="url(#SVGID_6_)" fill="none" stroke="#FFFFFF" stroke-miterlimit="10" d="M1558.605,941.672
		c1.405,0.907,0.093,0.55,1.673,0H1558.605z"/>
	<path clip-path="url(#SVGID_6_)" fill="#231F20" d="M1561.95,955.608c0.372,0.186,0.743,0.372,1.115,0.558
		C1562.693,955.98,1562.322,955.794,1561.95,955.608"/>
	<path clip-path="url(#SVGID_6_)" fill="none" stroke="#FFFFFF" stroke-miterlimit="10" d="M1561.95,955.608
		c0.372,0.186,0.743,0.372,1.115,0.558C1562.693,955.98,1562.322,955.794,1561.95,955.608z"/>
	<path clip-path="url(#SVGID_6_)" fill="#231F20" d="M1558.605,979.579v1.114C1559.15,979.721,1559.114,980.571,1558.605,979.579"/>
	<path clip-path="url(#SVGID_6_)" fill="none" stroke="#FFFFFF" stroke-miterlimit="10" d="M1558.605,979.579v1.114
		C1559.15,979.721,1559.114,980.571,1558.605,979.579z"/>
	<path clip-path="url(#SVGID_6_)" fill="#231F20" d="M1545.227,1029.192c0.775,1.071,0.057,0.333,1.115,1.114
		C1545.97,1029.936,1545.599,1029.563,1545.227,1029.192"/>
	<path clip-path="url(#SVGID_6_)" fill="none" stroke="#FFFFFF" stroke-miterlimit="10" d="M1545.227,1029.192
		c0.775,1.071,0.057,0.333,1.115,1.114C1545.97,1029.936,1545.599,1029.563,1545.227,1029.192z"/>
	<path clip-path="url(#SVGID_6_)" fill="#231F20" d="M1546.899,1029.192c0.557,0.371,1.114,0.743,1.672,1.114
		C1547.567,1029.169,1548.563,1029.913,1546.899,1029.192"/>
	<path clip-path="url(#SVGID_6_)" fill="none" stroke="#FFFFFF" stroke-miterlimit="10" d="M1546.899,1029.192
		c0.557,0.371,1.114,0.743,1.672,1.114C1547.567,1029.169,1548.563,1029.913,1546.899,1029.192z"/>
	<path clip-path="url(#SVGID_6_)" fill="#037A33" d="M1988.4,795.718c2.038-3.612,4.845-14.165,2.229-20.068
		c-2.013-4.23-15.328-7.772-18.396-7.804v-7.247v-1.115c5.002,2.636,8.935,6.309,15.608,7.247c0.372-0.186,0.743-0.372,1.115-0.557
		c0.186-1.115,0.371-2.23,0.558-3.346c-4.424-2.882-13.725-9.371-17.839-6.689l-2.788-5.574c-4.328-2.497-6.919-0.011-13.378-1.115
		c-16.954-2.898-34.267-5.465-49.613-7.804c0.743-3.53,1.486-7.062,2.229-10.592c-1.115-8.175-2.229-16.353-3.344-24.528v-1.114
		c2.109-3.974,6.373-5.339,5.017-11.149s-8.959-16.188-6.689-24.527c1.096-4.024,4.237-3.82,4.46-10.034
		c-5.946,0.371-11.894,0.743-17.839,1.114c-0.372-0.556-0.743-1.114-1.115-1.672c19.589-2.358,37.558-0.616,55.745-4.46
		c0.372-0.371,0.744-0.743,1.115-1.115c-0.902-13.146-5.797-23.549-8.361-34.004c-5.326-21.709-3.395-43.06-10.592-64.664
		c-6.358-19.084-14.551-41.076-18.396-62.435c-0.186-9.662-0.371-19.326-0.557-28.987c-0.889-4.988-3.9-12.39-2.23-18.954
		c1.679-6.597,5.696-13.871,4.46-23.412c-1.161-8.959-9.36-22.61-6.689-34.562c1.485-3.345,2.974-6.69,4.46-10.035
		c2.121-10.566-0.758-20.118-2.23-28.987c-0.744-9.104-1.486-18.211-2.229-27.315c-4.043-19.983-12.226-34.756-22.298-48.498
		c-4.977-6.789-13.523-9.285-19.511-15.052c-5.292-5.097-6.443-11.264-16.166-12.263c-1.919-3.216-1.079-3.472,0-7.247
		c-3.827-5.472-8.528-14.061-15.052-16.724c-14.348,7.075-29.488,17.352-40.137,28.43h1.115
		c-5.547,3.387-22.053,20.185-28.43,20.626c2.242-17.17,36.77-41.961,50.728-49.613c4.569-2.505,12.629-1.812,17.28-5.017
		c6.08-4.189,1.878-9.143,5.018-15.609c0.912-1.877,4.312-3.456,5.018-6.132c1.399-5.302-2.126-9.042-0.558-14.494
		c-0.929-0.186-1.858-0.371-2.787-0.557c0.929-0.186,1.858-0.372,2.787-0.558c-1.121-8.963-3.381-30.903-7.247-37.907
		c-2.005-3.632-12.562-7.773-8.919-12.821c0.372-0.371,0.743-0.743,1.115-1.115c-1.804-2.047-2.588-4.062-5.018-5.574
		c-2.786,0.929-5.575,1.858-8.361,2.787c-1.126-4.382-2.358-7.114-7.805-8.362c0.743-1.114,1.487-2.23,2.229-3.344l-0.557-1.115
		c-8.586-1.167-15.548,0.78-22.855,1.115c-2.416-1.115-4.832-2.23-7.247-3.345c-5.255-1.61-13.339,2.445-17.281,3.902h-0.558
		c1.288-1.777,1.958-1.357,2.787-3.902c-11.82,0.007-14.236,8.581-20.067,14.494c-2.896-2.025-3.442-1.969-8.362-1.673
		c-2.561,3.395-7.142,10.591-7.805,15.052c-1.113,0.186-2.229,0.371-3.344,0.557c0.617,3.625,1.711,5.457,3.344,7.804
		c-2.332,8.973-7.376,22.638-11.706,31.218c-2.078,4.118,2.907,4.966,1.115,9.476c-2.659,6.691-8.729,10.92-11.707,18.396
		c2.316,3.939,3.291,6.562,8.92,7.247c0.371,0.557,0.743,1.115,1.114,1.672c-1.857,0.743-3.717,1.487-5.574,2.23
		c-3.259,2.338-4.193,8.075-3.902,13.936c2.229,2.973,4.459,5.947,6.689,8.92c0.762,1.489,0.066,0.338,1.673,0
		c1.051,3.123,0.651,4.013,0,7.247c1.114,0.185,2.229,0.371,3.345,0.557c-1.137,5.823-18.924,23.326-5.575,27.872
		c1.11-2.041-0.263-0.943,2.23-1.672c0.591,4.572,3.798,9.532,6.132,13.936c0.557,0.186,1.115,0.372,1.672,0.558
		c5.466-3.995,12.774-5.694,16.724-11.149c0.743-2.601,1.487-5.203,2.229-7.805c1.859-2.914,6.508-3.256,8.362-6.689
		c4.459,0.372,8.92,0.743,13.379,1.115v1.115c0.371,1.115,0.743,2.23,1.114,3.345c-0.186,0.557-0.371,1.114-0.557,1.672
		c-3.94,2.58-8.287,0.461-13.379,1.672c-3.53,3.159-7.062,6.318-10.592,9.477c0.582,7.147,0.096,6.07-3.345,10.591
		c0.997,3.792,3.026,5.694,5.017,8.362c-3.511,6.008-10.685,7.696-15.608,12.264c0.491,3.322,1.575,4.759,3.345,6.69
		c-2.044,11.559-14.681,19.556-18.953,29.545c-8.826,20.636-6.188,48.176-15.609,66.336c-2.491,4.803-7.637,4.068-11.707,7.247
		c-2.785,4.645-5.573,9.291-8.36,13.936c-3.698,4.757-9.714,7.854-15.052,11.149c-2.973,4.831-5.946,9.663-8.92,14.494
		c-2.826,3.943-6.826,5.553-10.033,8.919c-2.043,4.274-4.088,8.548-6.133,12.822c-2.16,3.177-3.555,0.363-6.688,1.672
		c-3.147,1.315-18.741,20.235-18.953,25.085c4.054,5.683,25.015,25.684,23.972,29.545l4.459,1.115v0.558
		c-1.301,0.743-2.603,1.486-3.902,2.23c-4.226-0.361-7.128-1.927-9.481-4.006c0.002,0.002,0.003,0.003,0.004,0.006
		c-0.006-0.007-0.013-0.014-0.019-0.02c-1.919-1.699-3.475-3.737-5.076-5.747c0.025,0.062,0.049,0.121,0.078,0.192h-1.115v-1.471
		c-1.598-1.927-3.328-3.749-5.574-5.12c-0.186,0.185-0.373,0.371-0.558,0.557c1.991,2.532,5.894,5.307,3.902,10.034
		c-1.406,2.017-1.841,0.581-4.46,1.672c-2.408,1.319-2.793,2.84-2.787,5.017c-2.518-0.21-2.398-0.031-4.459,1.115
		c-0.744-1.3-1.487-2.601-2.23-3.902c-2.111,1.344-1.383,1.557-1.115,5.017c-2.596-0.196-1.467-1.096-2.787,1.115
		c-2.714-1.108-4.464-3.338-5.574-6.132h-1.672c0.186,1.487,0.371,2.973,0.557,4.46c-1.994-0.017-1.41-0.419-4.459,0
		c-0.186-1.487-0.372-2.973-0.558-4.46c-2.742,1.239-2.277,0.989-1.115,3.345c-0.929,0.557-1.858,1.115-2.787,1.672l-2.229-2.787
		l-1.673,2.787c0.93,0.929,1.858,1.858,2.788,2.787c3.901-0.557,7.805-1.115,11.706-1.672c0.186,0.186,0.372,0.372,0.558,0.557
		v1.673c-5.767,1.825-10.238-0.627-17.281,1.115c-7.602,1.88-10.107,8.129-18.953,8.362c-2.465-3.136-4.069-4.303-3.345-9.477
		c3.208-1.419,3.419-4.495,6.689-6.132c1.1-0.89,0.761-0.756,2.787-1.115c0.929,1.672,1.858,3.345,2.787,5.017
		c0.743,0.186,1.486,0.372,2.229,0.557c-0.743-2.415-1.486-4.831-2.229-7.246c2.821-0.178,6.496-2.554,11.706-2.787
		c0.744-1.858,1.487-3.717,2.23-5.575v-0.558h-3.345c-0.372-1.486-0.743-2.973-1.115-4.459l-1.114-0.557h-0.558
		c-0.015,4.344,0.675,6.464,2.229,8.919c-5.202,0.371-10.406,0.743-15.608,1.114c-0.187-0.371-0.372-0.743-0.558-1.114
		c0.816-5.361,4.115-8.424,5.574-14.494c10.96-3.111,24.33-4.646,36.792-5.017c3.138,3.146,4.615,6.829,8.362,9.476h0.557
		c-2.229-3.715-4.459-7.433-6.689-11.149c1.486-0.929,2.973-1.858,4.46-2.787v-1.672c-4.878,0.925-10.12,3.859-13.937,5.017
		c-3.344-0.186-6.689-0.372-10.034-0.558c-7.899,1.042-15.278,3.142-21.74,5.018c-1.928,6.271-7.406,12.86-4.46,17.838
		c-12.353,3.076-33.37,5.666-42.924,15.051c-0.41,4.092,19.905,41.601,23.413,48.498c7.821,15.381,9.927,55.952,12.821,79.716
		c2.765,22.688,1.873,56.227-3.345,79.716c-1.925,8.668-5.579,20.761-3.901,30.659c1.612,9.521,3.67,17.115,7.246,23.971
		c-1.293,1.499-1.82,25.627-1.114,29.545c1.446,8.042,6.843,14.522,6.132,24.527c-2.061,28.98-2.023,55.64-6.689,83.618
		c-2.841,17.032-0.584,30.195-3.902,46.269c-2.415,11.147-4.832,22.299-7.247,33.446c-0.558,0.372-1.114,0.744-1.672,1.115
		c-5.76-7.246-11.521-14.494-17.281-21.74c-0.372,1.301-0.743,2.602-1.115,3.902l-4.459-3.902c-0.558,0.557-1.115,1.115-1.673,1.672
		c4.831,6.689,9.663,13.38,14.494,20.068c3.967,1.849,7.636,0.962,9.477,4.46v5.017c3.596,2.038,11.594,0.684,16.724,1.673
		c0.159-22.001,11.066-52.86,16.724-73.026c1.938-6.907-0.192-11.87,1.672-18.953c5.794-22.012,8.569-59.668,10.034-84.176
		c18.825-3.782,20.444,32.261,17.281,50.729c-8.361,48.809-11.764,121.154-0.558,170.58c2.021,8.912,1.037,20.186,3.902,27.873
		c5.718,0.962,11.503-1.777,15.608-2.23c4.698-4.945-1.056-34.692-1.114-45.711c-0.191-35.447-0.168-64.559,3.9-94.209
		c0.668-4.854-1.564-11.136,1.116-16.166c2.317-3.351,57.895-7.41,68.566-3.902c3.769,4.184,1.157,14.958,2.229,21.741
		c2.162,13.666,1.014,31.682,6.133,44.596c2.83,0.721,9.379,1.442,12.264,0.558c5.588-6.247,2.416-60.72,3.345-68.567
		c25.633-1.746,45.985-7.836,69.124-13.378c10.432-2.499,19.922-1.799,27.872-5.575l1.115,1.116
		c0.186,8.174,0.371,16.352,0.558,24.526c-0.187,5.017-0.372,10.035-0.558,15.052c1.114,13.377,2.229,26.759,3.345,40.137v26.758
		c-5.166,3.821-13.109,2.975-15.609,9.477c6.817-1.541,7.988-2.461,15.609-3.902c0.781,1.059,0.043,0.339,1.114,1.114
		c-5.265,17.928-40.474,33.772-39.021,50.171c-2.601,0.371-5.203,0.743-7.804,1.115c-0.743,1.114-1.487,2.229-2.23,3.346
		c0.558,0.928,1.115,1.857,1.673,2.786c16.823,6.269,70.565,2.264,81.388-4.46c6.007-3.731,6.877-8.246,10.592-14.493
		c5.502-9.256,17.968-6.544,28.987-7.247c3.06-4.637,5.536-10.355,6.689-15.608c-0.187-1.487-0.372-2.974-0.558-4.46
		c1.192-2.835,5.972-4.18,7.247-7.805c4.188-11.903,0.538-30.263,2.229-41.809c5.834-39.827,14.269-94.732,4.459-136.018
		c-2.837-11.942,0.041-23.476-2.787-34.005c0.371-0.372,0.744-0.743,1.115-1.115c1.374,4.772,6.227,9.942,11.707,10.592
		c3.488-5.254,7.959-11.873,12.264-16.724c8.518,7.389,13.61,19.448,20.626,28.43c-0.187,0.93-0.372,1.858-0.558,2.788
		c1.988,8.197-1.874,16.585,0.558,25.085c1.3,3.901,2.602,7.805,3.901,11.706c3.409,2.042,3.797,1.065,7.247-0.557
		c-0.558,1.114-1.115,2.229-1.672,3.345c0.557,0.743,1.114,1.486,1.672,2.229c0.929-0.186,1.858-0.372,2.788-0.558
		c7.209-6.942,23.479-59.608,20.625-75.256c-1.954-10.72-4.506-21.231-3.345-32.332
		C1983.568,796.09,1985.985,795.903,1988.4,795.718 M1933.213,613.334c-1.13-0.761-0.908-0.615-1.673-1.673
		C1932.588,612.437,1932.457,612.188,1933.213,613.334 M1929.868,629.5c0.371,0.186,0.743,0.371,1.114,0.557v0.558
		c-0.371,0.188-0.743,0.372-1.114,0.558c-0.187-0.37-0.372-0.743-0.558-1.115C1929.496,629.871,1929.682,629.686,1929.868,629.5
		 M1925.966,625.04h1.673C1926.059,625.59,1927.371,625.947,1925.966,625.04 M1927.081,587.133
		c-1.664-0.721-0.669,0.023-1.673-1.115C1927.072,586.739,1926.077,585.995,1927.081,587.133 M1925.966,594.38h1.115l-1.673,1.115
		C1925.594,595.124,1925.78,594.752,1925.966,594.38 M1918.719,537.521c-1.664-0.721-0.668,0.023-1.672-1.115
		C1918.711,537.126,1917.715,536.382,1918.719,537.521 M1905.897,507.418c-0.372-0.372-0.743-0.744-1.114-1.116
		C1905.841,507.084,1905.121,506.346,1905.897,507.418 M1904.783,465.609c-0.188,0.371-0.372,0.743-0.559,1.114
		c-0.186-0.371-0.371-0.743-0.557-1.114H1904.783z M1612.121,507.976v-1.115C1612.629,507.853,1612.665,507.002,1612.121,507.976
		 M1694.623,556.473c-0.186-0.371-0.371-0.743-0.557-1.115C1695.07,556.096,1694.387,555.957,1694.623,556.473 M1695.738,846.348
		c-1.337,0.652-0.73,1.383-1.672,0H1695.738z M1694.623,894.847c-1.337,0.651-0.73,1.382-1.672,0H1694.623z M1684.59,495.711
		c0.508,0.992,0.544,0.142,0,1.115V495.711z M1657.832,515.779c-1.13-0.76-0.907-0.615-1.673-1.672
		C1656.717,514.664,1657.274,515.222,1657.832,515.779 M1647.798,461.149c0.371,0.557,0.743,1.115,1.114,1.672h-1.114V461.149z
		 M1644.453,529.158c11.008-12.595,29.796-17.033,39.579-31.217h2.229c1.115,12.82,2.23,25.644,3.345,38.464
		c-0.186,0.186-0.372,0.372-0.558,0.558c-13.564-1.518-31.852-7.123-44.596-7.247V529.158z M1686.819,756.599
		c-0.186-0.372-0.372-0.743-0.558-1.115C1687.266,756.222,1686.583,756.081,1686.819,756.599 M1686.262,567.622
		c-0.371-0.371-0.743-0.743-1.115-1.114c0.187-0.187,0.372-0.373,0.558-0.558c0.558,0.185,1.115,0.371,1.673,0.558
		C1687.005,566.879,1686.634,567.251,1686.262,567.622 M1683.475,701.969c-0.186-0.372-0.371-0.744-0.558-1.115
		C1683.922,701.593,1683.238,701.451,1683.475,701.969 M1681.245,869.761h-0.558c-0.186-0.743-0.372-1.486-0.558-2.229
		C1681.266,868.621,1680.736,867.726,1681.245,869.761 M1679.572,749.909c-0.186-0.372-0.371-0.743-0.559-1.115
		C1680.02,749.532,1679.336,749.392,1679.572,749.909 M1676.228,539.75c0.187-0.372,0.372-0.743,0.558-1.115
		C1676.533,539.252,1677.262,539.055,1676.228,539.75 M1672.325,584.346c-1.058-0.781-0.339-0.044-1.114-1.115
		C1671.582,583.603,1671.954,583.974,1672.325,584.346 M1645.011,711.445c0.558,0.371,1.114,0.743,1.671,1.114v0.558
		c-0.742-0.186-1.485-0.371-2.229-0.558C1644.639,712.188,1644.824,711.816,1645.011,711.445 M1643.896,535.847
		c-0.186,0.372-0.372,0.744-0.558,1.116c-0.186-0.372-0.371-0.744-0.558-1.116H1643.896z M1636.092,473.413
		c-0.187-0.372-0.371-0.743-0.558-1.115C1636.538,473.036,1635.855,472.896,1636.092,473.413 M1626.057,549.784h1.115v1.672h-0.558
		c-0.371-0.371-0.743-0.743-1.114-1.114C1625.686,550.155,1625.871,549.969,1626.057,549.784 M1612.121,549.784l0.557,2.229h-0.557
		V549.784z M1603.759,543.652c-0.186-0.372-0.372-0.744-0.558-1.115C1604.206,543.275,1603.522,543.134,1603.759,543.652
		 M1577.559,827.395c0.371,0.372,0.744,0.743,1.115,1.115C1577.615,827.729,1578.335,828.468,1577.559,827.395 M1582.019,853.595
		l-1.115,1.115c-0.186-0.186-0.371-0.372-0.558-0.558c0.187-0.371,0.372-0.743,0.558-1.115h1.115V853.595z M1581.461,781.684
		c0.186-0.371,0.372-0.743,0.558-1.115h1.115C1582.128,781.694,1583.146,780.981,1581.461,781.684 M1585.363,862.514
		c1.059,0.781,0.339,0.044,1.115,1.115C1586.106,863.259,1585.734,862.886,1585.363,862.514 M1567.524,790.603
		c-0.558,0.372-1.114,0.744-1.672,1.115c-4.183-16.671,0.325-39.44,1.672-56.86c8.929-2.521,59.415-10.818,63.55-15.051
		c0.371,0.372,0.743,0.744,1.115,1.115c-0.461,1.553-0.293,0.955,0.557,2.229c5.975-2.476,38.559-1.299,44.039,1.673h1.115
		c1.19,8.104-6.465,20.381-8.362,28.987c0.187,4.645,0.372,9.291,0.558,13.936C1644.812,761.513,1579.997,770.709,1567.524,790.603
		 M1672.883,845.233c-1.337,0.651-0.73,1.382-1.672,0H1672.883z M1661.734,841.331c-1.664-0.721-0.669,0.023-1.673-1.114
		C1660.619,840.588,1661.177,840.959,1661.734,841.331 M1653.372,774.437c-0.77,0.932-1.27,0.987-2.229,1.673l-1.115-1.115
		c0.186-0.186,0.372-0.371,0.558-0.558H1653.372z M1631.632,786.144c-0.187-0.372-0.372-0.743-0.558-1.115
		C1632.078,785.767,1631.396,785.626,1631.632,786.144 M1626.057,868.646c-0.186-0.372-0.371-0.744-0.557-1.115
		C1626.504,868.27,1625.82,868.129,1626.057,868.646 M1621.598,910.455c-0.558,0.558-1.115,1.115-1.673,1.672
		c0.187-1.114,0.372-2.229,0.558-3.345C1620.854,909.34,1621.226,909.897,1621.598,910.455 M1606.547,776.109
		c0.557,0.371,1.114,0.743,1.672,1.115C1606.214,777.369,1607.586,777.83,1606.547,776.109 M1607.104,780.568
		c-0.371,0.744-0.743,1.487-1.114,2.23c0.186-0.743,0.371-1.486,0.558-2.23H1607.104z M1599.3,946.132
		c-0.187-0.372-0.372-0.743-0.558-1.115C1599.746,945.755,1599.063,945.614,1599.3,946.132 M1598.185,926.621
		c-0.186-0.372-0.372-0.743-0.558-1.115C1598.632,926.244,1597.948,926.104,1598.185,926.621 M1598.185,830.739
		c1.005,0.738,0.321,0.598,0.558,1.115C1598.557,831.482,1598.37,831.111,1598.185,830.739 M1596.512,936.098
		c1.125,1.006,0.413-0.013,1.115,1.672h-1.115V936.098z M1597.069,1016.928c-0.186-0.371-0.371-0.743-0.558-1.114
		c1.059-0.781,0.34-0.044,1.115-1.115c0.558,0.372,1.115,0.743,1.673,1.115c-0.187,0.371-0.372,0.743-0.558,1.114H1597.069z
		 M1599.3,1060.409v-1.114C1599.809,1060.286,1599.844,1059.437,1599.3,1060.409 M1603.201,1025.29
		c0.372,0.371,0.744,0.743,1.115,1.114C1603.258,1025.623,1603.978,1026.361,1603.201,1025.29 M1604.874,908.782v-2.229
		c0.186,0.743,0.372,1.486,0.558,2.229H1604.874z M1604.874,900.421c-0.186-0.372-0.372-0.743-0.558-1.115
		C1605.321,900.044,1604.637,899.903,1604.874,900.421 M1605.989,996.859c0.186-0.557,0.371-1.114,0.558-1.672
		C1607.005,996.56,1606.753,995.664,1605.989,996.859 M1607.104,967.872c-0.186-0.371-0.371-0.743-0.557-1.113
		C1607.551,967.496,1606.867,967.354,1607.104,967.872 M1609.891,1061.524c0.187-0.557,0.371-1.115,0.558-1.673
		C1610.537,1061.312,1611.055,1060.25,1609.891,1061.524 M1612.121,873.105c-0.186-0.371-0.372-0.743-0.558-1.114
		C1612.568,872.729,1611.885,872.588,1612.121,873.105 M1613.793,917.145v-1.115
		C1614.302,917.021,1614.338,916.172,1613.793,917.145 M1612.678,865.858c-0.371,0.372-0.742,0.744-1.114,1.115
		c-2.42-2.486-8.078-11.307-7.805-13.937c4.071,0.951,9.15,4.657,11.149,7.806C1616.185,863.565,1614.932,864.908,1612.678,865.858
		 M1616.023,840.773c0.371,0.186,0.742,0.372,1.113,0.558c-0.371,0.371-0.742,0.743-1.113,1.115V840.773z M1616.58,912.127
		c0.186-0.371,0.372-0.742,0.557-1.114h1.116C1619.311,912.569,1618.196,911.831,1616.58,912.127 M1617.137,915.472
		c1.665,0.722,0.67-0.023,1.674,1.115C1618.253,916.215,1617.695,915.844,1617.137,915.472 M1629.959,946.132
		c-0.186-0.372-0.371-0.743-0.557-1.115h1.113C1630.331,945.389,1630.145,945.76,1629.959,946.132 M1636.092,941.672
		c0.371-0.186,0.742-0.371,1.114-0.557C1638.41,941.438,1636.092,941.672,1636.092,941.672 M1690.164,886.484
		c-3.885,14.614-1.169,30.423-1.672,46.826c-19.05,9.698-47.817,3.027-66.895,10.034h-1.673c1.487-16.908,2.974-33.82,4.46-50.729
		c-0.186-7.06-0.371-14.122-0.558-21.183c0.891,1.1,0.757,0.761,1.115,2.787c5.778,3.266,55.845-1.14,65.778-2.229v1.114
		C1690.721,873.105,1691.132,882.844,1690.164,886.484 M1693.509,773.879c-1.663-0.721-0.669,0.024-1.673-1.114
		C1693.5,773.485,1692.505,772.741,1693.509,773.879 M1694.066,899.863c0.743,0.186,1.486,0.372,2.229,0.558v1.115
		c-0.372,0.557-0.743,1.114-1.114,1.672h-2.23c-0.186-0.558-0.371-1.115-0.558-1.672L1694.066,899.863z M1694.066,919.374v-1.114
		C1694.574,919.251,1694.61,918.401,1694.066,919.374 M1693.509,987.94c0.372,0.372,0.743,0.743,1.114,1.115v1.672h-1.672
		C1693.137,989.799,1693.323,988.869,1693.509,987.94 M1695.738,926.063c-0.186-0.371-0.371-0.743-0.557-1.115
		C1696.186,925.687,1695.502,925.546,1695.738,926.063 M1696.296,1007.451h1.673
		C1696.631,1008.104,1697.237,1008.834,1696.296,1007.451 M1697.969,971.774c1.125,1.006,0.412-0.013,1.114,1.673
		C1698.712,972.89,1698.34,972.332,1697.969,971.774 M1699.641,934.982c-0.186-0.371-0.371-0.743-0.558-1.114
		C1700.088,934.606,1699.404,934.465,1699.641,934.982 M1701.87,998.532c-0.186-0.372-0.371-0.743-0.558-1.115
		C1702.317,998.155,1701.634,998.015,1701.87,998.532 M1707.445,725.381c0.186-0.371,0.371-0.743,0.557-1.114
		c0.372,0.371,0.744,0.743,1.115,1.114H1707.445z M1706.887,543.094v-0.557c0.559-0.186,1.115-0.372,1.673-0.558
		C1710.516,541.514,1708.553,542.868,1706.887,543.094 M1816.148,573.197c-0.187,0.371-0.372,0.743-0.558,1.115
		c-0.187-0.372-0.372-0.744-0.558-1.115H1816.148z M1813.918,934.982v-1.672h0.557
		C1814.29,933.868,1814.104,934.427,1813.918,934.982 M1814.475,896.519h1.116v2.787h-0.558
		C1814.848,898.377,1814.661,897.447,1814.475,896.519 M1802.77,730.398c-0.187,0.371-0.372,0.743-0.558,1.114
		c-0.187-0.371-0.372-0.743-0.558-1.114H1802.77z M1798.31,700.854c0.186,0.371,0.372,0.743,0.558,1.115h-1.115
		C1797.938,701.597,1798.124,701.225,1798.31,700.854 M1798.31,715.347c-0.372-0.371-0.743-0.743-1.115-1.114
		C1798.253,715.014,1797.533,714.275,1798.31,715.347 M1796.637,555.917l-0.557-1.115
		C1797.084,555.539,1796.4,555.398,1796.637,555.917 M1794.965,723.709c0.558,0.186,1.115,0.371,1.672,0.558
		c2.366,1.54,2.894,3.379,1.673,5.575c-1.61,1.794-5.735,1.931-8.362,0.557h-1.114v-0.557
		C1790.519,727.145,1793.036,726.109,1794.965,723.709 M1788.275,563.72h1.115c-0.187,0.372-0.372,0.744-0.558,1.115
		C1788.646,564.464,1788.461,564.092,1788.275,563.72 M1791.62,709.772c-0.186,0.372-0.372,0.743-0.558,1.115
		c-0.186-0.372-0.371-0.743-0.558-1.115H1791.62z M1767.092,536.963c3.783,1.672,24.636,20.512,25.644,23.97
		c-16.384-0.768-16.987-17.848-32.89-20.069C1763.012,539.369,1764.823,539.081,1767.092,536.963 M1787.718,842.446v0.557
		c-0.372,0.187-0.743,0.372-1.114,0.558c-0.187-0.371-0.372-0.743-0.558-1.114c0.186-0.187,0.371-0.372,0.558-0.558
		C1786.975,842.074,1787.346,842.26,1787.718,842.446 M1782.701,559.26c-0.743,0.372-1.486,0.744-2.23,1.115
		c0.187-0.371,0.372-0.743,0.558-1.115H1782.701z M1757.059,533.618c-2.014-0.392-1.682-0.222-2.788-1.115
		C1756.283,532.895,1755.952,532.726,1757.059,533.618 M1744.236,539.75c11.359,0.746,17.846,1.735,25.086,7.247
		c3.989,3.036,4.339,7.145,10.034,8.919c0.371,0.557,0.743,1.115,1.114,1.672c-0.186,0.743-0.371,1.487-0.557,2.23
		c-8.686,1.342-19.527,0.956-29.545-1.115c-2.416-0.557-4.832-1.115-7.247-1.673c-4.496,1.083-10.024,5.744-14.494,5.575
		c-0.371,0.558-0.743,1.115-1.114,1.673c0.742,1.486,1.486,2.973,2.229,4.459c-2.155,1.869-3.493,1.146-4.46,4.46h-3.345
		c-0.186-0.372-0.371-0.744-0.558-1.115c1.657-4.815,0.979-10.378-0.557-15.609C1727.596,549.686,1738.06,547.197,1744.236,539.75
		 M1777.126,563.163c0.187-0.372,0.372-0.744,0.558-1.115c0.186,0.371,0.371,0.743,0.558,1.115H1777.126z M1770.994,855.824
		l-1.114-1.114C1770.938,855.491,1770.219,854.753,1770.994,855.824 M1764.305,745.449c-1.058-0.781-0.338-0.043-1.114-1.114
		L1764.305,745.449z M1760.96,727.611c-0.371-0.372-0.743-0.744-1.114-1.115C1760.903,727.277,1760.184,726.539,1760.96,727.611
		 M1749.812,575.984c-1.664-0.721-0.669,0.024-1.673-1.115C1749.803,575.59,1748.807,574.845,1749.812,575.984 M1743.122,788.373
		c-1.664-0.721-0.669,0.023-1.673-1.114C1743.113,787.979,1742.118,787.234,1743.122,788.373 M1733.646,581.559h-1.673
		c0.186-0.371,0.373-0.743,0.558-1.114h0.558C1733.273,580.815,1733.459,581.188,1733.646,581.559 M1721.381,531.946
		c-1.062-0.844-1.006-0.987-1.672-2.23C1720.266,530.459,1720.824,531.202,1721.381,531.946 M1721.381,852.48
		c-1.337,0.652-0.73,1.382-1.672,0H1721.381z M1716.364,540.864c-0.185,0.372-0.372,0.744-0.558,1.115
		c-0.186-0.371-0.371-0.743-0.558-1.115H1716.364z M1713.577,549.784c0.371,0.185,0.743,0.371,1.114,0.558
		c-0.371,0.371-0.743,0.743-1.114,1.114V549.784z M1716.922,567.065c0.743,0.186,1.486,0.371,2.229,0.557v6.132
		c-1.858,0.558-3.717,1.115-5.574,1.672c-0.187-0.743-0.372-1.486-0.558-2.229C1714.32,571.153,1715.621,569.109,1716.922,567.065
		 M1713.02,861.957c1.136,1.09,0.606,0.194,1.115,2.229h-1.115V861.957z M1712.462,936.098c0.558,0.372,1.115,0.744,1.673,1.115
		C1712.471,936.491,1713.466,937.236,1712.462,936.098 M1762.075,934.427c0.186-0.373,0.372-0.745,0.558-1.116
		C1762.693,934.437,1763.223,933.939,1762.075,934.427 M1765.978,933.868h-0.558c-0.371-0.372-0.743-0.743-1.115-1.115
		c0.372-0.37,0.744-0.743,1.115-1.115h1.115C1766.348,932.381,1766.163,933.125,1765.978,933.868 M1811.688,923.834
		c0.186-0.372,0.372-0.742,0.558-1.115C1812.535,923.932,1812.688,923.088,1811.688,923.834 M1810.016,917.145
		c-9.404,1.121-24.199,5.235-34.004,7.247c-21.182,2.043-42.369,4.088-63.55,6.132h-0.558c-2.902-10.514,1.504-60.06,5.018-62.435
		c4.297-2.117,12.158,0.453,16.724-0.558c12.291-2.723,67.895-1.772,75.256-8.361c2.044,0.557,4.088,1.114,6.132,1.673
		C1813.361,879.607,1811.688,898.379,1810.016,917.145 M1813.918,1028.077v-1.673h2.23l0.557,1.673v0.558h-1.672
		C1814.661,1028.449,1814.29,1028.263,1813.918,1028.077 M1820.05,1042.014h-2.229c-0.371-0.186-0.743-0.372-1.115-0.558
		c0.186-0.372,0.372-0.743,0.557-1.114c2.014,0.391,1.682,0.222,2.788,1.114V1042.014z M1820.05,957.838v-1.672
		c0.372,0.371,0.743,0.743,1.115,1.115C1820.793,957.468,1820.422,957.652,1820.05,957.838 M1822.28,853.595
		c-0.187-0.929-0.372-1.858-0.558-2.787c0.371,0.929,0.743,1.858,1.115,2.787H1822.28z M1825.625,921.047
		c-0.187-0.371-0.372-0.744-0.558-1.115C1826.071,920.67,1825.389,920.529,1825.625,921.047 M1826.739,920.489
		c1.664,0.721,0.669-0.022,1.673,1.114C1827.854,921.232,1827.297,920.86,1826.739,920.489 M1839.004,737.646
		c-0.372-0.558-0.744-1.115-1.115-1.673C1839.014,736.979,1838.302,735.96,1839.004,737.646 M1830.641,1065.983
		c1.715-2.923,3.284-3.942,5.575-6.132l-2.229-3.902c2.973,0.558,5.945,1.115,8.919,1.673
		C1841.508,1060.719,1833.747,1064.701,1830.641,1065.983 M1854.055,1059.852c-0.186-0.371-0.373-0.743-0.558-1.114
		C1854.502,1059.475,1853.818,1059.334,1854.055,1059.852 M1861.302,641.206c-0.187-0.372-0.372-0.743-0.558-1.114
		C1861.748,640.829,1861.065,640.688,1861.302,641.206 M1872.45,1072.115c0.187-0.557,0.372-1.114,0.558-1.672h0.558
		C1872.845,1072.107,1873.589,1071.112,1872.45,1072.115 M1878.582,733.186c0.557,0.186,1.115,0.371,1.673,0.558v0.558h-2.229
		C1878.211,733.929,1878.396,733.557,1878.582,733.186 M1878.025,1058.18v-0.558c0.743-0.372,1.486-0.743,2.229-1.115
		c0.558,0.187,1.115,0.372,1.673,0.558C1880.716,1058.033,1880.43,1058.063,1878.025,1058.18 M1898.65,708.657l-1.114-1.114
		C1898.594,708.324,1897.875,707.586,1898.65,708.657 M1900.881,707.543c-0.372,0.186-0.744,0.371-1.115,0.558
		c-0.186-0.558-0.371-1.115-0.558-1.673C1899.766,706.801,1900.323,707.171,1900.881,707.543 M1896.421,694.164h1.673
		c0.371,1.857,0.743,3.717,1.114,5.574c-1.301-0.371-2.602-0.743-3.903-1.115C1895.678,697.137,1896.049,695.65,1896.421,694.164
		 M1893.076,694.722c0.371,0.371,0.743,0.743,1.115,1.114C1893.133,695.055,1893.853,695.793,1893.076,694.722 M1889.731,698.066
		c-1.664-0.722-0.669,0.023-1.673-1.115C1888.616,697.322,1889.174,697.694,1889.731,698.066 M1886.944,1006.337
		c0.186-0.372,0.372-0.743,0.558-1.115c0.186,0.372,0.371,0.743,0.557,1.115H1886.944z M1886.944,956.724
		c0.372-0.558,0.743-1.115,1.114-1.673h1.115c-0.371,0.743-0.744,1.487-1.115,2.23
		C1887.688,957.095,1887.316,956.909,1886.944,956.724 M1888.616,1007.451c0.187-0.557,0.372-1.115,0.558-1.672
		C1889.632,1007.15,1889.381,1006.256,1888.616,1007.451 M1889.731,822.378c1.059,0.781,0.339,0.043,1.114,1.114
		C1890.475,823.121,1890.104,822.749,1889.731,822.378 M1892.519,693.606c-1.094-1.449-0.544-0.522-0.558-2.229
		c0.372,0.186,0.744,0.371,1.115,0.558C1892.891,692.491,1892.705,693.049,1892.519,693.606 M1895.305,815.688v-1.673
		c1.127,1.006,0.414-0.013,1.116,1.673H1895.305z M1898.65,986.269c0.372,0.371,0.744,0.743,1.115,1.115
		C1898.707,986.602,1899.427,987.34,1898.65,986.269 M1901.438,938.327c-0.742-0.186-1.486-0.371-2.229-0.558
		c0.187-0.371,0.372-0.743,0.558-1.114h1.672V938.327z M1902.553,692.491h-1.672v-1.672c0.557,0.371,1.114,0.743,1.672,1.115
		V692.491z M1905.897,749.352c-1.059-0.781-0.339-0.043-1.114-1.115C1905.154,748.608,1905.525,748.98,1905.897,749.352
		 M1904.225,753.812c0.187-1.301,0.371-2.602,0.559-3.902c0.186,1.114,0.371,2.229,0.557,3.345
		C1904.969,753.439,1904.596,753.625,1904.225,753.812 M1906.455,808.441c-0.186-0.371-0.372-0.743-0.558-1.115
		C1906.902,808.064,1906.219,807.924,1906.455,808.441 M1907.57,835.758c-0.372-0.559-0.744-1.116-1.115-1.674
		c0.743,0.186,1.486,0.372,2.229,0.558C1908.313,835.014,1907.941,835.385,1907.57,835.758 M1953.281,758.271
		c1.044,1.61,0.719,0.406,0,2.23v1.114c-0.372-0.371-0.744-0.743-1.115-1.114C1952.537,759.759,1952.909,759.014,1953.281,758.271
		 M1918.161,767.19c0.372,0.371,0.743,0.743,1.115,1.114C1918.218,767.523,1918.938,768.262,1918.161,767.19 M1924.85,764.96
		c-0.185-0.371-0.37-0.742-0.557-1.114h1.115C1925.223,764.218,1925.037,764.589,1924.85,764.96 M1924.293,761.615v-1.672
		c0.372,0.186,0.744,0.371,1.115,0.558C1925.037,760.872,1924.665,761.244,1924.293,761.615 M1928.753,824.051
		c1.059,0.78,0.339,0.042,1.115,1.114L1928.753,824.051z M1925.966,751.023v-2.229c3.062,0.2,4.515,0.715,6.132,2.229H1925.966z
		 M1933.771,754.926c1.663,0.722,0.668-0.023,1.672,1.115C1933.778,755.32,1934.773,756.064,1933.771,754.926 M1937.115,811.229
		v-1.672h0.557C1937.486,810.113,1937.301,810.671,1937.115,811.229 M1938.229,793.391v-1.115
		C1938.738,793.268,1938.774,792.417,1938.229,793.391 M1938.787,753.812c-0.186-0.372-0.371-0.743-0.558-1.115
		C1939.234,753.435,1938.551,753.294,1938.787,753.812 M1941.574,810.113h1.115c-0.186,0.372-0.372,0.744-0.558,1.115
		C1941.946,810.857,1941.76,810.485,1941.574,810.113 M1944.361,779.454v-1.673h1.673L1944.361,779.454z M1948.264,821.263h1.115
		c-0.743,0.558-1.486,1.115-2.23,1.673C1947.521,822.378,1947.893,821.82,1948.264,821.263 M1955.511,847.463v1.115
		c-2.602-3.345-5.204-6.69-7.805-10.034c0.743-0.372,1.487-0.743,2.23-1.115c3.903,1.894,4.354,5.128,6.689,8.362
		C1956.254,846.348,1955.883,846.905,1955.511,847.463 M1958.855,792.275c-0.186,0.371-0.372,0.743-0.558,1.115
		c-0.186-0.372-0.372-0.744-0.558-1.115H1958.855z M1959.413,871.991c-1.337,0.651-0.731,1.382-1.673,0H1959.413z M1959.413,886.484
		c-0.187,0.186-0.372,0.372-0.558,0.558h-0.558c-0.371-1.672-0.743-3.345-1.114-5.017c0.742,0.186,1.486,0.371,2.229,0.557
		c0.185,0.558,0.371,1.115,0.557,1.673C1959.784,884.998,1959.598,885.741,1959.413,886.484 M1961.085,884.255v-1.115
		C1961.594,884.133,1961.63,883.282,1961.085,884.255 M1967.217,756.599c1.588,1.766,0.594,6.155,0.558,8.919h-0.558
		C1965.387,763.263,1966.22,759.131,1967.217,756.599 M1967.217,829.067v-1.673c0.558,0.186,1.115,0.372,1.672,0.558
		C1968.332,828.324,1967.774,828.695,1967.217,829.067 M1968.889,766.634c0.187-0.559,0.373-1.116,0.559-1.674
		c0.186,0.743,0.371,1.487,0.557,2.23h-0.557C1969.262,767.004,1969.075,766.818,1968.889,766.634 M1970.004,776.109v-2.787
		c0.372,0.557,0.744,1.114,1.115,1.672C1970.748,775.366,1970.376,775.737,1970.004,776.109 M1972.792,826.837
		c-0.187-0.37-0.372-0.743-0.558-1.114h1.115C1973.163,826.094,1972.978,826.467,1972.792,826.837 M1978.366,810.113
		c-0.187-0.371-0.372-0.743-0.558-1.114h1.115C1978.738,809.37,1978.552,809.742,1978.366,810.113"/>
	<path clip-path="url(#SVGID_6_)" fill="#037A33" d="M1613.793,529.716v0.202c0.351,0.422,0.695,0.849,1.037,1.278
		C1614.266,529.792,1614.871,530.679,1613.793,529.716"/>
	<path clip-path="url(#SVGID_6_)" fill="#037A33" d="M1618.811,535.848l1.096,1.096c0.005,0.004,0.01,0.008,0.015,0.013
		C1619.153,535.896,1619.866,536.628,1618.811,535.848"/>
	<path clip-path="url(#SVGID_6_)" fill="#037A33" d="M1974.464,753.812c-0.187,0.371-0.371,0.743-0.558,1.114
		C1974.734,753.995,1974.79,755.015,1974.464,753.812"/>
	<path clip-path="url(#SVGID_6_)" fill="#231F20" d="M1824.51,1076.018c-0.186,0.372-0.372,0.743-0.559,1.115h1.116
		C1824.882,1076.761,1824.695,1076.39,1824.51,1076.018"/>
	<path clip-path="url(#SVGID_6_)" fill="none" stroke="#FFFFFF" stroke-miterlimit="10" d="M1824.51,1076.018
		c-0.186,0.372-0.372,0.743-0.559,1.115h1.116C1824.882,1076.761,1824.695,1076.39,1824.51,1076.018z"/>
	<path clip-path="url(#SVGID_6_)" fill="#FFFFFF" d="M1818.378,1078.805c-1.301,1.487-2.603,2.974-3.902,4.46h0.558
		c1.486-0.929,2.973-1.858,4.459-2.787C1818.791,1078.793,1819.503,1079.811,1818.378,1078.805"/>
	<path clip-path="url(#SVGID_6_)" fill="#231F20" d="M1827.297,1078.805c0.558,0.188,1.115,0.372,1.673,0.558
		C1828.412,1079.177,1827.854,1078.992,1827.297,1078.805"/>
	<path clip-path="url(#SVGID_6_)" fill="none" stroke="#FFFFFF" stroke-miterlimit="10" d="M1827.297,1078.805
		c0.558,0.188,1.115,0.372,1.673,0.558C1828.412,1079.177,1827.854,1078.992,1827.297,1078.805z"/>
	<path clip-path="url(#SVGID_6_)" fill="#FFFFFF" d="M1841.791,1079.92c-0.188,0.186-0.372,0.372-0.559,0.558
		c0.371,0.372,0.744,0.743,1.116,1.115l0.557-1.673H1841.791z"/>
	<path clip-path="url(#SVGID_6_)" fill="#231F20" d="M1612.121,1081.035c0.371,0.187,0.743,0.371,1.114,0.558
		C1612.864,1081.406,1612.492,1081.222,1612.121,1081.035"/>
	<path clip-path="url(#SVGID_6_)" fill="none" stroke="#FFFFFF" stroke-miterlimit="10" d="M1612.121,1081.035
		c0.371,0.187,0.743,0.371,1.114,0.558C1612.864,1081.406,1612.492,1081.222,1612.121,1081.035z"/>
	<path clip-path="url(#SVGID_6_)" fill="#231F20" d="M1798.867,1082.149c0.371,0.187,0.743,0.372,1.114,0.558
		C1799.61,1082.521,1799.238,1082.336,1798.867,1082.149"/>
	<path clip-path="url(#SVGID_6_)" fill="none" stroke="#FFFFFF" stroke-miterlimit="10" d="M1798.867,1082.149
		c0.371,0.187,0.743,0.372,1.114,0.558C1799.61,1082.521,1799.238,1082.336,1798.867,1082.149z"/>
	<path clip-path="url(#SVGID_6_)" fill="#231F20" d="M1787.16,1087.167c0.372,0.186,0.743,0.372,1.115,0.558
		C1787.903,1087.539,1787.532,1087.353,1787.16,1087.167"/>
	<path clip-path="url(#SVGID_6_)" fill="none" stroke="#FFFFFF" stroke-miterlimit="10" d="M1787.16,1087.167
		c0.372,0.186,0.743,0.372,1.115,0.558C1787.903,1087.539,1787.532,1087.353,1787.16,1087.167z"/>
	<path clip-path="url(#SVGID_6_)" fill="#FFFFFF" d="M1601.529,1090.512v2.787h0.558l0.558-0.559
		C1601.933,1091.141,1602.991,1091.737,1601.529,1090.512"/>
	<path clip-path="url(#SVGID_6_)" fill="#231F20" d="M1835.659,1092.184c0.186,0.372,0.371,0.744,0.557,1.115
		C1835.979,1092.781,1836.663,1092.922,1835.659,1092.184"/>
	<path clip-path="url(#SVGID_6_)" fill="none" stroke="#FFFFFF" stroke-miterlimit="10" d="M1835.659,1092.184
		c0.186,0.372,0.371,0.744,0.557,1.115C1835.979,1092.781,1836.663,1092.922,1835.659,1092.184z"/>
</g>
<g>
	<defs>
		<rect id="SVGID_7_" width="2200" height="1200"/>
	</defs>
	<clipPath id="SVGID_8_">
		<use xlink:href="#SVGID_7_"  overflow="visible"/>
	</clipPath>
</g>
<g>
	<defs>
		<rect id="SVGID_9_" width="2200" height="1200"/>
	</defs>
	<clipPath id="SVGID_10_">
		<use xlink:href="#SVGID_9_"  overflow="visible"/>
	</clipPath>
</g>
<g>
	<defs>
		<rect id="SVGID_11_" width="2200" height="1200"/>
	</defs>
	<clipPath id="SVGID_12_">
		<use xlink:href="#SVGID_11_"  overflow="visible"/>
	</clipPath>
</g>
<g>
	<defs>
		<rect id="SVGID_13_" width="2200" height="1200"/>
	</defs>
	<clipPath id="SVGID_14_">
		<use xlink:href="#SVGID_13_"  overflow="visible"/>
	</clipPath>
	<path clip-path="url(#SVGID_14_)" fill="#037A33" d="M261.344,965l-0.586-11.753c5.317-0.266,10.842-1.009,16.581-2.229
		c2.681-0.601,4.556-1.466,5.622-2.593c1.066-1.127,1.806-3.15,2.222-6.068c0.452-4.04,0.276-18.794-0.527-44.264
		c-0.622-18.095-1.404-36.558-2.344-55.386c-1.847-37.002-2.906-55.847-3.176-56.534c-0.268-0.688-3.583-0.873-9.94-0.556
		c-12.998,0.648-24.154,1.58-33.468,2.792c-5.401,0.739-8.441,1.357-9.12,1.858c-0.678,0.504-1.175,1.346-1.491,2.529
		c-0.315,1.186-0.701,9.412-1.157,24.677l-12.033,0.601c-0.707-17.878-1.941-33.245-3.705-46.102l1.483-1.201
		c29.455-0.067,58.08-0.795,85.88-2.183c27.706-1.384,58.686-3.632,92.947-6.745l1.651,2.168
		c-1.133,12.908-1.643,27.986-1.529,45.239l-11.614,0.58c-1.625-15.685-2.889-24.166-3.795-25.444
		c-0.706-1.004-2.234-1.635-4.584-1.896c-7.525-0.852-22.388-0.723-44.588,0.386c-1.867,0.094-2.973,0.43-3.316,1.007
		c-0.342,0.675-0.404,3.156-0.189,7.451l3.859,94.151c1.361,27.264,2.43,43.987,3.208,50.172c0.778,6.187,2.091,9.887,3.94,11.104
		c1.26,0.778,8.671,1.394,22.234,1.839l0.587,11.752c-13.768,0.033-28.358,0.436-43.772,1.205
		C290.35,962.57,273.922,963.717,261.344,965"/>
	<path clip-path="url(#SVGID_14_)" fill="#037A33" d="M522.905,939.54l0.573,11.475l-10.823,0.12
		c-5.721,0.005-11.432,0.149-17.137,0.435c-8.791,0.438-17.1,1.134-24.928,2.085l-1.48-1.46l0.442-19.257l-28.1,23.306
		c-5.154,1.465-9.733,2.299-13.736,2.498c-9.869,0.494-17.651-2.064-23.344-7.671c-5.694-5.607-8.822-14.055-9.386-25.343
		c-0.694-13.899,2.494-23.878,9.565-29.936c9.125-7.937,29.788-15.655,61.99-23.154c-0.74-11.042-3.046-18.956-6.921-23.74
		c-5.457-6.581-13.536-9.606-24.234-9.072c-2.514,0.126-5.081,0.559-7.701,1.296c-2.622,0.741-5.248,1.83-7.881,3.27l-5.531,15.286
		l-9.774-1.896l-0.035-6.312l-0.447-6.149l-0.419-5.59c13.83-9.574,23.814-15.637,29.952-18.188
		c4.486-1.907,10.789-3.063,18.905-3.469c11.006-0.55,20.044,0.663,27.114,3.637c7.069,2.976,12.331,7.236,15.788,12.779
		c3.455,5.546,5.458,13.788,6.004,24.727c0.229,4.582,0.449,12.771,0.666,24.57c0.232,12.175,0.534,21.952,0.903,29.338
		c0.584,11.688,1.264,18.778,2.044,21.268c0.446,1.477,1.414,2.602,2.903,3.371C509.364,938.531,514.374,939.125,522.905,939.54
		 M467.142,884.672c-16.183,4.371-26.634,8.764-31.352,13.173c-4.72,4.408-6.903,10.122-6.552,17.14
		c0.285,5.71,2.088,10.123,5.412,13.238c3.325,3.118,7.404,4.554,12.238,4.312c7.342-0.367,14.664-4.906,21.963-13.618
		L467.142,884.672z"/>
	<path clip-path="url(#SVGID_14_)" fill="#037A33" d="M677.042,835.056l-23.227,1.16c1.533,4.517,2.4,8.736,2.596,12.663
		c0.858,17.202-4.626,30.318-16.452,39.343c-11.828,9.023-25.936,13.946-42.325,14.764c-2.608,0.13-6.435,0.138-11.482,0.019
		c-4.16,2.733-6.784,4.874-7.872,6.423c-1.089,1.552-1.587,3.26-1.494,5.123c0.224,4.478,3.483,7.026,9.781,7.646
		c3.477,0.387,22.43-0.279,56.852-1.997c11.566-0.578,19.615,0.026,24.147,1.811c4.53,1.786,8.37,5.171,11.519,10.155
		c3.147,4.987,4.925,11.538,5.33,19.653c0.936,18.75-5.695,34.839-19.895,48.268c-14.198,13.425-33.939,20.771-59.218,22.032
		c-21.457,1.071-37.642-1.884-48.557-8.865c-10.918-6.981-16.665-16.301-17.247-27.959c-0.336-6.717,1.016-12.393,4.059-17.032
		c1.389-2.127,6.343-5.927,14.861-11.4l9.789-6.237c-7.631-1.116-12.767-2.846-15.409-5.19s-4.077-5.805-4.306-10.374
		c-0.247-4.943,1.27-11.097,4.55-18.46l4.471-3.167c5.145-3.716,9.996-7.699,14.553-11.946
		c-10.869-3.293-18.835-8.086-23.896-14.382c-5.062-6.297-7.84-14.391-8.334-24.282c-0.713-14.276,4.189-26.285,14.71-36.024
		c10.52-9.739,25.688-15.104,45.505-16.093c9.769-0.488,18.424,0.062,25.964,1.649c5.562,1.219,11.185,3.604,16.866,7.153
		c20.526-0.931,33.899-1.879,40.117-2.844l2.523,2.773C683.177,823.054,680.35,828.261,677.042,835.056 M583.681,951.517
		c-7.546,6.188-12.413,11.258-14.6,15.212c-2.188,3.952-3.158,8.405-2.91,13.364c0.448,8.977,4.309,16.072,11.584,21.287
		c7.274,5.213,17.719,7.481,31.34,6.801c9.795-0.488,18.065-2.448,24.816-5.878c6.748-3.433,11.713-7.945,14.895-13.54
		c3.179-5.597,4.605-11.715,4.273-18.353c-0.303-6.078-1.959-11.153-4.967-15.22c-2.199-2.797-5.114-4.527-8.746-5.188
		c-3.634-0.665-14.034-0.565-31.197,0.291L583.681,951.517z M575.492,852.105c0.7,14.024,3.254,23.785,7.667,29.281
		c4.411,5.496,10.465,8.052,18.161,7.668c7.044-0.352,12.39-3.124,16.036-8.321c3.644-5.196,5.201-13.123,4.669-23.781
		c-0.583-11.685-3.026-20.091-7.324-25.219c-4.299-5.128-10.113-7.509-17.437-7.144c-7.049,0.352-12.543,2.947-16.484,7.781
		C576.84,837.21,575.077,843.786,575.492,852.105"/>
	<path clip-path="url(#SVGID_14_)" fill="#037A33" d="M812.775,909.473l4.243,3.867l-5.601,13.704
		c-6.511,4.508-13.563,7.993-21.158,10.464c-7.593,2.468-15.729,3.919-24.404,4.353c-20.343,1.016-36.661-4.091-48.961-15.318
		c-12.3-11.226-18.984-27.532-20.051-48.917c-0.676-13.538,0.49-24.831,3.499-33.876c2.439-7.329,6.735-13.533,12.887-18.614
		c6.151-5.081,13.296-9.979,21.431-14.692c8.133-4.71,17.191-7.317,27.174-7.815c15.297-0.764,28.15,2.884,38.56,10.938
		c10.408,8.054,16.087,21.571,17.034,40.548c0.117,2.339,0.106,5.902-0.027,10.688l-22.702,5.342
		c-7.053,0.82-17.285,1.563-30.696,2.232l-30.314,1.514c2.203,16.021,7.611,27.899,16.229,35.627
		c8.618,7.73,19.273,11.277,31.962,10.644c5.317-0.266,10.55-1.301,15.699-3.104C802.727,915.25,807.791,912.725,812.775,909.473
		 M732.109,859.099c8.433,0.329,16.847,0.281,25.243-0.138c7.368-0.368,15.093-1.126,23.172-2.279l-0.19-6.607
		c-0.575-11.514-3.093-19.809-7.555-24.891c-4.462-5.078-10.285-7.44-17.467-7.082c-5.038,0.252-9.313,1.711-12.828,4.371
		c-3.514,2.663-6.046,6.286-7.593,10.867C733.342,837.924,732.414,846.509,732.109,859.099"/>
	<path clip-path="url(#SVGID_14_)" fill="#037A33" d="M859.256,936.848l-6.799-2.328c0.552-22.673-0.168-53.942-2.158-93.808
		c-0.9-18.015-1.734-31.917-2.501-41.707l-2.63-35.946c-0.274-5.507-0.92-9.124-1.936-10.853c-0.711-1.18-1.913-1.963-3.604-2.348
		c-1.223-0.312-6.712-0.412-16.464-0.301l-0.503-10.075c5.118-0.255,13.205-1.757,24.264-4.507
		c11.058-2.749,19.321-5.43,24.788-8.041l6.023-2.686c1.767-0.088,2.708,0.986,2.82,3.226l0.314,14.714
		c0.064,5.046,1.058,31.51,2.982,79.387l16.225-14.978c5.093-4.743,9.724-7.966,13.896-9.671c4.169-1.703,9.239-2.706,15.21-3.004
		c15.672-0.783,28.49,3.586,38.459,13.104c9.965,9.52,15.353,22.357,16.16,38.51c0.396,7.937-0.503,16.196-2.691,24.777
		c-2.191,8.583-5.088,15.653-8.69,21.216c-3.604,5.563-8.381,10.552-14.333,14.968c-7.497,5.336-13.847,10.194-19.05,14.572
		c-6.195,5.178-11.448,8.62-15.757,10.334c-4.312,1.713-9.636,2.729-15.979,3.045c-6.252,0.312-12.122-0.19-17.611-1.506
		c-5.49-1.314-11.745-3.901-18.763-7.76C868.789,926.974,864.897,930.862,859.256,936.848 M884.585,836.269l3.207,64.226
		c3.706,4.961,8.051,8.625,13.033,10.992c4.979,2.371,10.55,3.401,16.707,3.095c9.979-0.499,17.851-4.891,23.61-13.174
		c5.758-8.282,8.233-20.54,7.422-36.771c-0.764-15.299-4.488-26.687-11.174-34.161c-6.685-7.474-15.114-10.959-25.28-10.451
		c-5.412,0.271-10.411,1.76-14.998,4.467C892.524,827.198,888.348,831.125,884.585,836.269"/>
	<path clip-path="url(#SVGID_14_)" fill="#037A33" d="M1000.277,813.098l-0.538-10.774c14.854-2.144,28.668-5.499,41.44-10.064
		l13.609-5.589c1.679-0.083,2.572,0.95,2.679,3.097l-0.147,8.295c-0.515,21.562-0.271,42.335,0.727,62.322
		c0.644,12.891,1.723,21.427,3.243,25.612c1.517,4.186,4.036,7.358,7.559,9.522c3.521,2.165,8.126,3.105,13.818,2.821
		c6.622-0.33,12.339-2.441,17.148-6.335c4.807-3.893,7.685-8.064,8.633-12.512c0.946-4.449,0.905-16.999-0.126-37.649
		c-0.825-16.536-1.588-26.191-2.287-28.967c-0.449-1.477-1.154-2.472-2.113-2.987c-1.437-0.676-7.813-1.013-19.129-1.012
		l-0.538-10.773c18.971-3.098,32.852-6.315,41.643-9.653l14.531-6.057c1.58-0.079,2.421,0.862,2.52,2.827l-0.075,3.799
		c-0.692,16.345,0.03,45.878,2.164,88.604c0.653,13.09,1.433,21.299,2.343,24.626c0.542,1.568,1.34,2.653,2.394,3.256
		c1.523,0.769,7.4,1.271,17.631,1.509l0.573,11.474c-10.703-0.025-21.301,0.223-31.787,0.746
		c-8.542,0.427-16.465,1.103-23.771,2.028l-1.378-2.456c0.18-4.684,0.188-12.025,0.022-22.024
		c-8.326,7.429-16.338,15.545-24.034,24.345c-6.481,3.222-12.937,4.995-19.374,5.316c-8.584,0.429-16.132-0.929-22.647-4.066
		c-6.517-3.138-11.429-7.409-14.737-12.816c-3.31-5.405-5.216-13.149-5.72-23.238l-0.482-15.286
		c-0.191-9.446-0.433-17.109-0.727-22.995c-0.83-16.625-1.655-26.555-2.469-29.793c-0.576-2.123-1.631-3.592-3.166-4.405
		C1016.171,813.029,1010.361,812.783,1000.277,813.098"/>
	<path clip-path="url(#SVGID_14_)" fill="#037A33" d="M1281.375,826.839l-11.475,0.572c-1.211-11.066-2.322-17.418-3.342-19.051
		c-1.346-2.549-4.203-4.792-8.563-6.726c-4.362-1.933-9.771-2.739-16.224-2.417c-9.912,0.494-16.996,3.687-21.25,9.572
		c-4.253,5.887-6.012,16.173-5.278,30.861c0.93,18.618,5.892,32.791,14.89,42.516c8.999,9.728,20.169,14.257,33.514,13.591
		c4.853-0.242,9.287-0.885,13.303-1.929c4.017-1.045,7.665-2.445,10.947-4.205l2.513,2.97c-1.815,4.557-3.487,9.149-5.018,13.782
		c-6.008,3.366-12.169,5.972-18.485,7.82c-6.316,1.848-12.741,2.936-19.274,3.262c-20.346,1.016-36.47-3.818-48.369-14.506
		c-11.9-10.685-18.368-26.394-19.403-47.124c-0.382-7.656,0.018-14.627,1.2-20.911c1.182-6.282,2.947-11.662,5.296-16.132
		c2.349-4.471,4.995-8.135,7.939-10.998c1.79-1.587,9.553-7.169,23.29-16.749c8.041-5.643,13.922-9.164,17.639-10.569
		c3.718-1.4,8.746-2.262,15.091-2.578c5.597-0.28,11.076-0.132,16.435,0.441c5.358,0.574,10.6,1.575,15.721,3.002l2.505,2.401
		C1282.395,799.482,1281.193,813.85,1281.375,826.839"/>
	<path clip-path="url(#SVGID_14_)" fill="#037A33" d="M1309.305,911.433l-0.572-11.474c10.046-1.062,15.794-2.053,17.245-2.969
		c0.904-0.606,1.56-1.48,1.974-2.626c0.814-2.382,0.901-10.958,0.259-25.726l-2.295-51.59c-1.367-27.375-2.893-52.308-4.577-74.799
		c-0.611-8.494-1.7-13.428-3.264-14.801c-1.564-1.373-7.58-1.94-18.039-1.699l-0.503-10.075c5.701-0.284,13.878-1.767,24.525-4.45
		c10.644-2.682,19.312-5.594,25.999-8.732c2.744-1.352,4.352-2.041,4.82-2.064c1.4-0.069,2.146,0.783,2.235,2.554l0.048,0.979
		c-0.168,2.253-0.135,5.713,0.098,10.376l1.264,44.966c0.356,10.923,0.939,23.52,1.746,37.786l17.66-16.593
		c3.746-3.459,6.579-5.609,8.499-6.455c4.839-2.205,10.563-3.474,17.176-3.804c14.622-0.729,25.606,2.378,32.959,9.32
		c7.256,6.95,11.277,18.323,12.066,34.124l2.213,55.564c0.494,9.91,1.171,16.016,2.026,18.316c0.535,1.381,1.681,2.447,3.437,3.202
		c1.755,0.756,6.996,1.104,15.723,1.042l0.573,11.474c-11.502,0.015-21.732,0.244-30.686,0.691
		c-8.396,0.419-17.012,1.13-25.846,2.131l-1.938-2.289c0.96-18.214,1.006-36.054,0.134-53.521
		c-1.193-23.91-3.333-38.646-6.415-44.203c-4.091-7.006-10.987-10.267-20.689-9.782c-5.783,0.289-10.845,1.903-15.188,4.837
		c-4.343,2.938-7.284,6.298-8.825,10.078c-1.542,3.782-2.058,10.771-1.549,20.965l2.711,43.053
		c0.577,9.726,1.335,15.502,2.267,17.329c0.514,0.913,1.293,1.577,2.346,1.994c2.102,0.927,8.207,1.421,18.31,1.477l0.572,11.474
		c-10.757-0.023-22.01,0.258-33.764,0.845C1337.061,909.206,1322.15,910.231,1309.305,911.433"/>
</g>
<polygon points="2039.178,628.691 2039.488,1105.55 1836.418,1105.256 1836.108,628.398 "/>
<g>
	<defs>
		<rect id="SVGID_15_" width="2200" height="1200"/>
	</defs>
	<clipPath id="SVGID_16_">
		<use xlink:href="#SVGID_15_"  overflow="visible"/>
	</clipPath>
	<path clip-path="url(#SVGID_16_)" fill="#FFFFFF" d="M1993.962,1066.211l-3.528,0.009c-1.709-2.848-3.266-5.021-4.672-6.519
		c-6.907-0.582-22.171-0.842-45.793-0.779c-17.115,0.046-29.225,0.329-36.33,0.848c-3.853,0.261-6.103,0.793-6.752,1.594
		c-0.998,1.104-1.639,4.91-1.922,11.415l-6.306,0.018l0.263-14.414l0.195-11.035c-0.009-3.353-0.108-8.307-0.302-14.863
		c-0.191-6.354-0.292-10.908-0.3-13.661c-0.028-11.109,1.807-19.072,5.504-23.886c3.697-4.814,8.758-7.229,15.182-7.247
		c6.625-0.018,12.034,2.342,16.229,7.078c4.196,4.737,7.201,11.424,9.017,20.063l0.601-0.003c0.879-8.896,2.214-15.147,4.009-18.752
		c1.795-3.603,4.595-6.509,8.396-8.718s8.134-3.32,12.994-3.333c5.963-0.016,11.604,1.784,16.926,5.397
		c5.322,3.615,9.395,8.409,12.216,14.381c2.821,5.974,4.245,14.391,4.274,25.249c0.006,2.152-0.074,5.38-0.237,9.684
		c-0.166,4.006-0.243,7.282-0.235,9.835C1993.396,1051.424,1993.587,1057.305,1993.962,1066.211 M1931.955,1037.549l-0.011-3.903
		c-0.022-8.456-1.563-14.396-4.626-17.817c-3.061-3.417-7.846-5.12-14.352-5.103c-5.705,0.015-9.906,1.415-12.6,4.199
		c-2.695,2.785-4.034,7.356-4.018,13.711c0.006,2.354,0.215,5.229,0.623,8.631c15.365,0.26,24.773,0.385,28.227,0.375
		L1931.955,1037.549z M1985.327,1037.183c0.743-2.897,1.111-5.619,1.104-8.166c-0.019-7.087-2.07-12.523-6.16-16.307
		s-10.087-5.664-17.994-5.644c-5.153,0.014-9.368,0.887-12.642,2.618c-3.272,1.73-5.706,4.107-7.301,7.133
		c-1.593,3.024-2.382,7.332-2.367,12.922l0.094,7.563l1.953-0.006l19.442,0.099l19.667-0.202L1985.327,1037.183z"/>
	<path clip-path="url(#SVGID_16_)" fill="#FFFFFF" d="M1993.693,964.87l-4.054,0.011c-1.208-2.648-2.615-5.071-4.224-7.271
		c-7.81-0.979-24.224-1.437-49.248-1.37c-17.064,0.045-28.374,0.251-33.929,0.615c-2.951,0.158-4.813,0.677-5.588,1.554
		c-0.772,0.878-1.426,4.596-1.96,11.152l-6.307,0.017c0.42-11.801,0.62-21.125,0.603-27.975l-0.785-41.323
		c-0.012-4.35,0.156-8.274,0.5-11.775l0.832-0.527c5.511,1.087,12.839,1.868,21.987,2.344l0.016,5.93
		c-7.305,0.271-11.208,0.568-11.708,0.895c-0.498,0.329-0.972,1.467-1.417,3.42c-0.89,4.157-1.322,10.513-1.301,19.07
		c0.011,4.203,0.2,9.108,0.564,14.712c15.466,0.609,27.777,0.952,36.936,1.027c0.337-5.354,0.498-10.385,0.485-15.09
		c-0.018-6.954-0.255-11.134-0.708-12.534c-0.303-0.85-1.029-1.448-2.182-1.796c-0.902-0.298-4.056-0.639-9.462-1.025l-0.017-6.455
		c8.478,0.229,13.995,0.337,16.553,0.33l16.927-0.42l0.018,6.456c-6.591,0.368-10.39,0.829-11.396,1.381
		c-0.602,0.303-1.029,0.979-1.276,2.03c-0.548,2.505-0.81,8.136-0.787,16.893c0.008,2.753,0.192,5.98,0.552,9.683
		c2.645,0.094,5.336,0.136,8.079,0.128c14.259-0.037,25.229-0.316,32.905-0.838l0.186-14.893c-0.023-8.473-0.493-16.22-1.412-23.238
		c-4.63-1.237-9.888-2.425-15.775-3.562l-0.015-6.23c8.915,1.129,17.474,1.782,25.679,1.959c0.36,4.554,0.548,8.932,0.56,13.136
		c0.007,2.753-0.066,8.182-0.22,16.29c-0.156,7.558-0.225,14.515-0.207,20.869C1993.119,946.807,1993.317,955.613,1993.693,964.87"
		/>
	<path clip-path="url(#SVGID_16_)" fill="#FFFFFF" d="M1993.572,850.576l-6.306,0.017c-0.008-2.853-0.265-5.828-0.772-8.932
		c-0.254-1.449-0.669-2.475-1.247-3.074c-0.575-0.599-1.639-1.047-3.189-1.343c-2.152-0.343-10.054-0.622-23.705-0.838
		c-9.699-0.124-19.601-0.173-29.703-0.146c-19.85,0.053-29.962,0.144-30.337,0.27c-0.375,0.127-0.559,1.896-0.551,5.307
		c0.02,6.973,0.236,12.967,0.649,17.982c0.26,2.909,0.514,4.553,0.764,4.928c0.253,0.376,0.69,0.664,1.316,0.863
		c0.627,0.198,5.019,0.613,13.178,1.243l0.017,6.455c-9.586-0.074-17.842,0.197-24.768,0.816l-0.605-0.824
		c0.709-15.766,1.044-31.104,1.005-46.019c-0.04-14.863-0.459-31.501-1.259-49.917l1.201-0.828
		c6.879,0.933,14.938,1.587,24.175,1.962l0.017,6.231c-8.435,0.473-13.007,0.935-13.713,1.387c-0.555,0.353-0.932,1.155-1.131,2.405
		c-0.646,4.007-0.954,11.965-0.923,23.874c0.003,1.002,0.155,1.603,0.456,1.801c0.353,0.199,1.68,0.296,3.982,0.289l50.489,0.316
		c14.625-0.038,23.603-0.188,26.934-0.447c3.33-0.261,5.343-0.869,6.043-1.828c0.449-0.655,0.964-4.605,1.545-11.854l6.306-0.017
		c-0.331,7.369-0.484,15.189-0.463,23.458C1993.006,834.99,1993.203,843.812,1993.572,850.576"/>
	<path clip-path="url(#SVGID_16_)" fill="#FFFFFF" d="M1985.983,785.062c-0.262-4.702-0.744-7.604-1.449-8.705
		c-0.501-0.75-2.407-1.918-5.715-3.513c-6.513-3.034-15.557-6.913-27.13-11.638l-65.153-26.401l-0.029-11.035l80.532-34.144
		c10.161-4.43,15.728-7.16,16.699-8.189c0.969-1.027,1.619-4.194,1.945-9.501l6.831-0.019c-0.329,8.155-0.483,15.859-0.464,23.113
		c0.022,8.653,0.219,16.882,0.591,24.686l-6.831,0.019c-0.26-5.953-0.6-9.392-1.017-10.315c-0.419-0.924-1.164-1.386-2.241-1.383
		c-0.93,0.003-4.103,1.062-9.524,3.176l-12.525,4.986c-0.134,6.214-0.19,13.154-0.171,20.82c0.019,6.664,0.11,12.728,0.274,18.188
		l8.44,3.277c2.302,0.895,5.726,1.984,10.276,3.272c1.027,0.297,1.957,0.444,2.786,0.442c1.126-0.003,1.919-0.492,2.38-1.468
		c0.463-0.977,0.93-4.493,1.401-10.546l6.831-0.019c-0.338,4.904-0.496,11.006-0.477,18.305c0.019,6.949,0.208,12.473,0.569,16.571
		L1985.983,785.062z M1913.018,736.004l38.646,15.743c0.239-4.606,0.35-9.689,0.334-15.247c-0.015-5.808-0.152-11.364-0.418-16.672
		L1913.018,736.004z"/>
</g>
</svg>
