<?xml version="1.0" encoding="utf-8"?>
<!-- Generator: Adobe Illustrator 16.0.0, SVG Export Plug-In . SVG Version: 6.00 Build 0)  -->
<!DOCTYPE svg PUBLIC "-//W3C//DTD SVG 1.1//EN" "http://www.w3.org/Graphics/SVG/1.1/DTD/svg11.dtd">
<svg version="1.1" id="Layer_1" xmlns="http://www.w3.org/2000/svg" xmlns:xlink="http://www.w3.org/1999/xlink" x="0px" y="0px"
	 width="2200px" height="1200px" viewBox="0 0 2200 1200" enable-background="new 0 0 2200 1200" xml:space="preserve">
<g>
	<defs>
		<rect id="SVGID_1_" width="2200" height="1200"/>
	</defs>
	<clipPath id="SVGID_2_">
		<use xlink:href="#SVGID_1_"  overflow="visible"/>
	</clipPath>
</g>
<g>
	<defs>
		<rect id="SVGID_3_" width="2200" height="1200"/>
	</defs>
	<clipPath id="SVGID_4_">
		<use xlink:href="#SVGID_3_"  overflow="visible"/>
	</clipPath>
</g>
<g>
	<path d="M218.321,512.537l68.02-146.253c0.652-1.304,2.173-2.39,3.694-2.39h2.173c1.521,0,3.042,1.086,3.694,2.39l68.02,146.253
		c1.304,2.825-0.435,5.65-3.694,5.65h-24.122c-3.912,0-5.65-1.304-7.606-5.433l-7.823-17.168h-59.11l-7.823,17.386
		c-1.086,2.607-3.477,5.215-7.823,5.215h-23.905C218.756,518.187,217.017,515.362,218.321,512.537z M307.638,466.031l-16.516-35.857
		h-0.217l-16.299,35.857H307.638z"/>
	<path d="M379.785,370.195c0-2.173,1.739-4.129,4.129-4.129h64.977c26.078,0,47.375,21.08,47.375,46.94
		c0,19.993-13.256,36.074-32.163,43.68l29.772,55.198c1.521,2.825,0,6.302-3.694,6.302h-28.903c-1.739,0-3.042-1.086-3.477-1.956
		l-28.903-57.588h-14.995v55.416c0,2.173-1.956,4.129-4.129,4.129h-25.86c-2.391,0-4.129-1.956-4.129-4.129V370.195z
		 M446.066,431.043c8.91,0,16.516-8.258,16.516-17.385s-7.606-16.516-16.516-16.516h-32.163v33.901H446.066z"/>
	<path d="M542.989,398.011h-31.076c-2.391,0-4.129-1.956-4.129-4.129v-23.688c0-2.173,1.738-4.129,4.129-4.129h96.488
		c2.391,0,4.129,1.956,4.129,4.129v23.688c0,2.173-1.738,4.129-4.129,4.129h-31.076v116.047c0,2.173-1.956,4.129-4.129,4.129
		h-26.078c-2.173,0-4.129-1.956-4.129-4.129V398.011z"/>
	<path d="M632.305,370.195c0-2.173,1.956-4.129,4.129-4.129h25.86c2.391,0,4.129,1.956,4.129,4.129v54.764h62.152v-54.764
		c0-2.173,1.739-4.129,4.129-4.129h25.861c2.173,0,4.129,1.956,4.129,4.129v143.863c0,2.173-1.956,4.129-4.129,4.129h-25.861
		c-2.39,0-4.129-1.956-4.129-4.129v-57.154h-62.152v57.154c0,2.173-1.738,4.129-4.129,4.129h-25.86
		c-2.173,0-4.129-1.956-4.129-4.129V370.195z"/>
	<path d="M795.943,370.195c0-2.173,1.956-4.129,4.129-4.129h26.73c2.39,0,4.129,1.956,4.129,4.129v88.013
		c0,15.212,11.3,27.382,26.729,27.382c15.647,0,27.165-12.17,27.165-27.382v-88.013c0-2.173,1.739-4.129,4.129-4.129h26.729
		c2.173,0,4.129,1.956,4.129,4.129v89.751c0,33.032-27.816,60.414-62.152,60.414c-34.118,0-61.717-27.382-61.717-60.414V370.195z"/>
	<path d="M952.844,370.195c0-2.173,1.739-4.129,4.129-4.129h64.977c26.078,0,47.375,21.08,47.375,46.94
		c0,19.993-13.256,36.074-32.163,43.68l29.772,55.198c1.521,2.825,0,6.302-3.694,6.302h-28.903c-1.739,0-3.042-1.086-3.477-1.956
		l-28.903-57.588h-14.995v55.416c0,2.173-1.956,4.129-4.129,4.129h-25.86c-2.391,0-4.129-1.956-4.129-4.129V370.195z
		 M1019.125,431.043c8.91,0,16.516-8.258,16.516-17.385s-7.606-16.516-16.516-16.516h-32.163v33.901H1019.125z"/>
</g>
<g>
	<path d="M227.884,693.39l10.214-18.038c1.738-2.824,5.868-2.39,7.389-1.304c0.869,0.435,16.516,11.952,30.859,11.952
		c8.692,0,14.995-5.433,14.995-13.038c0-9.128-7.606-16.082-22.383-21.949c-18.689-7.389-42.159-21.949-42.159-48.026
		c0-21.515,16.733-43.246,50.2-43.246c22.601,0,39.986,11.518,46.505,16.298c2.608,1.521,2.173,5.433,1.304,6.954l-11.083,16.733
		c-1.521,2.39-5.433,4.346-7.389,2.825c-1.956-1.086-17.82-13.039-31.076-13.039c-7.823,0-13.69,5.216-13.69,11.083
		c0,8.041,6.519,14.125,23.687,21.08c16.951,6.737,43.898,19.993,43.898,49.548c0,22.384-19.341,44.984-51.287,44.984
		c-28.251,0-43.897-11.734-48.896-16.733C226.797,697.301,226.145,696.432,227.884,693.39z"/>
	<path d="M421.076,559.74c21.731,0,37.813,6.737,52.59,20.21c1.956,1.739,1.956,4.347,0.217,6.085l-16.951,17.603
		c-1.521,1.521-3.912,1.521-5.433,0c-8.041-7.171-18.689-11.083-29.337-11.083c-24.557,0-42.594,20.428-42.594,44.767
		c0,24.122,18.254,44.115,42.811,44.115c10.214,0,21.297-3.694,29.12-10.431c1.521-1.304,4.347-1.304,5.65,0.217l16.951,18.037
		c1.521,1.521,1.304,4.347-0.217,5.868c-14.777,14.343-33.467,21.079-52.808,21.079c-43.463,0-78.451-34.553-78.451-78.016
		C342.625,594.728,377.612,559.74,421.076,559.74z"/>
	<path d="M498.004,566.042c0-2.173,1.956-4.129,4.129-4.129h25.86c2.391,0,4.129,1.956,4.129,4.129v54.764h62.152v-54.764
		c0-2.173,1.739-4.129,4.129-4.129h25.861c2.173,0,4.129,1.956,4.129,4.129v143.863c0,2.173-1.956,4.129-4.129,4.129h-25.861
		c-2.39,0-4.129-1.956-4.129-4.129v-57.154h-62.152v57.154c0,2.173-1.738,4.129-4.129,4.129h-25.86
		c-2.173,0-4.129-1.956-4.129-4.129V566.042z"/>
	<path d="M663.597,563.652c0-2.173,1.956-3.912,4.129-3.912h5.433l86.709,83.449h0.217v-77.147c0-2.173,1.739-4.129,4.129-4.129
		h26.078c2.173,0,4.129,1.956,4.129,4.129v146.254c0,2.173-1.956,3.911-4.129,3.911h-3.477c-0.652,0-2.391-0.651-2.825-1.086
		l-85.84-86.274h-0.217v81.059c0,2.173-1.738,4.129-4.129,4.129h-25.86c-2.173,0-4.129-1.956-4.129-4.129L663.597,563.652z"/>
	<path d="M829.843,566.042c0-2.173,1.956-4.129,4.129-4.129h26.078c2.173,0,4.129,1.956,4.129,4.129v143.863
		c0,2.173-1.956,4.129-4.129,4.129h-26.078c-2.173,0-4.129-1.956-4.129-4.129V566.042z"/>
	<path d="M919.157,593.858h-31.076c-2.391,0-4.129-1.956-4.129-4.129v-23.688c0-2.173,1.738-4.129,4.129-4.129h96.488
		c2.39,0,4.129,1.956,4.129,4.129v23.688c0,2.173-1.739,4.129-4.129,4.129h-31.076v116.047c0,2.173-1.956,4.129-4.129,4.129h-26.078
		c-2.173,0-4.129-1.956-4.129-4.129V593.858z"/>
	<path d="M994.783,705.993l57.806-111.7v-0.435h-47.375c-2.173,0-4.129-1.956-4.129-4.129v-23.688c0-2.173,1.956-4.129,4.129-4.129
		h92.359c2.173,0,4.129,1.956,4.129,4.129v2.825l-55.85,112.787v0.435h47.375c2.39,0,4.129,1.956,4.129,4.129v23.688
		c0,2.173-1.739,4.129-4.129,4.129h-94.315c-2.173,0-4.129-1.956-4.129-4.129V705.993z"/>
	<path d="M1124.303,566.042c0-2.173,1.738-4.129,4.129-4.129h25.86c2.173,0,4.129,1.956,4.129,4.129v116.047h51.722
		c2.39,0,4.129,1.956,4.129,4.129v23.688c0,2.173-1.739,4.129-4.129,4.129h-81.711c-2.391,0-4.129-1.956-4.129-4.129V566.042z"/>
	<path d="M1233.393,566.042c0-2.173,1.738-4.129,4.129-4.129h89.969c2.391,0,4.129,1.956,4.129,4.129v23.688
		c0,2.173-1.738,4.129-4.129,4.129h-60.196v26.947h49.548c2.173,0,4.129,1.956,4.129,4.129v23.688c0,2.391-1.956,4.129-4.129,4.129
		h-49.548v29.338h60.196c2.391,0,4.129,1.956,4.129,4.129v23.688c0,2.173-1.738,4.129-4.129,4.129h-89.969
		c-2.391,0-4.129-1.956-4.129-4.129V566.042z"/>
	<path d="M1358.567,566.042c0-2.173,1.738-4.129,4.129-4.129h64.978c26.077,0,47.374,21.08,47.374,46.94
		c0,19.993-13.256,36.074-32.162,43.681l29.772,55.198c1.521,2.824,0,6.302-3.694,6.302h-28.903c-1.738,0-3.043-1.087-3.478-1.956
		l-28.902-57.589h-14.995v55.416c0,2.173-1.956,4.129-4.129,4.129h-25.86c-2.391,0-4.129-1.956-4.129-4.129V566.042z
		 M1424.849,626.891c8.909,0,16.516-8.258,16.516-17.386c0-9.127-7.606-16.516-16.516-16.516h-32.163v33.901H1424.849z"/>
</g>
<path fill="#FFFFFF" d="M1781.965,130.841l-1.115-0.558L1781.965,130.841z"/>
<path fill="none" stroke="#231F20" stroke-miterlimit="10" d="M1780.85,130.283l1.115,0.558L1780.85,130.283z"/>
<g>
	<defs>
		<rect id="SVGID_5_" width="2200" height="1200"/>
	</defs>
	<clipPath id="SVGID_6_">
		<use xlink:href="#SVGID_5_"  overflow="visible"/>
	</clipPath>
	<path clip-path="url(#SVGID_6_)" fill="#231F20" d="M1754.649,132.513c0.187,0.372,0.372,0.743,0.558,1.115
		c0.186-0.372,0.372-0.743,0.558-1.115H1754.649z"/>
	<path clip-path="url(#SVGID_6_)" fill="none" stroke="#FFFFFF" stroke-miterlimit="10" d="M1754.649,132.513
		c0.187,0.372,0.372,0.743,0.558,1.115c0.186-0.372,0.372-0.743,0.558-1.115H1754.649z"/>
	<path clip-path="url(#SVGID_6_)" fill="#231F20" d="M1776.391,134.185c1.437,1.591,0.719,0.877,2.229,0H1776.391z"/>
	<path clip-path="url(#SVGID_6_)" fill="none" stroke="#FFFFFF" stroke-miterlimit="10" d="M1776.391,134.185
		c1.437,1.591,0.719,0.877,2.229,0H1776.391z"/>
	<path clip-path="url(#SVGID_6_)" fill="#231F20" d="M1734.581,137.53l-0.557,1.115h1.114
		C1734.953,138.273,1734.768,137.902,1734.581,137.53"/>
	<path clip-path="url(#SVGID_6_)" fill="none" stroke="#FFFFFF" stroke-miterlimit="10" d="M1734.581,137.53l-0.557,1.115h1.114
		C1734.953,138.273,1734.768,137.902,1734.581,137.53z"/>
	<path clip-path="url(#SVGID_6_)" fill="#231F20" d="M1749.075,140.875c0.776,1.072,0.057,0.333,1.115,1.115
		C1749.818,141.618,1749.447,141.247,1749.075,140.875"/>
	<path clip-path="url(#SVGID_6_)" fill="none" stroke="#FFFFFF" stroke-miterlimit="10" d="M1749.075,140.875
		c0.776,1.072,0.057,0.333,1.115,1.115C1749.818,141.618,1749.447,141.247,1749.075,140.875z"/>
	<path clip-path="url(#SVGID_6_)" fill="#231F20" d="M1793.671,141.432v1.115V141.432z"/>
	<path clip-path="url(#SVGID_6_)" fill="none" stroke="#FFFFFF" stroke-miterlimit="10" d="M1793.671,141.432v1.115V141.432z"/>
	<path clip-path="url(#SVGID_6_)" fill="#231F20" d="M1813.739,159.271v1.115V159.271z"/>
	<path clip-path="url(#SVGID_6_)" fill="none" stroke="#FFFFFF" stroke-miterlimit="10" d="M1813.739,159.271v1.115V159.271z"/>
	<path clip-path="url(#SVGID_6_)" fill="#231F20" d="M1808.723,161.5v1.115V161.5z"/>
	<path clip-path="url(#SVGID_6_)" fill="none" stroke="#FFFFFF" stroke-miterlimit="10" d="M1808.723,161.5v1.115V161.5z"/>
	<path clip-path="url(#SVGID_6_)" fill="#FFFFFF" d="M1721.938,153.437v2.229h1.673c-0.187-0.743-0.372-1.486-0.558-2.229H1721.938z
		"/>
	<path clip-path="url(#SVGID_6_)" fill="#231F20" d="M1715.249,171.832v1.115C1715.794,171.974,1715.758,172.824,1715.249,171.832"
		/>
	<path clip-path="url(#SVGID_6_)" fill="none" stroke="#FFFFFF" stroke-miterlimit="10" d="M1715.249,171.832v1.115
		C1715.794,171.974,1715.758,172.824,1715.249,171.832z"/>
	<path clip-path="url(#SVGID_6_)" fill="#231F20" d="M1828.412,184.096v1.115C1828.956,184.238,1828.921,185.088,1828.412,184.096"
		/>
	<path clip-path="url(#SVGID_6_)" fill="none" stroke="#FFFFFF" stroke-miterlimit="10" d="M1828.412,184.096v1.115
		C1828.956,184.238,1828.921,185.088,1828.412,184.096z"/>
	<path clip-path="url(#SVGID_6_)" fill="#231F20" d="M1714.691,193.573c0.187,0.372,0.372,0.744,0.558,1.115
		c0.187-0.371,0.372-0.743,0.558-1.115H1714.691z"/>
	<path clip-path="url(#SVGID_6_)" fill="none" stroke="#FFFFFF" stroke-miterlimit="10" d="M1714.691,193.573
		c0.187,0.372,0.372,0.744,0.558,1.115c0.187-0.371,0.372-0.743,0.558-1.115H1714.691z"/>
	<path clip-path="url(#SVGID_6_)" fill="#231F20" d="M1711.904,198.59c0.775,1.072,0.057,0.334,1.115,1.115
		C1712.647,199.333,1712.276,198.962,1711.904,198.59"/>
	<path clip-path="url(#SVGID_6_)" fill="none" stroke="#FFFFFF" stroke-miterlimit="10" d="M1711.904,198.59
		c0.775,1.072,0.057,0.334,1.115,1.115C1712.647,199.333,1712.276,198.962,1711.904,198.59z"/>
	<path clip-path="url(#SVGID_6_)" fill="#231F20" d="M1707.445,210.854l0.557,1.115c0.187-0.372,0.372-0.743,0.558-1.115H1707.445z"
		/>
	<path clip-path="url(#SVGID_6_)" fill="none" stroke="#FFFFFF" stroke-miterlimit="10" d="M1707.445,210.854l0.557,1.115
		c0.187-0.372,0.372-0.743,0.558-1.115H1707.445z"/>
	<path clip-path="url(#SVGID_6_)" fill="#231F20" d="M1806.114,210.854l1.114,0.557L1806.114,210.854z"/>
	<path clip-path="url(#SVGID_6_)" fill="none" stroke="#FFFFFF" stroke-miterlimit="10" d="M1806.114,210.854l1.114,0.557
		L1806.114,210.854z"/>
	<path clip-path="url(#SVGID_6_)" fill="#231F20" d="M1818.378,227.02l1.114,0.557L1818.378,227.02z"/>
	<path clip-path="url(#SVGID_6_)" fill="none" stroke="#FFFFFF" stroke-miterlimit="10" d="M1818.378,227.02l1.114,0.557
		L1818.378,227.02z"/>
	<path clip-path="url(#SVGID_6_)" fill="#FFFFFF" d="M1713.577,228.135c-0.187,1.486-0.372,2.973-0.558,4.459
		c1.504-0.891,0.768-0.188,1.672-1.672C1714.693,228.829,1715.906,229.462,1713.577,228.135"/>
	<path clip-path="url(#SVGID_6_)" fill="#231F20" d="M1716.922,243.744c-0.186,0.372-0.372,0.743-0.559,1.115
		c1.686-0.702,0.668,0.01,1.673-1.115H1716.922z"/>
	<path clip-path="url(#SVGID_6_)" fill="none" stroke="#FFFFFF" stroke-miterlimit="10" d="M1716.922,243.744
		c-0.186,0.372-0.372,0.743-0.559,1.115c1.686-0.702,0.668,0.01,1.673-1.115H1716.922z"/>
	<path clip-path="url(#SVGID_6_)" fill="#231F20" d="M1718.594,244.301l1.115,0.558L1718.594,244.301z"/>
	<path clip-path="url(#SVGID_6_)" fill="none" stroke="#FFFFFF" stroke-miterlimit="10" d="M1718.594,244.301l1.115,0.558
		L1718.594,244.301z"/>
	<path clip-path="url(#SVGID_6_)" fill="#231F20" d="M1736.99,248.203c0.371,0.186,0.743,0.372,1.114,0.558
		C1737.733,248.575,1737.361,248.389,1736.99,248.203"/>
	<path clip-path="url(#SVGID_6_)" fill="none" stroke="#FFFFFF" stroke-miterlimit="10" d="M1736.99,248.203
		c0.371,0.186,0.743,0.372,1.114,0.558C1737.733,248.575,1737.361,248.389,1736.99,248.203z"/>
	<path clip-path="url(#SVGID_6_)" fill="#231F20" d="M1852.382,248.761v1.115V248.761z"/>
	<path clip-path="url(#SVGID_6_)" fill="none" stroke="#FFFFFF" stroke-miterlimit="10" d="M1852.382,248.761v1.115V248.761z"/>
	<path clip-path="url(#SVGID_6_)" fill="#231F20" d="M1856.284,249.875c0.776,1.072,0.057,0.333,1.115,1.115
		C1857.027,250.619,1856.656,250.248,1856.284,249.875"/>
	<path clip-path="url(#SVGID_6_)" fill="none" stroke="#FFFFFF" stroke-miterlimit="10" d="M1856.284,249.875
		c0.776,1.072,0.057,0.333,1.115,1.115C1857.027,250.619,1856.656,250.248,1856.284,249.875z"/>
	<path clip-path="url(#SVGID_6_)" fill="#231F20" d="M1741.449,251.548v1.115V251.548z"/>
	<path clip-path="url(#SVGID_6_)" fill="none" stroke="#FFFFFF" stroke-miterlimit="10" d="M1741.449,251.548v1.115V251.548z"/>
	<path clip-path="url(#SVGID_6_)" fill="#FFFFFF" d="M1707.445,261.582c0.186,1.486,0.371,2.973,0.557,4.459
		c0.372,0.187,0.744,0.372,1.115,0.558C1709.135,263.505,1709.137,262.885,1707.445,261.582"/>
	<path clip-path="url(#SVGID_6_)" fill="#231F20" d="M1777.684,262.697c0.941,1.382,0.335,0.652,1.673,0H1777.684z"/>
	<path clip-path="url(#SVGID_6_)" fill="none" stroke="#FFFFFF" stroke-miterlimit="10" d="M1777.684,262.697
		c0.941,1.382,0.335,0.652,1.673,0H1777.684z"/>
	<path clip-path="url(#SVGID_6_)" fill="#231F20" d="M1747.581,271.616v1.115V271.616z"/>
	<path clip-path="url(#SVGID_6_)" fill="none" stroke="#FFFFFF" stroke-miterlimit="10" d="M1747.581,271.616v1.115V271.616z"/>
	<path clip-path="url(#SVGID_6_)" fill="#231F20" d="M1875.795,279.978c0.187,0.372,0.372,0.744,0.558,1.115
		C1876.116,280.576,1876.8,280.715,1875.795,279.978"/>
	<path clip-path="url(#SVGID_6_)" fill="none" stroke="#FFFFFF" stroke-miterlimit="10" d="M1875.795,279.978
		c0.187,0.372,0.372,0.744,0.558,1.115C1876.116,280.576,1876.8,280.715,1875.795,279.978z"/>
	<path clip-path="url(#SVGID_6_)" fill="#FFFFFF" d="M1891.961,302.276c-1.3,0.743-2.602,1.486-3.901,2.23
		c0.186,0.929,0.371,1.858,0.557,2.787h2.788c0.863-2.35,1.346-1.866,2.787-3.345h-1.115
		C1892.705,303.391,1892.333,302.833,1891.961,302.276"/>
	<path clip-path="url(#SVGID_6_)" fill="#FFFFFF" d="M1730.858,308.965c-0.187,0.743-0.372,1.486-0.558,2.229
		c1.073-0.845,0.986-0.998,1.672-2.229H1730.858z"/>
	<path clip-path="url(#SVGID_6_)" fill="#231F20" d="M1701.87,375.859c1.004,1.138,0.009,0.394,1.673,1.115L1701.87,375.859z"/>
	<path clip-path="url(#SVGID_6_)" fill="none" stroke="#FFFFFF" stroke-miterlimit="10" d="M1701.87,375.859
		c1.004,1.138,0.009,0.394,1.673,1.115L1701.87,375.859z"/>
	<path clip-path="url(#SVGID_6_)" fill="#231F20" d="M1704.101,393.698c-0.187,0.372-0.372,0.743-0.558,1.115h1.115
		C1704.472,394.441,1704.286,394.07,1704.101,393.698"/>
	<path clip-path="url(#SVGID_6_)" fill="none" stroke="#FFFFFF" stroke-miterlimit="10" d="M1704.101,393.698
		c-0.187,0.372-0.372,0.743-0.558,1.115h1.115C1704.472,394.441,1704.286,394.07,1704.101,393.698z"/>
	<path clip-path="url(#SVGID_6_)" fill="#231F20" d="M1682.359,422.128c-0.186,0.372-0.371,0.743-0.559,1.115h1.116
		C1682.731,422.871,1682.546,422.5,1682.359,422.128"/>
	<path clip-path="url(#SVGID_6_)" fill="none" stroke="#FFFFFF" stroke-miterlimit="10" d="M1682.359,422.128
		c-0.186,0.372-0.371,0.743-0.559,1.115h1.116C1682.731,422.871,1682.546,422.5,1682.359,422.128z"/>
	<path clip-path="url(#SVGID_6_)" fill="#231F20" d="M1524.601,541.422c0.187,0.372,0.372,0.743,0.558,1.115
		c0.187-0.372,0.372-0.743,0.558-1.115H1524.601z"/>
	<path clip-path="url(#SVGID_6_)" fill="none" stroke="#FFFFFF" stroke-miterlimit="10" d="M1524.601,541.422
		c0.187,0.372,0.372,0.743,0.558,1.115c0.187-0.372,0.372-0.743,0.558-1.115H1524.601z"/>
	<path clip-path="url(#SVGID_6_)" fill="#231F20" d="M1536.865,544.767c0.371,0.186,0.743,0.372,1.114,0.558
		C1537.608,545.139,1537.236,544.953,1536.865,544.767"/>
	<path clip-path="url(#SVGID_6_)" fill="none" stroke="#FFFFFF" stroke-miterlimit="10" d="M1536.865,544.767
		c0.371,0.186,0.743,0.372,1.114,0.558C1537.608,545.139,1537.236,544.953,1536.865,544.767z"/>
	<path clip-path="url(#SVGID_6_)" fill="#231F20" d="M1539.652,547.554c-0.186,0.372-0.372,0.743-0.559,1.115
		C1540.13,547.974,1539.399,548.171,1539.652,547.554"/>
	<path clip-path="url(#SVGID_6_)" fill="none" stroke="#FFFFFF" stroke-miterlimit="10" d="M1539.652,547.554
		c-0.186,0.372-0.372,0.743-0.559,1.115C1540.13,547.974,1539.399,548.171,1539.652,547.554z"/>
	<path clip-path="url(#SVGID_6_)" fill="#231F20" d="M1522.371,557.588v1.115C1522.916,557.73,1522.88,558.581,1522.371,557.588"/>
	<path clip-path="url(#SVGID_6_)" fill="none" stroke="#FFFFFF" stroke-miterlimit="10" d="M1522.371,557.588v1.115
		C1522.916,557.73,1522.88,558.581,1522.371,557.588z"/>
	<path clip-path="url(#SVGID_6_)" fill="#231F20" d="M1533.521,561.491l1.114,0.557L1533.521,561.491z"/>
	<path clip-path="url(#SVGID_6_)" fill="none" stroke="#FFFFFF" stroke-miterlimit="10" d="M1533.521,561.491l1.114,0.557
		L1533.521,561.491z"/>
	<path clip-path="url(#SVGID_6_)" fill="#231F20" d="M1536.308,587.691c-0.187,0.372-0.372,0.743-0.558,1.115
		C1536.785,588.111,1536.055,588.308,1536.308,587.691"/>
	<path clip-path="url(#SVGID_6_)" fill="none" stroke="#FFFFFF" stroke-miterlimit="10" d="M1536.308,587.691
		c-0.187,0.372-0.372,0.743-0.558,1.115C1536.785,588.111,1536.055,588.308,1536.308,587.691z"/>
	<path clip-path="url(#SVGID_6_)" fill="#231F20" d="M1545.227,599.955c0.186,0.372,0.372,0.744,0.558,1.115
		c0.186-0.371,0.372-0.743,0.558-1.115H1545.227z"/>
	<path clip-path="url(#SVGID_6_)" fill="none" stroke="#FFFFFF" stroke-miterlimit="10" d="M1545.227,599.955
		c0.186,0.372,0.372,0.744,0.558,1.115c0.186-0.371,0.372-0.743,0.558-1.115H1545.227z"/>
	<path clip-path="url(#SVGID_6_)" fill="#231F20" d="M1554.146,659.602c0.776,1.072,0.057,0.334,1.115,1.115L1554.146,659.602z"/>
	<path clip-path="url(#SVGID_6_)" fill="none" stroke="#FFFFFF" stroke-miterlimit="10" d="M1554.146,659.602
		c0.776,1.072,0.057,0.334,1.115,1.115L1554.146,659.602z"/>
	<path clip-path="url(#SVGID_6_)" fill="#231F20" d="M1557.49,704.198v1.672c0.187-0.557,0.372-1.114,0.558-1.672H1557.49z"/>
	<path clip-path="url(#SVGID_6_)" fill="none" stroke="#FFFFFF" stroke-miterlimit="10" d="M1557.49,704.198v1.672
		c0.187-0.557,0.372-1.114,0.558-1.672H1557.49z"/>
	<path clip-path="url(#SVGID_6_)" fill="#231F20" d="M1561.95,733.743c0.186,0.558,0.372,1.115,0.558,1.672
		c1.139-1.003,0.394-0.008,1.115-1.672H1561.95z"/>
	<path clip-path="url(#SVGID_6_)" fill="none" stroke="#FFFFFF" stroke-miterlimit="10" d="M1561.95,733.743
		c0.186,0.558,0.372,1.115,0.558,1.672c1.139-1.003,0.394-0.008,1.115-1.672H1561.95z"/>
	<path clip-path="url(#SVGID_6_)" fill="#231F20" d="M1555.261,743.22v1.115V743.22z"/>
	<path clip-path="url(#SVGID_6_)" fill="none" stroke="#FFFFFF" stroke-miterlimit="10" d="M1555.261,743.22v1.115V743.22z"/>
	<path clip-path="url(#SVGID_6_)" fill="#231F20" d="M1555.818,757.156v1.672h1.115
		C1556.562,758.271,1556.189,757.713,1555.818,757.156"/>
	<path clip-path="url(#SVGID_6_)" fill="none" stroke="#FFFFFF" stroke-miterlimit="10" d="M1555.818,757.156v1.672h1.115
		C1556.562,758.271,1556.189,757.713,1555.818,757.156z"/>
	<path clip-path="url(#SVGID_6_)" fill="#231F20" d="M1561.393,780.569c0.941,1.382,0.335,0.651,1.673,0H1561.393z"/>
	<path clip-path="url(#SVGID_6_)" fill="none" stroke="#FFFFFF" stroke-miterlimit="10" d="M1561.393,780.569
		c0.941,1.382,0.335,0.651,1.673,0H1561.393z"/>
	<path clip-path="url(#SVGID_6_)" fill="#231F20" d="M1548.014,781.684v1.115V781.684z"/>
	<path clip-path="url(#SVGID_6_)" fill="none" stroke="#FFFFFF" stroke-miterlimit="10" d="M1548.014,781.684v1.115V781.684z"/>
	<path clip-path="url(#SVGID_6_)" fill="#231F20" d="M1556.934,783.356c0.371,0.186,0.743,0.371,1.114,0.557
		C1557.677,783.728,1557.305,783.542,1556.934,783.356"/>
	<path clip-path="url(#SVGID_6_)" fill="none" stroke="#FFFFFF" stroke-miterlimit="10" d="M1556.934,783.356
		c0.371,0.186,0.743,0.371,1.114,0.557C1557.677,783.728,1557.305,783.542,1556.934,783.356z"/>
	<path clip-path="url(#SVGID_6_)" fill="#231F20" d="M1546.342,796.178c0.371,0.558,0.743,1.114,1.114,1.672
		C1546.755,796.165,1547.467,797.183,1546.342,796.178"/>
	<path clip-path="url(#SVGID_6_)" fill="none" stroke="#FFFFFF" stroke-miterlimit="10" d="M1546.342,796.178
		c0.371,0.558,0.743,1.114,1.114,1.672C1546.755,796.165,1547.467,797.183,1546.342,796.178z"/>
	<path clip-path="url(#SVGID_6_)" fill="#231F20" d="M1560.835,802.867c-0.187,0.371-0.371,0.743-0.557,1.114
		c0.557-0.371,1.114-0.743,1.672-1.114H1560.835z"/>
	<path clip-path="url(#SVGID_6_)" fill="none" stroke="#FFFFFF" stroke-miterlimit="10" d="M1560.835,802.867
		c-0.187,0.371-0.371,0.743-0.557,1.114c0.557-0.371,1.114-0.743,1.672-1.114H1560.835z"/>
	<path clip-path="url(#SVGID_6_)" fill="#231F20" d="M1558.605,803.981c0.372,0.372,0.743,0.744,1.115,1.115
		C1559.349,804.726,1558.978,804.354,1558.605,803.981"/>
	<path clip-path="url(#SVGID_6_)" fill="none" stroke="#FFFFFF" stroke-miterlimit="10" d="M1558.605,803.981
		c0.372,0.372,0.743,0.744,1.115,1.115C1559.349,804.726,1558.978,804.354,1558.605,803.981z"/>
	<path clip-path="url(#SVGID_6_)" fill="#231F20" d="M1561.393,804.539v1.115V804.539z"/>
	<path clip-path="url(#SVGID_6_)" fill="none" stroke="#FFFFFF" stroke-miterlimit="10" d="M1561.393,804.539v1.115V804.539z"/>
	<path clip-path="url(#SVGID_6_)" fill="#231F20" d="M1559.721,807.326c0.508,2.035-0.021,1.141,1.114,2.23
		C1560.464,808.813,1560.092,808.069,1559.721,807.326"/>
	<path clip-path="url(#SVGID_6_)" fill="none" stroke="#FFFFFF" stroke-miterlimit="10" d="M1559.721,807.326
		c0.508,2.035-0.021,1.141,1.114,2.23C1560.464,808.813,1560.092,808.069,1559.721,807.326z"/>
	<path clip-path="url(#SVGID_6_)" fill="#231F20" d="M1556.376,817.918c0.371,0.743,0.743,1.486,1.114,2.229
		C1557.119,819.404,1556.747,818.661,1556.376,817.918"/>
	<path clip-path="url(#SVGID_6_)" fill="none" stroke="#FFFFFF" stroke-miterlimit="10" d="M1556.376,817.918
		c0.371,0.743,0.743,1.486,1.114,2.229C1557.119,819.404,1556.747,818.661,1556.376,817.918z"/>
	<path clip-path="url(#SVGID_6_)" fill="#231F20" d="M1549.687,820.705c0.371,0.743,0.743,1.487,1.114,2.23l0.558-0.558v-0.558
		C1550.802,821.448,1550.244,821.077,1549.687,820.705"/>
	<path clip-path="url(#SVGID_6_)" fill="none" stroke="#FFFFFF" stroke-miterlimit="10" d="M1549.687,820.705
		c0.371,0.743,0.743,1.487,1.114,2.23l0.558-0.558v-0.558C1550.802,821.448,1550.244,821.077,1549.687,820.705z"/>
	<path clip-path="url(#SVGID_6_)" fill="#231F20" d="M1574.214,824.607c0.372,0.186,0.743,0.372,1.115,0.558
		C1574.957,824.979,1574.586,824.793,1574.214,824.607"/>
	<path clip-path="url(#SVGID_6_)" fill="none" stroke="#FFFFFF" stroke-miterlimit="10" d="M1574.214,824.607
		c0.372,0.186,0.743,0.372,1.115,0.558C1574.957,824.979,1574.586,824.793,1574.214,824.607z"/>
	<path clip-path="url(#SVGID_6_)" fill="#231F20" d="M1566.41,836.871c0.371,0.188,0.743,0.372,1.114,0.558
		C1567.153,837.243,1566.781,837.059,1566.41,836.871"/>
	<path clip-path="url(#SVGID_6_)" fill="none" stroke="#FFFFFF" stroke-miterlimit="10" d="M1566.41,836.871
		c0.371,0.188,0.743,0.372,1.114,0.558C1567.153,837.243,1566.781,837.059,1566.41,836.871z"/>
	<path clip-path="url(#SVGID_6_)" fill="#231F20" d="M1566.968,840.216c0.186,0.372,0.371,0.743,0.557,1.115
		C1567.288,840.813,1567.972,840.954,1566.968,840.216"/>
	<path clip-path="url(#SVGID_6_)" fill="none" stroke="#FFFFFF" stroke-miterlimit="10" d="M1566.968,840.216
		c0.186,0.372,0.371,0.743,0.557,1.115C1567.288,840.813,1567.972,840.954,1566.968,840.216z"/>
	<path clip-path="url(#SVGID_6_)" fill="#231F20" d="M1556.376,841.889c0.371,0.186,0.743,0.371,1.114,0.558
		C1557.119,842.26,1556.747,842.074,1556.376,841.889"/>
	<path clip-path="url(#SVGID_6_)" fill="none" stroke="#FFFFFF" stroke-miterlimit="10" d="M1556.376,841.889
		c0.371,0.186,0.743,0.371,1.114,0.558C1557.119,842.26,1556.747,842.074,1556.376,841.889z"/>
	<path clip-path="url(#SVGID_6_)" fill="#231F20" d="M1569.197,843.561c0.371,0.187,0.743,0.372,1.115,0.558
		C1569.94,843.933,1569.568,843.747,1569.197,843.561"/>
	<path clip-path="url(#SVGID_6_)" fill="none" stroke="#FFFFFF" stroke-miterlimit="10" d="M1569.197,843.561
		c0.371,0.187,0.743,0.372,1.115,0.558C1569.94,843.933,1569.568,843.747,1569.197,843.561z"/>
	<path clip-path="url(#SVGID_6_)" fill="#231F20" d="M1553.031,848.021v1.115V848.021z"/>
	<path clip-path="url(#SVGID_6_)" fill="none" stroke="#FFFFFF" stroke-miterlimit="10" d="M1553.031,848.021v1.115V848.021z"/>
	<path clip-path="url(#SVGID_6_)" fill="#231F20" d="M1559.721,858.055c0.371,0.186,0.743,0.371,1.114,0.558
		C1560.464,858.426,1560.092,858.24,1559.721,858.055"/>
	<path clip-path="url(#SVGID_6_)" fill="none" stroke="#FFFFFF" stroke-miterlimit="10" d="M1559.721,858.055
		c0.371,0.186,0.743,0.371,1.114,0.558C1560.464,858.426,1560.092,858.24,1559.721,858.055z"/>
	<path clip-path="url(#SVGID_6_)" fill="#231F20" d="M1556.934,863.071v1.115V863.071z"/>
	<path clip-path="url(#SVGID_6_)" fill="none" stroke="#FFFFFF" stroke-miterlimit="10" d="M1556.934,863.071v1.115V863.071z"/>
	<path clip-path="url(#SVGID_6_)" fill="#231F20" d="M1568.64,868.089c1.004,1.138,0.009,0.394,1.673,1.114
		C1569.309,868.066,1570.304,868.81,1568.64,868.089"/>
	<path clip-path="url(#SVGID_6_)" fill="none" stroke="#FFFFFF" stroke-miterlimit="10" d="M1568.64,868.089
		c1.004,1.138,0.009,0.394,1.673,1.114C1569.309,868.066,1570.304,868.81,1568.64,868.089z"/>
	<path clip-path="url(#SVGID_6_)" fill="#231F20" d="M1553.031,881.468v1.114C1553.575,881.609,1553.54,882.46,1553.031,881.468"/>
	<path clip-path="url(#SVGID_6_)" fill="none" stroke="#FFFFFF" stroke-miterlimit="10" d="M1553.031,881.468v1.114
		C1553.575,881.609,1553.54,882.46,1553.031,881.468z"/>
	<path clip-path="url(#SVGID_6_)" fill="#231F20" d="M1559.163,895.403c-0.187,0.372-0.372,0.744-0.558,1.115h1.673
		c-0.187-0.371-0.372-0.743-0.558-1.115H1559.163z"/>
	<path clip-path="url(#SVGID_6_)" fill="none" stroke="#FFFFFF" stroke-miterlimit="10" d="M1559.163,895.403
		c-0.187,0.372-0.372,0.744-0.558,1.115h1.673c-0.187-0.371-0.372-0.743-0.558-1.115H1559.163z"/>
	<path clip-path="url(#SVGID_6_)" fill="#231F20" d="M1563.065,904.881v1.672h1.114
		C1563.809,905.995,1563.437,905.438,1563.065,904.881"/>
	<path clip-path="url(#SVGID_6_)" fill="none" stroke="#FFFFFF" stroke-miterlimit="10" d="M1563.065,904.881v1.672h1.114
		C1563.809,905.995,1563.437,905.438,1563.065,904.881z"/>
	<path clip-path="url(#SVGID_6_)" fill="#231F20" d="M1561.393,918.259v1.115C1561.938,918.401,1561.901,919.251,1561.393,918.259"
		/>
	<path clip-path="url(#SVGID_6_)" fill="none" stroke="#FFFFFF" stroke-miterlimit="10" d="M1561.393,918.259v1.115
		C1561.938,918.401,1561.901,919.251,1561.393,918.259z"/>
	<path clip-path="url(#SVGID_6_)" fill="#231F20" d="M1558.605,941.672c1.405,0.907,0.093,0.55,1.673,0H1558.605z"/>
	<path clip-path="url(#SVGID_6_)" fill="none" stroke="#FFFFFF" stroke-miterlimit="10" d="M1558.605,941.672
		c1.405,0.907,0.093,0.55,1.673,0H1558.605z"/>
	<path clip-path="url(#SVGID_6_)" fill="#231F20" d="M1561.95,955.608c0.372,0.186,0.743,0.372,1.115,0.558
		C1562.693,955.98,1562.322,955.794,1561.95,955.608"/>
	<path clip-path="url(#SVGID_6_)" fill="none" stroke="#FFFFFF" stroke-miterlimit="10" d="M1561.95,955.608
		c0.372,0.186,0.743,0.372,1.115,0.558C1562.693,955.98,1562.322,955.794,1561.95,955.608z"/>
	<path clip-path="url(#SVGID_6_)" fill="#231F20" d="M1558.605,979.579v1.114C1559.15,979.721,1559.114,980.571,1558.605,979.579"/>
	<path clip-path="url(#SVGID_6_)" fill="none" stroke="#FFFFFF" stroke-miterlimit="10" d="M1558.605,979.579v1.114
		C1559.15,979.721,1559.114,980.571,1558.605,979.579z"/>
	<path clip-path="url(#SVGID_6_)" fill="#231F20" d="M1545.227,1029.192c0.775,1.071,0.057,0.333,1.115,1.114
		C1545.97,1029.936,1545.599,1029.563,1545.227,1029.192"/>
	<path clip-path="url(#SVGID_6_)" fill="none" stroke="#FFFFFF" stroke-miterlimit="10" d="M1545.227,1029.192
		c0.775,1.071,0.057,0.333,1.115,1.114C1545.97,1029.936,1545.599,1029.563,1545.227,1029.192z"/>
	<path clip-path="url(#SVGID_6_)" fill="#231F20" d="M1546.899,1029.192c0.557,0.371,1.114,0.743,1.672,1.114
		C1547.567,1029.169,1548.563,1029.913,1546.899,1029.192"/>
	<path clip-path="url(#SVGID_6_)" fill="none" stroke="#FFFFFF" stroke-miterlimit="10" d="M1546.899,1029.192
		c0.557,0.371,1.114,0.743,1.672,1.114C1547.567,1029.169,1548.563,1029.913,1546.899,1029.192z"/>
	<path clip-path="url(#SVGID_6_)" fill="#0078BF" d="M1613.793,529.716v0.202c0.351,0.422,0.695,0.849,1.037,1.278
		C1614.266,529.792,1614.871,530.679,1613.793,529.716"/>
	<path clip-path="url(#SVGID_6_)" fill="#0078BF" d="M1618.811,535.848l1.096,1.096c0.005,0.004,0.01,0.008,0.015,0.013
		C1619.153,535.896,1619.866,536.628,1618.811,535.848"/>
	<path clip-path="url(#SVGID_6_)" fill="#0078BF" d="M1974.464,753.812c-0.187,0.371-0.371,0.743-0.558,1.114
		C1974.734,753.995,1974.79,755.015,1974.464,753.812"/>
	<path clip-path="url(#SVGID_6_)" fill="#231F20" d="M1824.51,1076.018c-0.186,0.372-0.372,0.743-0.559,1.115h1.116
		C1824.882,1076.761,1824.695,1076.39,1824.51,1076.018"/>
	<path clip-path="url(#SVGID_6_)" fill="none" stroke="#FFFFFF" stroke-miterlimit="10" d="M1824.51,1076.018
		c-0.186,0.372-0.372,0.743-0.559,1.115h1.116C1824.882,1076.761,1824.695,1076.39,1824.51,1076.018z"/>
	<path clip-path="url(#SVGID_6_)" fill="#FFFFFF" d="M1818.378,1078.805c-1.301,1.487-2.603,2.974-3.902,4.46h0.558
		c1.486-0.929,2.973-1.858,4.459-2.787C1818.791,1078.793,1819.503,1079.811,1818.378,1078.805"/>
	<path clip-path="url(#SVGID_6_)" fill="#231F20" d="M1827.297,1078.805c0.558,0.188,1.115,0.372,1.673,0.558
		C1828.412,1079.177,1827.854,1078.992,1827.297,1078.805"/>
	<path clip-path="url(#SVGID_6_)" fill="none" stroke="#FFFFFF" stroke-miterlimit="10" d="M1827.297,1078.805
		c0.558,0.188,1.115,0.372,1.673,0.558C1828.412,1079.177,1827.854,1078.992,1827.297,1078.805z"/>
	<path clip-path="url(#SVGID_6_)" fill="#FFFFFF" d="M1841.791,1079.92c-0.188,0.186-0.372,0.372-0.559,0.558
		c0.371,0.372,0.744,0.743,1.116,1.115l0.557-1.673H1841.791z"/>
	<path clip-path="url(#SVGID_6_)" fill="#231F20" d="M1612.121,1081.035c0.371,0.187,0.743,0.371,1.114,0.558
		C1612.864,1081.406,1612.492,1081.222,1612.121,1081.035"/>
	<path clip-path="url(#SVGID_6_)" fill="none" stroke="#FFFFFF" stroke-miterlimit="10" d="M1612.121,1081.035
		c0.371,0.187,0.743,0.371,1.114,0.558C1612.864,1081.406,1612.492,1081.222,1612.121,1081.035z"/>
	<path clip-path="url(#SVGID_6_)" fill="#231F20" d="M1798.867,1082.149c0.371,0.187,0.743,0.372,1.114,0.558
		C1799.61,1082.521,1799.238,1082.336,1798.867,1082.149"/>
	<path clip-path="url(#SVGID_6_)" fill="none" stroke="#FFFFFF" stroke-miterlimit="10" d="M1798.867,1082.149
		c0.371,0.187,0.743,0.372,1.114,0.558C1799.61,1082.521,1799.238,1082.336,1798.867,1082.149z"/>
	<path clip-path="url(#SVGID_6_)" fill="#231F20" d="M1787.16,1087.167c0.372,0.186,0.743,0.372,1.115,0.558
		C1787.903,1087.539,1787.532,1087.353,1787.16,1087.167"/>
	<path clip-path="url(#SVGID_6_)" fill="none" stroke="#FFFFFF" stroke-miterlimit="10" d="M1787.16,1087.167
		c0.372,0.186,0.743,0.372,1.115,0.558C1787.903,1087.539,1787.532,1087.353,1787.16,1087.167z"/>
	<path clip-path="url(#SVGID_6_)" fill="#FFFFFF" d="M1601.529,1090.512v2.787h0.558l0.558-0.559
		C1601.933,1091.141,1602.991,1091.737,1601.529,1090.512"/>
	<path clip-path="url(#SVGID_6_)" fill="#231F20" d="M1835.659,1092.184c0.186,0.372,0.371,0.744,0.557,1.115
		C1835.979,1092.781,1836.663,1092.922,1835.659,1092.184"/>
	<path clip-path="url(#SVGID_6_)" fill="none" stroke="#FFFFFF" stroke-miterlimit="10" d="M1835.659,1092.184
		c0.186,0.372,0.371,0.744,0.557,1.115C1835.979,1092.781,1836.663,1092.922,1835.659,1092.184z"/>
</g>
<g>
	<defs>
		<rect id="SVGID_7_" width="2200" height="1200"/>
	</defs>
	<clipPath id="SVGID_8_">
		<use xlink:href="#SVGID_7_"  overflow="visible"/>
	</clipPath>
</g>
<g>
	<defs>
		<rect id="SVGID_9_" width="2200" height="1200"/>
	</defs>
	<clipPath id="SVGID_10_">
		<use xlink:href="#SVGID_9_"  overflow="visible"/>
	</clipPath>
</g>
<g>
	<defs>
		<rect id="SVGID_11_" width="2200" height="1200"/>
	</defs>
	<clipPath id="SVGID_12_">
		<use xlink:href="#SVGID_11_"  overflow="visible"/>
	</clipPath>
</g>
<g>
	<path fill="#0078BF" d="M236.576,781.043c0-2.173,1.739-4.129,4.129-4.129h89.968c2.391,0,4.129,1.956,4.129,4.129v23.688
		c0,2.173-1.739,4.129-4.129,4.129h-60.196v31.294h49.548c2.173,0,4.129,1.955,4.129,4.129v23.688c0,2.173-1.956,4.129-4.129,4.129
		h-49.548v52.808c0,2.173-1.956,4.129-4.129,4.129h-25.643c-2.391,0-4.129-1.956-4.129-4.129V781.043z"/>
	<path fill="#0078BF" d="M356.967,781.043c0-2.173,1.739-4.129,4.129-4.129h64.977c26.078,0,47.375,21.079,47.375,46.94
		c0,19.993-13.256,36.074-32.163,43.681l29.772,55.198c1.521,2.824,0,6.302-3.694,6.302h-28.903c-1.739,0-3.042-1.087-3.477-1.956
		l-28.903-57.589h-14.995v55.416c0,2.173-1.956,4.129-4.129,4.129h-25.86c-2.391,0-4.129-1.956-4.129-4.129V781.043z
		 M423.249,841.892c8.91,0,16.516-8.258,16.516-17.386c0-9.127-7.606-16.516-16.516-16.516h-32.163v33.901H423.249z"/>
	<path fill="#0078BF" d="M498.44,781.043c0-2.173,1.956-4.129,4.129-4.129h26.73c2.39,0,4.129,1.956,4.129,4.129v88.013
		c0,15.213,11.3,27.382,26.729,27.382c15.647,0,27.165-12.169,27.165-27.382v-88.013c0-2.173,1.739-4.129,4.129-4.129h26.729
		c2.173,0,4.129,1.956,4.129,4.129v89.752c0,33.031-27.816,60.413-62.152,60.413c-34.118,0-61.717-27.382-61.717-60.413V781.043z
		 M516.043,746.707c0-8.476,6.737-15.212,15.212-15.212c8.476,0,15.43,6.736,15.43,15.212s-6.954,15.43-15.43,15.43
		C522.78,762.137,516.043,755.183,516.043,746.707z M573.631,746.707c0-8.476,6.737-15.212,15.212-15.212
		c8.475,0,15.429,6.736,15.429,15.212s-6.954,15.43-15.429,15.43C580.368,762.137,573.631,755.183,573.631,746.707z"/>
	<path fill="#0078BF" d="M655.557,781.043c0-2.173,1.956-4.129,4.129-4.129h25.86c2.391,0,4.129,1.956,4.129,4.129v54.764h62.152
		v-54.764c0-2.173,1.739-4.129,4.129-4.129h25.861c2.173,0,4.129,1.956,4.129,4.129v143.863c0,2.173-1.956,4.129-4.129,4.129
		h-25.861c-2.39,0-4.129-1.956-4.129-4.129v-57.154h-62.152v57.154c0,2.173-1.738,4.129-4.129,4.129h-25.86
		c-2.173,0-4.129-1.956-4.129-4.129V781.043z"/>
	<path fill="#0078BF" d="M807.894,782.13c-0.87-3.043,0.869-5.216,3.912-5.216h25.426c1.738,0,3.477,1.521,3.912,3.042
		l18.689,73.671h0.87l33.684-76.496c0.652-1.304,1.956-2.39,3.694-2.39h3.912c1.956,0,3.26,1.086,3.694,2.39l33.684,76.496h0.87
		l18.689-73.671c0.435-1.521,2.173-3.042,3.912-3.042h25.426c3.042,0,4.781,2.173,3.912,5.216l-41.072,146.036
		c-0.435,1.738-2.173,3.042-3.912,3.042h-3.477c-1.521,0-3.042-1.086-3.694-2.391l-39.769-88.882h-0.652l-39.552,88.882
		c-0.652,1.305-2.173,2.391-3.694,2.391h-3.477c-1.738,0-3.477-1.304-3.912-3.042L807.894,782.13z"/>
	<path fill="#0078BF" d="M1014.127,781.043c0-2.173,1.739-4.129,4.129-4.129h89.968c2.391,0,4.13,1.956,4.13,4.129v23.688
		c0,2.173-1.739,4.129-4.13,4.129h-60.196v26.947h49.548c2.173,0,4.13,1.956,4.13,4.129v23.688c0,2.391-1.957,4.129-4.13,4.129
		h-49.548v29.338h60.196c2.391,0,4.13,1.956,4.13,4.129v23.688c0,2.173-1.739,4.129-4.13,4.129h-89.968
		c-2.391,0-4.129-1.956-4.129-4.129V781.043z"/>
	<path fill="#0078BF" d="M1139.52,781.043c0-2.173,1.738-4.129,4.129-4.129h64.978c26.077,0,47.374,21.079,47.374,46.94
		c0,19.993-13.256,36.074-32.162,43.681l29.772,55.198c1.521,2.824,0,6.302-3.694,6.302h-28.903c-1.738,0-3.043-1.087-3.478-1.956
		l-28.902-57.589h-14.995v55.416c0,2.173-1.956,4.129-4.129,4.129h-25.86c-2.391,0-4.129-1.956-4.129-4.129V781.043z
		 M1205.801,841.892c8.91,0,16.516-8.258,16.516-17.386c0-9.127-7.605-16.516-16.516-16.516h-32.163v33.901H1205.801z"/>
	<path fill="#0078BF" d="M1283.165,782.13c0-2.825,2.173-5.216,5.215-5.216h25.427c2.824,0,5.215,2.391,5.215,5.216v57.154
		l48.244-60.197c0.869-1.086,2.825-2.173,4.129-2.173h27.382c4.129,0,6.303,4.781,3.912,8.041l-50.852,63.673l55.415,72.149
		c2.391,3.26,0,8.04-4.129,8.04h-29.989c-1.521,0-3.478-0.869-3.912-1.521l-50.2-68.237v64.76c0,2.825-2.391,5.216-5.215,5.216
		h-25.427c-3.042,0-5.215-2.391-5.215-5.216V782.13z"/>
</g>
</svg>
